<svg xmlns="http://www.w3.org/2000/svg" width="407.53" height="503" viewBox="0 0 407.53 503">
  <defs>
    <style>
      .cls-1 {
        fill: #f29f05;
      }

      .cls-2 {
        fill: #a33e63;
      }

      .cls-3 {
        fill: #6d2942;
      }

      .cls-4 {
        fill: #f27e63;
      }

      .cls-5 {
        fill: #594b46;
      }

      .cls-6 {
        fill: #916646;
      }

      .cls-7 {
        fill: #423937;
      }

      .cls-8 {
        fill: #493c3a;
      }

      .cls-9 {
        fill: #39f7ed;
      }

      .cls-10 {
        fill: #2eccc0;
      }
    </style>
  </defs>
  <g id="Livello_2" data-name="Livello 2">
    <g id="Layer_1" data-name="Layer 1">
      <g>
        <circle class="cls-1" cx="203.76" cy="203.76" r="203.76"/>
        <path class="cls-2" d="M350.34,501,94.93,499.77l-15.46-.08L51,499.56c1.62-14.57,6.47-30.75,6.47-30.75s8.09-56.62,9.71-66.33,4.85-9.71,4.85-9.71,6.65-45.3,17.8-64.72l.09-.15a25.07,25.07,0,0,1,1.52-2.28c14.48-19.57,71.38-49.34,71.38-49.34.18-8.09,4.85-4.85,4.85-4.85v-.06l1.62-25.83s22.65-2,32.36-1.8S234,247,234,247v24.27s4.85-1.44,4.85,6.65c0,0,62.74,33.61,72.63,48.36S329.31,391,329.31,391s4.67-1.79,6.47,12.95,9.7,63.1,9.7,63.1S348.72,478.16,350.34,501Z"/>
        <polygon class="cls-3" points="125.2 501.31 301.89 503 284.79 457.4 193.6 468.38 123.78 460.78 99.08 501.31 125.2 501.31"/>
        <g>
          <path class="cls-4" d="M263.74,167.25a62.37,62.37,0,0,1-61.66,62.37h-.71A62.37,62.37,0,0,1,139,167.25V167h-.24V80.54H263.51v81.3C263.66,163.62,263.74,165.42,263.74,167.25Z"/>
          <circle class="cls-4" cx="138.76" cy="155.2" r="16.54" transform="translate(-69.1 143.58) rotate(-45)"/>
          <circle class="cls-4" cx="263.98" cy="155.2" r="16.54" transform="translate(52.28 376.46) rotate(-76.72)"/>
          <path class="cls-5" d="M131.67,149.06S126,159,137.34,165.12Z"/>
          <path class="cls-5" d="M271.07,147.17s5.67,9.92-5.67,16.06Z"/>
          <polygon class="cls-6" points="138.76 155.2 155.3 114.56 247.44 114.56 262.56 154.73 254.06 104.64 148.21 104.64 138.76 155.2"/>
          <circle class="cls-5" cx="178.45" cy="141.5" r="4.73"/>
          <circle class="cls-5" cx="226.18" cy="141.5" r="4.73"/>
          <polygon class="cls-5" points="203.02 154.25 203.02 181.19 192.63 177.41 203.02 154.25"/>
          <path class="cls-5" d="M183.65,205.77s18.57-30.09,42.06,0Z"/>
          <polygon class="cls-5" points="138.76 154.02 148.21 104.64 262.56 154.73 280.52 107.95 273.9 71.09 205.39 30.45 125.53 71.56 122.22 112.2 138.76 154.02"/>
          <polygon class="cls-7" points="205.39 30.45 148.21 104.64 125.53 71.56 205.39 30.45"/>
          <polygon class="cls-7" points="122.22 112.2 138.76 90.94 138.76 155.2 122.22 112.2"/>
          <polygon class="cls-7" points="205.39 30.45 254.06 104.64 273.9 71.09 205.39 30.45"/>
          <polygon class="cls-8" points="125.53 71.56 122.22 112.2 138.76 90.94 125.53 71.56"/>
          <polygon class="cls-8" points="177.51 66.63 201.13 104.64 148.21 104.64 177.51 66.63"/>
          <polygon class="cls-8" points="230.43 66.63 254.06 104.64 201.13 104.64 230.43 66.63"/>
          <polygon class="cls-7" points="177.51 66.84 229.96 66.84 201.13 104.64 177.51 66.84"/>
          <polygon class="cls-7" points="262.56 154.73 265.3 85.63 280.52 107.95 262.56 154.73"/>
          <polygon class="cls-8" points="273.9 71.09 280.52 107.95 265.4 85.74 273.9 71.09"/>
          <polygon class="cls-7" points="221.45 116.03 230.9 141.36 254.06 104.64 221.45 116.03"/>
          <polygon class="cls-8" points="148.21 104.51 221.45 115.85 230.9 141.36 148.21 104.51"/>
          <polygon class="cls-8" points="254.06 104.51 263.74 115.53 262.56 154.59 242.09 123.63 254.06 104.51"/>
          <polygon class="cls-5" points="194.52 210.82 210.11 210.82 202.55 221.45 194.52 210.82"/>
        </g>
        <polygon class="cls-4" points="175.6 245.54 175.6 217.85 227.56 218.03 227.38 246.98 175.6 245.54"/>
        <path class="cls-3" d="M101.27,352.23,98,433.13l-3.1,66.64-15.46-.08,7.23-39.05-1.61-17.8,9.7-76-4.85-37.21V327.9a25.07,25.07,0,0,1,1.52-2.28Z"/>
        <path class="cls-3" d="M234,247v23.67l-.09.51-32.36,13.12-33.89-12.91,1.62-25.83s22.65-2,32.36-1.8S234,247,234,247Z"/>
        <g>
          <path class="cls-9" d="M140.93,163.11s1.92,13.43,1.92,19.18,3.84,17.27,9.59,26.86,23,24.93,49.87,24.93S252.18,213,256,193.8l-.21-9.8,2.13-1.71,3.83-19.18s-34.52-9.59-49.87-11.51c0,0-7.67-7.67-24.93,0C187,151.6,158.2,153.52,140.93,163.11Z"/>
          <path class="cls-10" d="M256,193.8c-3.84,19.18-26.85,40.28-53.71,40.28s-44.11-15.34-49.87-24.93-9.59-21.1-9.59-26.86-1.92-19.18-1.92-19.18c.39-.21.78-.43,1.19-.63.39,3.57.73,7.37.73,9.8,0,5.75,3.84,17.26,9.59,26.85s23,24.93,49.87,24.93c26.43,0,49.14-20.43,53.51-39.36Z"/>
        </g>
        <polygon class="cls-2" points="86.73 460.25 128.05 448.85 167.95 448.85 264.84 436.03 264.84 483.05 126.63 494.45 101.2 500.99 51.1 500.15 58.99 458.33 86.73 460.25"/>
        <path class="cls-4" d="M315.58,474.73a63.92,63.92,0,0,1-11.71,2.48c-9.36,1.1-18.48.13-24.89-2.87l-19.39,3.79s-13.16-11.91-11.2-28.27L266,445s15.75-24.17,27.42-20.44.27,5.15,4.53,10.86c.61.83,2.05,1.06,4.05.9a97.5,97.5,0,0,0,11.57-2.19l1.28,10.07L313.22,462Z"/>
        <path class="cls-3" d="M320.44,501l-15.46.08-1.11-23.88L302,436.27l-.09-1.82-3.23-80.9,9.8-26.61q.85,1.15,1.53,2.28v1.68l-4.86,37.22,8.42,66,1.28,10.07L313.22,462l2.36,12.78Z"/>
        <polygon class="cls-2" points="311.93 461.68 270.61 450.28 230.71 450.28 133.81 437.45 133.81 484.48 272.03 495.88 297.45 502.42 347.55 501.57 339.66 459.75 311.93 461.68"/>
        <path class="cls-4" d="M149.21,453.93l-16.05-4.49s-14.39-22.06-25-18.65-.24,4.69-4.12,9.91-43.25-16-41.34,9.76,41.23,33.94,58.63,25.82L139,479.73S151,468.87,149.21,453.93Z"/>
      </g>
    </g>
  </g>
</svg>
