{
    "asset" : {
        "generator" : "Khronos glTF Blender I/O v1.1.46",
        "version" : "2.0"
    },
    "scene" : 0,
    "scenes" : [
        {
            "name" : "Scene",
            "nodes" : [
                0
            ]
        }
    ],
    "nodes" : [
        {
            "mesh" : 0,
            "name" : "Text.001",
            "rotation" : [
                0.6427875757217407,
                0,
                0,
                0.7660444378852844
            ],
            "scale" : [
                0.40925100445747375,
                0.40925121307373047,
                0.40925121307373047
            ],
            "translation" : [
                0,
                1.7332847118377686,
                -0.13972394168376923
            ]
        }
    ],
    "materials" : [
        {
            "doubleSided" : true,
            "emissiveFactor" : [
                0,
                0,
                0
            ],
            "name" : "White",
            "pbrMetallicRoughness" : {
                "baseColorFactor" : [
                    0.800000011920929,
                    0.800000011920929,
                    0.800000011920929,
                    1
                ],
                "metallicFactor" : 0,
                "roughnessFactor" : 0.5
            }
        }
    ],
    "meshes" : [
        {
            "name" : "Text.001",
            "primitives" : [
                {
                    "attributes" : {
                        "POSITION" : 0,
                        "NORMAL" : 1,
                        "TEXCOORD_0" : 2
                    },
                    "indices" : 3,
                    "material" : 0
                }
            ]
        }
    ],
    "accessors" : [
        {
            "bufferView" : 0,
            "componentType" : 5126,
            "count" : 27343,
            "max" : [
                1.1272763013839722,
                0.029999999329447746,
                2.041069269180298
            ],
            "min" : [
                -1.1272761821746826,
                -0.029999999329447746,
                -0.5323517918586731
            ],
            "type" : "VEC3"
        },
        {
            "bufferView" : 1,
            "componentType" : 5126,
            "count" : 27343,
            "type" : "VEC3"
        },
        {
            "bufferView" : 2,
            "componentType" : 5126,
            "count" : 27343,
            "type" : "VEC2"
        },
        {
            "bufferView" : 3,
            "componentType" : 5123,
            "count" : 70464,
            "type" : "SCALAR"
        }
    ],
    "bufferViews" : [
        {
            "buffer" : 0,
            "byteLength" : 328116,
            "byteOffset" : 0
        },
        {
            "buffer" : 0,
            "byteLength" : 328116,
            "byteOffset" : 328116
        },
        {
            "buffer" : 0,
            "byteLength" : 218744,
            "byteOffset" : 656232
        },
        {
            "buffer" : 0,
            "byteLength" : 140928,
            "byteOffset" : 874976
        }
    ],
    "buffers" : [
        {
            "byteLength" : 1015904,
            "uri" : "data:application/octet-stream;base64,"
        }
    ]
}
