{
    "asset" : {
        "generator" : "Khronos glTF Blender I/O v1.1.46",
        "version" : "2.0"
    },
    "scene" : 0,
    "scenes" : [
        {
            "name" : "Scene",
            "nodes" : [
                0,
                1
            ]
        }
    ],
    "nodes" : [
        {
            "name" : "Camera",
            "rotation" : [
                0.483536034822464,
                0.33687159419059753,
                -0.20870360732078552,
                0.7804827094078064
            ],
            "translation" : [
                7.358891487121582,
                4.958309173583984,
                6.925790786743164
            ]
        },
        {
            "mesh" : 0,
            "name" : "Cap",
            "rotation" : [
                0.7071068286895752,
                0,
                0,
                0.7071067094802856
            ],
            "scale" : [
                0.014497700147330761,
                0.014497700147330761,
                0.014497700147330761
            ]
        }
    ],
    "materials" : [
        {
            "doubleSided" : true,
            "emissiveFactor" : [
                0,
                0,
                0
            ],
            "name" : "My blue",
            "pbrMetallicRoughness" : {
                "baseColorFactor" : [
                    0.004024717956781387,
                    0.0024282163940370083,
                    0.06301002949476242,
                    1
                ],
                "metallicFactor" : 0,
                "roughnessFactor" : 0.5
            }
        }
    ],
    "meshes" : [
        {
            "name" : "Cap",
            "primitives" : [
                {
                    "attributes" : {
                        "POSITION" : 0,
                        "NORMAL" : 1,
                        "TEXCOORD_0" : 2
                    },
                    "indices" : 3,
                    "material" : 0
                }
            ]
        }
    ],
    "accessors" : [
        {
            "bufferView" : 0,
            "componentType" : 5126,
            "count" : 181416,
            "max" : [
                205.06723022460938,
                150.88877868652344,
                -12.737926483154297
            ],
            "min" : [
                -205.06741333007812,
                -404.2320556640625,
                -214.1354217529297
            ],
            "type" : "VEC3"
        },
        {
            "bufferView" : 1,
            "componentType" : 5126,
            "count" : 181416,
            "type" : "VEC3"
        },
        {
            "bufferView" : 2,
            "componentType" : 5126,
            "count" : 181416,
            "type" : "VEC2"
        },
        {
            "bufferView" : 3,
            "componentType" : 5125,
            "count" : 272376,
            "type" : "SCALAR"
        }
    ],
    "bufferViews" : [
        {
            "buffer" : 0,
            "byteLength" : 2176992,
            "byteOffset" : 0
        },
        {
            "buffer" : 0,
            "byteLength" : 2176992,
            "byteOffset" : 2176992
        },
        {
            "buffer" : 0,
            "byteLength" : 1451328,
            "byteOffset" : 4353984
        },
        {
            "buffer" : 0,
            "byteLength" : 1089504,
            "byteOffset" : 5805312
        }
    ],
    "buffers" : [
        {
            "byteLength" : 6894816,
            "uri" : "prova 2.bin"
        }
    ]
}
