{
    "asset" : {
        "generator" : "Khronos glTF Blender I/O v1.1.46",
        "version" : "2.0"
    },
    "scene" : 0,
    "scenes" : [
        {
            "name" : "Scene",
            "nodes" : [
                0,
                1
            ]
        }
    ],
    "nodes" : [
        {
            "mesh" : 0,
            "name" : "Cap",
            "rotation" : [
                0.7071068286895752,
                0,
                0,
                0.7071067094802856
            ],
            "scale" : [
                0.0031734579242765903,
                0.0031734579242765903,
                0.0031734579242765903
            ],
            "translation" : [
                0,
                0.022929906845092773,
                -0.02343306690454483
            ]
        },
        {
            "mesh" : 1,
            "name" : "Text",
            "rotation" : [
                0.6427875757217407,
                0,
                0,
                0.7660444378852844
            ],
            "scale" : [
                0.2188938856124878,
                0.21889394521713257,
                0.21889394521713257
            ],
            "translation" : [
                0,
                0.3360055685043335,
                -0.036566637456417084
            ]
        }
    ],
    "materials" : [
        {
            "doubleSided" : true,
            "emissiveFactor" : [
                0,
                0,
                0
            ],
            "name" : "My blue",
            "pbrMetallicRoughness" : {
                "baseColorFactor" : [
                    0.004024717956781387,
                    0.0024282163940370083,
                    0.06301002949476242,
                    1
                ],
                "metallicFactor" : 0,
                "roughnessFactor" : 0.5
            }
        },
        {
            "doubleSided" : true,
            "emissiveFactor" : [
                0,
                0,
                0
            ],
            "name" : "White",
            "pbrMetallicRoughness" : {
                "baseColorFactor" : [
                    0.800000011920929,
                    0.800000011920929,
                    0.800000011920929,
                    1
                ],
                "metallicFactor" : 0,
                "roughnessFactor" : 0.5
            }
        }
    ],
    "meshes" : [
        {
            "name" : "Cap",
            "primitives" : [
                {
                    "attributes" : {
                        "POSITION" : 0,
                        "NORMAL" : 1,
                        "TEXCOORD_0" : 2
                    },
                    "indices" : 3,
                    "material" : 0
                }
            ]
        },
        {
            "name" : "Text",
            "primitives" : [
                {
                    "attributes" : {
                        "POSITION" : 4,
                        "NORMAL" : 5,
                        "TEXCOORD_0" : 6
                    },
                    "indices" : 7,
                    "material" : 1
                }
            ]
        }
    ],
    "accessors" : [
        {
            "bufferView" : 0,
            "componentType" : 5126,
            "count" : 35700,
            "max" : [
                204.755859375,
                150.88877868652344,
                -12.737926483154297
            ],
            "min" : [
                -204.61526489257812,
                -404.2320556640625,
                -214.1354217529297
            ],
            "type" : "VEC3"
        },
        {
            "bufferView" : 1,
            "componentType" : 5126,
            "count" : 35700,
            "type" : "VEC3"
        },
        {
            "bufferView" : 2,
            "componentType" : 5126,
            "count" : 35700,
            "type" : "VEC2"
        },
        {
            "bufferView" : 3,
            "componentType" : 5123,
            "count" : 42390,
            "type" : "SCALAR"
        },
        {
            "bufferView" : 4,
            "componentType" : 5126,
            "count" : 44498,
            "max" : [
                0.41991403698921204,
                -0.031065180897712708,
                0.5485250353813171
            ],
            "min" : [
                -0.4206240177154541,
                -0.07039466500282288,
                -0.506006121635437
            ],
            "type" : "VEC3"
        },
        {
            "bufferView" : 5,
            "componentType" : 5126,
            "count" : 44498,
            "type" : "VEC3"
        },
        {
            "bufferView" : 6,
            "componentType" : 5126,
            "count" : 44498,
            "type" : "VEC2"
        },
        {
            "bufferView" : 7,
            "componentType" : 5123,
            "count" : 66732,
            "type" : "SCALAR"
        }
    ],
    "bufferViews" : [
        {
            "buffer" : 0,
            "byteLength" : 428400,
            "byteOffset" : 0
        },
        {
            "buffer" : 0,
            "byteLength" : 428400,
            "byteOffset" : 428400
        },
        {
            "buffer" : 0,
            "byteLength" : 285600,
            "byteOffset" : 856800
        },
        {
            "buffer" : 0,
            "byteLength" : 84780,
            "byteOffset" : 1142400
        },
        {
            "buffer" : 0,
            "byteLength" : 533976,
            "byteOffset" : 1227180
        },
        {
            "buffer" : 0,
            "byteLength" : 533976,
            "byteOffset" : 1761156
        },
        {
            "buffer" : 0,
            "byteLength" : 355984,
            "byteOffset" : 2295132
        },
        {
            "buffer" : 0,
            "byteLength" : 133464,
            "byteOffset" : 2651116
        }
    ],
    "buffers" : [
        {
            "byteLength" : 2784580,
            "uri" : "data:application/octet-stream;base64,"
        }
    ]
}
