<?xml version="1.0" standalone="no"?>
<!DOCTYPE svg PUBLIC "-//W3C//DTD SVG 1.1//EN" "http://www.w3.org/Graphics/SVG/1.1/DTD/svg11.dtd" >
<svg xmlns="http://www.w3.org/2000/svg" xmlns:xlink="http://www.w3.org/1999/xlink" version="1.1">
<metadata>
Created by FontForge 20170924 at Thu Aug  2 15:03:50 2018
 By www-data
Copyright \251 2017 by Matthieu Salvaggio \321 Adele Type. All rights reserved.
</metadata>
<defs>
<font id="ATSurt-Light" horiz-adv-x="0" >
  <font-face 
    font-family="AT Surt Light"
    font-weight="300"
    font-stretch="normal"
    units-per-em="1000"
    panose-1="2 0 0 3 0 0 0 0 0 0"
    ascent="760"
    descent="-240"
    x-height="525"
    cap-height="760"
    bbox="-700 -490 1363 1011"
    underline-thickness="50"
    underline-position="-100"
    stemh="89"
    stemv="88"
    unicode-range="U+0020-25CA"
  />
<missing-glyph horiz-adv-x="683" 
d="M607 0h-531v751h531v-751zM111 51l437 665h-437v-665zM135 35h437v665z" />
    <glyph glyph-name=".notdef" horiz-adv-x="683" 
d="M607 0h-531v751h531v-751zM111 51l437 665h-437v-665zM135 35h437v665z" />
    <glyph glyph-name="A" unicode="A" horiz-adv-x="755" 
d="M727 0h-96l-88 230h-330l-89 -230h-96l301 760h97zM246 317h264l-132 336z" />
    <glyph glyph-name="Aacute" unicode="&#xc1;" horiz-adv-x="755" 
d="M372 995h119l-165 -175h-62zM727 0h-96l-88 230h-330l-89 -230h-96l301 760h97zM246 317h264l-132 336z" />
    <glyph glyph-name="Abreve" unicode="&#x102;" horiz-adv-x="755" 
d="M557 995c0 -105 -71 -175 -179 -175s-180 70 -180 175h75c0 -63 42 -104 105 -104s104 41 104 104h75zM727 0h-96l-88 230h-330l-89 -230h-96l301 760h97zM246 317h264l-132 336z" />
    <glyph glyph-name="Acircumflex" unicode="&#xc2;" horiz-adv-x="755" 
d="M275 820h-65l118 175h99l118 -175h-64l-103 119zM727 0h-96l-88 230h-330l-89 -230h-96l301 760h97zM246 317h264l-132 336z" />
    <glyph glyph-name="Adieresis" unicode="&#xc4;" horiz-adv-x="755" 
d="M339 911h-75v84h75v-84zM492 911h-75v84h75v-84zM727 0h-96l-88 230h-330l-89 -230h-96l301 760h97zM246 317h264l-132 336z" />
    <glyph glyph-name="Agrave" unicode="&#xc0;" horiz-adv-x="755" 
d="M429 820l-165 175h119l108 -175h-62zM727 0h-96l-88 230h-330l-89 -230h-96l301 760h97zM246 317h264l-132 336z" />
    <glyph glyph-name="Amacron" unicode="&#x100;" horiz-adv-x="755" 
d="M534 955v-70h-312v70h312zM727 0h-96l-88 230h-330l-89 -230h-96l301 760h97zM246 317h264l-132 336z" />
    <glyph glyph-name="Aogonek" unicode="&#x104;" horiz-adv-x="755" 
d="M599 -97c0 -28 23 -44 66 -44c8 0 17 0 30 2v-59c-13 -2 -28 -3 -47 -3c-81 0 -113 48 -113 88c0 64 72 106 92 119h2l-86 224h-330l-89 -230h-96l301 760h97l301 -760h-62c-50 -40 -66 -72 -66 -97zM246 317h264l-132 336z" />
    <glyph glyph-name="Aring" unicode="&#xc5;" horiz-adv-x="755" 
d="M378 844c-51 0 -84 33 -84 83c0 49 33 81 84 81c50 0 83 -32 83 -81c0 -50 -33 -83 -83 -83zM378 889c22 0 37 15 37 37c0 23 -15 37 -37 37c-23 0 -38 -14 -38 -37c0 -22 15 -37 38 -37zM727 0h-96l-88 230h-330l-89 -230h-96l301 760h97zM246 317h264l-132 336z" />
    <glyph glyph-name="Atilde" unicode="&#xc3;" horiz-adv-x="755" 
d="M312 974c59 0 82 -64 121 -64c22 0 39 23 39 59h63c0 -88 -40 -128 -92 -128c-67 0 -87 66 -124 66c-22 0 -36 -25 -36 -61h-63c0 74 39 128 92 128zM727 0h-96l-88 230h-330l-89 -230h-96l301 760h97zM246 317h264l-132 336z" />
    <glyph glyph-name="AE" unicode="&#xc6;" horiz-adv-x="1167" 
d="M548 0v227h-304l-116 -227h-100l386 760h637v-91h-412v-221h370v-91h-370v-266h429v-91h-520zM548 669h-80l-178 -350h258v350z" />
    <glyph glyph-name="AEacute" unicode="&#x1fc;" horiz-adv-x="1167" 
d="M584 995h119l-165 -175h-62zM548 0v227h-304l-116 -227h-100l386 760h637v-91h-412v-221h370v-91h-370v-266h429v-91h-520zM548 669h-80l-178 -350h258v350z" />
    <glyph glyph-name="B" unicode="B" horiz-adv-x="704" 
d="M361 760c145 0 252 -66 252 -203c0 -74 -53 -133 -107 -150c71 -9 147 -82 147 -191c0 -129 -74 -216 -240 -216h-313v760h261zM343 447c114 0 184 35 184 111c0 71 -48 121 -164 121h-176v-232h156zM383 81c107 0 184 45 184 142c0 83 -65 138 -194 138h-186v-280h196z
" />
    <glyph glyph-name="C" unicode="C" horiz-adv-x="797" 
d="M413 -16c-211 0 -357 155 -357 393c0 240 145 399 360 399c172 0 306 -111 332 -282h-91c-21 119 -122 196 -248 196c-156 0 -260 -122 -260 -310c0 -187 106 -310 262 -310c126 0 225 78 246 197h91c-25 -172 -162 -283 -335 -283z" />
    <glyph glyph-name="Cacute" unicode="&#x106;" horiz-adv-x="797" 
d="M395 995h119l-165 -175h-62zM413 -16c-211 0 -357 155 -357 393c0 240 145 399 360 399c172 0 306 -111 332 -282h-91c-21 119 -122 196 -248 196c-156 0 -260 -122 -260 -310c0 -187 106 -310 262 -310c126 0 225 78 246 197h91c-25 -172 -162 -283 -335 -283z" />
    <glyph glyph-name="Ccaron" unicode="&#x10c;" horiz-adv-x="797" 
d="M233 995h65l103 -119l103 119h64l-118 -175h-99zM413 -16c-211 0 -357 155 -357 393c0 240 145 399 360 399c172 0 306 -111 332 -282h-91c-21 119 -122 196 -248 196c-156 0 -260 -122 -260 -310c0 -187 106 -310 262 -310c126 0 225 78 246 197h91
c-25 -172 -162 -283 -335 -283z" />
    <glyph glyph-name="Ccedilla" unicode="&#xc7;" horiz-adv-x="797" 
d="M411 70c126 0 225 78 246 197h91c-25 -170 -159 -281 -330 -283l-36 -35h13c47 0 78 -26 78 -64c0 -45 -38 -75 -87 -75h-57v45h50c27 0 45 11 45 29c0 16 -18 26 -45 26h-40v39l34 37c-189 18 -317 168 -317 391c0 240 145 399 360 399c172 0 306 -111 332 -282h-91
c-21 119 -122 196 -248 196c-156 0 -260 -122 -260 -310c0 -187 106 -310 262 -310z" />
    <glyph glyph-name="Cdotaccent" unicode="&#x10a;" horiz-adv-x="797" 
d="M401 884c-36 0 -65 28 -65 64c0 35 29 63 65 63c34 0 64 -28 64 -63c0 -36 -30 -64 -64 -64zM413 -16c-211 0 -357 155 -357 393c0 240 145 399 360 399c172 0 306 -111 332 -282h-91c-21 119 -122 196 -248 196c-156 0 -260 -122 -260 -310c0 -187 106 -310 262 -310
c126 0 225 78 246 197h91c-25 -172 -162 -283 -335 -283z" />
    <glyph glyph-name="D" unicode="D" horiz-adv-x="764" 
d="M370 760c204 0 342 -125 342 -385c0 -221 -100 -377 -320 -376l-292 1l1 760h269zM373 86c146 0 247 97 247 295c0 172 -79 293 -247 293h-185v-588h185z" />
    <glyph glyph-name="Eth" unicode="&#xd0;" horiz-adv-x="764" 
d="M370 760c204 0 342 -125 342 -385c0 -221 -100 -377 -320 -376l-292 1v345h-70v69h71v346h269zM373 86c146 0 247 97 247 295c0 172 -79 293 -247 293h-185v-260h154v-69h-154v-259h185z" />
    <glyph glyph-name="Dcaron" unicode="&#x10e;" horiz-adv-x="764" 
d="M213 995h65l103 -119l103 119h64l-118 -175h-99zM370 760c204 0 342 -125 342 -385c0 -221 -100 -377 -320 -376l-292 1l1 760h269zM373 86c146 0 247 97 247 295c0 172 -79 293 -247 293h-185v-588h185z" />
    <glyph glyph-name="Dcroat" unicode="&#x110;" horiz-adv-x="764" 
d="M370 760c204 0 342 -125 342 -385c0 -221 -100 -377 -320 -376l-292 1v345h-70v69h71v346h269zM373 86c146 0 247 97 247 295c0 172 -79 293 -247 293h-185v-260h154v-69h-154v-259h185z" />
    <glyph glyph-name="E" unicode="E" horiz-adv-x="718" 
d="M100 0v760h502v-84h-415v-231h373v-87h-373v-274h432v-84h-519z" />
    <glyph glyph-name="Eacute" unicode="&#xc9;" horiz-adv-x="718" 
d="M353 995h119l-165 -175h-62zM100 0v760h502v-84h-415v-231h373v-87h-373v-274h432v-84h-519z" />
    <glyph glyph-name="Ecaron" unicode="&#x11a;" horiz-adv-x="718" 
d="M191 995h65l103 -119l103 119h64l-118 -175h-99zM100 0v760h502v-84h-415v-231h373v-87h-373v-274h432v-84h-519z" />
    <glyph glyph-name="Ecircumflex" unicode="&#xca;" horiz-adv-x="718" 
d="M256 820h-65l118 175h99l118 -175h-64l-103 119zM100 0v760h502v-84h-415v-231h373v-87h-373v-274h432v-84h-519z" />
    <glyph glyph-name="Edieresis" unicode="&#xcb;" horiz-adv-x="718" 
d="M320 911h-75v84h75v-84zM473 911h-75v84h75v-84zM100 0v760h502v-84h-415v-231h373v-87h-373v-274h432v-84h-519z" />
    <glyph glyph-name="Edotaccent" unicode="&#x116;" horiz-adv-x="718" 
d="M359 884c-36 0 -65 28 -65 64c0 35 29 63 65 63c34 0 64 -28 64 -63c0 -36 -30 -64 -64 -64zM100 0v760h502v-84h-415v-231h373v-87h-373v-274h432v-84h-519z" />
    <glyph glyph-name="Egrave" unicode="&#xc8;" horiz-adv-x="718" 
d="M410 820l-165 175h119l108 -175h-62zM100 0v760h502v-84h-415v-231h373v-87h-373v-274h432v-84h-519z" />
    <glyph glyph-name="Emacron" unicode="&#x112;" horiz-adv-x="718" 
d="M515 955v-70h-312v70h312zM100 0v760h502v-84h-415v-231h373v-87h-373v-274h432v-84h-519z" />
    <glyph glyph-name="Eogonek" unicode="&#x118;" horiz-adv-x="718" 
d="M606 -141c8 0 17 0 30 2v-59c-13 -2 -28 -3 -47 -3c-81 0 -113 48 -113 88c0 56 56 95 83 113h-459v760h502v-84h-415v-231h373v-87h-373v-274h432v-84h-13c-50 -40 -66 -72 -66 -97c0 -28 23 -44 66 -44z" />
    <glyph glyph-name="F" unicode="F" horiz-adv-x="614" 
d="M541 445v-87h-353v-358h-88v760h493v-84h-405v-231h353z" />
    <glyph glyph-name="G" unicode="G" horiz-adv-x="816" 
d="M442 -16c-231 0 -386 159 -386 397c0 237 144 395 357 395c174 0 308 -105 335 -265h-91c-23 108 -123 179 -249 179c-156 0 -259 -125 -259 -312c0 -184 118 -308 295 -308c87 0 173 37 216 91v133h-268v90h356v-259c-59 -84 -182 -141 -306 -141z" />
    <glyph glyph-name="Gbreve" unicode="&#x11e;" horiz-adv-x="816" 
d="M599 995c0 -105 -71 -175 -179 -175s-180 70 -180 175h75c0 -63 42 -104 105 -104s104 41 104 104h75zM442 -16c-231 0 -386 159 -386 397c0 237 144 395 357 395c174 0 308 -105 335 -265h-91c-23 108 -123 179 -249 179c-156 0 -259 -125 -259 -312
c0 -184 118 -308 295 -308c87 0 173 37 216 91v133h-268v90h356v-259c-59 -84 -182 -141 -306 -141z" />
    <glyph glyph-name="Gcommaaccent" unicode="&#x122;" horiz-adv-x="816" 
d="M442 -16c-231 0 -386 159 -386 397c0 237 144 395 357 395c174 0 308 -105 335 -265h-91c-23 108 -123 179 -249 179c-156 0 -259 -125 -259 -312c0 -184 118 -308 295 -308c87 0 173 37 216 91v133h-268v90h356v-259c-59 -84 -182 -141 -306 -141zM412 -240h-47l34 170
h76z" />
    <glyph glyph-name="Gdotaccent" unicode="&#x120;" horiz-adv-x="816" 
d="M420 884c-36 0 -65 28 -65 64c0 35 29 63 65 63c34 0 64 -28 64 -63c0 -36 -30 -64 -64 -64zM442 -16c-231 0 -386 159 -386 397c0 237 144 395 357 395c174 0 308 -105 335 -265h-91c-23 108 -123 179 -249 179c-156 0 -259 -125 -259 -312c0 -184 118 -308 295 -308
c87 0 173 37 216 91v133h-268v90h356v-259c-59 -84 -182 -141 -306 -141z" />
    <glyph glyph-name="H" unicode="H" horiz-adv-x="760" 
d="M572 0v359h-384v-359h-88v760h88v-315h384v315h88v-760h-88z" />
    <glyph glyph-name="Hbar" unicode="&#x126;" horiz-adv-x="760" 
d="M660 0h-88v359h-384v-359h-88v543h-31v69h31v148h88v-148h384v148h88v-148h31v-69h-31v-543zM188 445h384v98h-384v-98z" />
    <glyph glyph-name="I" unicode="I" horiz-adv-x="243" 
d="M166 0h-89v760h89v-760z" />
    <glyph glyph-name="Iacute" unicode="&#xcd;" horiz-adv-x="243" 
d="M114 995h119l-165 -175h-62zM166 0h-89v760h89v-760z" />
    <glyph glyph-name="Icircumflex" unicode="&#xce;" horiz-adv-x="243" 
d="M17 820h-65l118 175h99l118 -175h-64l-103 119zM166 0h-89v760h89v-760z" />
    <glyph glyph-name="Idieresis" unicode="&#xcf;" horiz-adv-x="243" 
d="M80 911h-75v84h75v-84zM233 911h-75v84h75v-84zM166 0h-89v760h89v-760z" />
    <glyph glyph-name="Idotaccent" unicode="&#x130;" horiz-adv-x="243" 
d="M120 884c-36 0 -65 28 -65 64c0 35 29 63 65 63c34 0 64 -28 64 -63c0 -36 -30 -64 -64 -64zM166 0h-89v760h89v-760z" />
    <glyph glyph-name="Igrave" unicode="&#xcc;" horiz-adv-x="243" 
d="M171 820l-165 175h119l108 -175h-62zM166 0h-89v760h89v-760z" />
    <glyph glyph-name="Imacron" unicode="&#x12a;" horiz-adv-x="243" 
d="M276 955v-70h-312v70h312zM166 0h-89v760h89v-760z" />
    <glyph glyph-name="Iogonek" unicode="&#x12e;" horiz-adv-x="243" 
d="M158 -141c8 0 17 0 30 2v-59c-13 -2 -28 -3 -47 -3c-81 0 -113 48 -113 88c0 56 56 95 83 113h-34v760h89v-760h-8c-50 -40 -66 -72 -66 -97c0 -28 23 -44 66 -44z" />
    <glyph glyph-name="J" unicode="J" horiz-adv-x="575" 
d="M273 -16c-151 0 -244 82 -255 237h88c13 -100 65 -151 160 -151c136 0 141 106 141 310v380h91v-370c0 -231 -3 -406 -225 -406z" />
    <glyph glyph-name="K" unicode="K" horiz-adv-x="659" 
d="M188 0h-88v760h88v-350l316 350h112l-336 -371l351 -389h-113l-330 357v-357z" />
    <glyph glyph-name="Kcommaaccent" unicode="&#x136;" horiz-adv-x="659" 
d="M188 357v-357h-88v760h88v-350l316 350h112l-336 -371l351 -389h-113zM312 -240h-47l34 170h76z" />
    <glyph glyph-name="L" unicode="L" horiz-adv-x="610" 
d="M100 0v760h87v-676h405v-84h-492z" />
    <glyph glyph-name="Lacute" unicode="&#x139;" horiz-adv-x="610" 
d="M299 995h119l-165 -175h-62zM100 0v760h87v-676h405v-84h-492z" />
    <glyph glyph-name="Lcaron" unicode="&#x13d;" horiz-adv-x="622" 
d="M100 0v760h87v-676h405v-84h-492zM507 760h97l-105 -175h-40z" />
    <glyph glyph-name="Lcommaaccent" unicode="&#x13b;" horiz-adv-x="610" 
d="M100 0v760h87v-676h405v-84h-492zM297 -240h-47l34 170h76z" />
    <glyph glyph-name="Lslash" unicode="&#x141;" horiz-adv-x="610" 
d="M100 0v369l-95 -64v95l95 64v296h87v-238l105 70v-95l-105 -70v-343h405v-84h-492z" />
    <glyph glyph-name="M" unicode="M" horiz-adv-x="851" 
d="M425 102l229 658h97v-760h-87v560l-189 -560h-99l-189 560v-560h-87v760h97z" />
    <glyph glyph-name="N" unicode="N" horiz-adv-x="760" 
d="M572 134v626h88v-760h-94l-378 598v-598h-88v760h88z" />
    <glyph glyph-name="Nacute" unicode="&#x143;" horiz-adv-x="760" 
d="M372 995h119l-165 -175h-62zM572 134v626h88v-760h-94l-378 598v-598h-88v760h88z" />
    <glyph glyph-name="Ncaron" unicode="&#x147;" horiz-adv-x="760" 
d="M210 995h65l103 -119l103 119h64l-118 -175h-99zM572 134v626h88v-760h-94l-378 598v-598h-88v760h88z" />
    <glyph glyph-name="Ncommaaccent" unicode="&#x145;" horiz-adv-x="760" 
d="M572 134v626h88v-760h-94l-378 598v-598h-88v760h88zM370 -240h-47l34 170h76z" />
    <glyph glyph-name="Eng" unicode="&#x14a;" horiz-adv-x="760" 
d="M471 -240c-171 0 -199 123 -198 183h93c-1 -16 3 -98 102 -98c92 0 99 71 101 145l-379 608v-598h-90v760h91l379 -626v626h90v-760c0 -101 -7 -240 -189 -240z" />
    <glyph glyph-name="Ntilde" unicode="&#xd1;" horiz-adv-x="760" 
d="M312 974c59 0 82 -64 121 -64c22 0 39 23 39 59h63c0 -88 -40 -128 -92 -128c-67 0 -87 66 -124 66c-22 0 -36 -25 -36 -61h-63c0 74 39 128 92 128zM572 134v626h88v-760h-94l-378 598v-598h-88v760h88z" />
    <glyph glyph-name="O" unicode="O" horiz-adv-x="837" 
d="M420 -16c-216 0 -364 156 -364 396s148 396 364 396c214 0 361 -156 361 -396s-147 -396 -361 -396zM419 70c161 0 270 121 270 310s-109 310 -270 310c-162 0 -271 -121 -271 -310s109 -310 271 -310z" />
    <glyph glyph-name="Oacute" unicode="&#xd3;" horiz-adv-x="837" 
d="M413 995h119l-165 -175h-62zM420 -16c-216 0 -364 156 -364 396s148 396 364 396c214 0 361 -156 361 -396s-147 -396 -361 -396zM419 70c161 0 270 121 270 310s-109 310 -270 310c-162 0 -271 -121 -271 -310s109 -310 271 -310z" />
    <glyph glyph-name="Ocircumflex" unicode="&#xd4;" horiz-adv-x="837" 
d="M316 820h-65l118 175h99l118 -175h-64l-103 119zM420 -16c-216 0 -364 156 -364 396s148 396 364 396c214 0 361 -156 361 -396s-147 -396 -361 -396zM419 70c161 0 270 121 270 310s-109 310 -270 310c-162 0 -271 -121 -271 -310s109 -310 271 -310z" />
    <glyph glyph-name="Odieresis" unicode="&#xd6;" horiz-adv-x="837" 
d="M380 911h-75v84h75v-84zM533 911h-75v84h75v-84zM420 -16c-216 0 -364 156 -364 396s148 396 364 396c214 0 361 -156 361 -396s-147 -396 -361 -396zM419 70c161 0 270 121 270 310s-109 310 -270 310c-162 0 -271 -121 -271 -310s109 -310 271 -310z" />
    <glyph glyph-name="Ograve" unicode="&#xd2;" horiz-adv-x="837" 
d="M470 820l-165 175h119l108 -175h-62zM420 -16c-216 0 -364 156 -364 396s148 396 364 396c214 0 361 -156 361 -396s-147 -396 -361 -396zM419 70c161 0 270 121 270 310s-109 310 -270 310c-162 0 -271 -121 -271 -310s109 -310 271 -310z" />
    <glyph glyph-name="Ohungarumlaut" unicode="&#x150;" horiz-adv-x="837" 
d="M310 995h119l-165 -175h-62zM516 995h119l-165 -175h-62zM420 -16c-216 0 -364 156 -364 396s148 396 364 396c214 0 361 -156 361 -396s-147 -396 -361 -396zM419 70c161 0 270 121 270 310s-109 310 -270 310c-162 0 -271 -121 -271 -310s109 -310 271 -310z" />
    <glyph glyph-name="Omacron" unicode="&#x14c;" horiz-adv-x="837" 
d="M575 955v-70h-312v70h312zM420 -16c-216 0 -364 156 -364 396s148 396 364 396c214 0 361 -156 361 -396s-147 -396 -361 -396zM419 70c161 0 270 121 270 310s-109 310 -270 310c-162 0 -271 -121 -271 -310s109 -310 271 -310z" />
    <glyph glyph-name="Oslash" unicode="&#xd8;" horiz-adv-x="837" 
d="M655 693c79 -69 126 -178 126 -313c0 -240 -147 -396 -361 -396c-70 0 -133 16 -186 47l-56 -89h-75l80 125c-80 69 -127 178 -127 313c0 240 148 396 364 396c69 0 131 -16 184 -46l56 88h75zM148 380c0 -100 31 -181 84 -236l324 510c-39 24 -85 36 -137 36
c-162 0 -271 -121 -271 -310zM419 70c161 0 270 121 270 310c0 100 -31 181 -83 235l-324 -510c39 -23 85 -35 137 -35z" />
    <glyph glyph-name="Otilde" unicode="&#xd5;" horiz-adv-x="837" 
d="M353 974c59 0 82 -64 121 -64c22 0 39 23 39 59h63c0 -88 -40 -128 -92 -128c-67 0 -87 66 -124 66c-22 0 -36 -25 -36 -61h-63c0 74 39 128 92 128zM420 -16c-216 0 -364 156 -364 396s148 396 364 396c214 0 361 -156 361 -396s-147 -396 -361 -396zM419 70
c161 0 270 121 270 310s-109 310 -270 310c-162 0 -271 -121 -271 -310s109 -310 271 -310z" />
    <glyph glyph-name="OE" unicode="&#x152;" horiz-adv-x="1308" 
d="M419 -16c-216 0 -363 156 -363 396s147 396 363 396c113 0 205 -42 270 -114v100h502v-84h-411v-231h370v-85h-370v-276h428v-84h-519v97c-65 -73 -157 -115 -270 -115zM417 70c162 0 271 121 271 310s-109 310 -271 310c-160 0 -270 -121 -270 -310s110 -310 270 -310z
" />
    <glyph glyph-name="P" unicode="P" horiz-adv-x="664" 
d="M382 760c139 0 231 -67 231 -209c0 -120 -72 -204 -229 -204h-197v-347h-87v760h282zM364 428c101 0 163 40 163 125c0 74 -47 126 -163 126h-177v-251h177z" />
    <glyph glyph-name="Thorn" unicode="&#xde;" horiz-adv-x="664" 
d="M351 598c123 0 262 -16 262 -209c0 -187 -132 -204 -251 -204h-172v-185h-90v760h90v-162h161zM354 277c77 0 164 -1 164 114s-88 114 -164 114h-164v-228h164z" />
    <glyph glyph-name="Q" unicode="Q" horiz-adv-x="837" 
d="M781 380c0 -145 -53 -259 -142 -326l142 -120h-123l-92 78c-44 -18 -93 -28 -146 -28c-216 0 -364 156 -364 396s148 396 364 396c214 0 361 -156 361 -396zM419 70c24 0 47 3 68 8l-132 111h122l90 -76c76 51 121 145 121 267c0 189 -109 310 -269 310
c-161 0 -270 -121 -270 -310s109 -310 270 -310z" />
    <glyph glyph-name="R" unicode="R" horiz-adv-x="659" 
d="M361 760c158 0 252 -62 252 -199c0 -116 -95 -192 -254 -189c-17 0 -41 1 -59 1l341 -373h-111l-343 375v-375h-87v760h261zM380 450c74 0 146 37 146 114c0 68 -47 115 -163 115h-176v-229h193z" />
    <glyph glyph-name="Racute" unicode="&#x154;" horiz-adv-x="659" 
d="M323 995h119l-165 -175h-62zM361 760c158 0 252 -62 252 -199c0 -116 -95 -192 -254 -189c-17 0 -41 1 -59 1l341 -373h-111l-343 375v-375h-87v760h261zM380 450c74 0 146 37 146 114c0 68 -47 115 -163 115h-176v-229h193z" />
    <glyph glyph-name="Rcaron" unicode="&#x158;" horiz-adv-x="659" 
d="M161 995h65l103 -119l103 119h64l-118 -175h-99zM361 760c158 0 252 -62 252 -199c0 -116 -95 -192 -254 -189c-17 0 -41 1 -59 1l341 -373h-111l-343 375v-375h-87v760h261zM380 450c74 0 146 37 146 114c0 68 -47 115 -163 115h-176v-229h193z" />
    <glyph glyph-name="Rcommaaccent" unicode="&#x156;" horiz-adv-x="659" 
d="M361 760c158 0 252 -62 252 -199c0 -116 -95 -192 -254 -189c-17 0 -41 1 -59 1l341 -373h-111l-343 375v-375h-87v760h261zM380 450c74 0 146 37 146 114c0 68 -47 115 -163 115h-176v-229h193zM321 -240h-47l34 170h76z" />
    <glyph glyph-name="S" unicode="S" horiz-adv-x="667" 
d="M363 -16c-225 0 -320 122 -331 262h90c33 -140 131 -177 259 -177c105 0 173 38 173 120c0 89 -78 115 -130 129c-50 14 -112 24 -187 50c-93 32 -160 75 -160 183c0 168 147 225 268 225c173 0 266 -107 269 -254h-88c-11 139 -113 168 -193 168
c-50 0 -167 -13 -167 -125c0 -59 31 -87 96 -111c54 -19 83 -24 139 -36c62 -15 234 -47 234 -217c0 -151 -89 -217 -272 -217z" />
    <glyph glyph-name="Sacute" unicode="&#x15a;" horiz-adv-x="667" 
d="M323 986h119l-165 -175h-62zM363 -16c-225 0 -320 122 -331 262h90c33 -140 131 -177 259 -177c105 0 173 38 173 120c0 89 -78 115 -130 129c-50 14 -112 24 -187 50c-93 32 -160 75 -160 183c0 168 147 225 268 225c173 0 266 -107 269 -254h-88
c-11 139 -113 168 -193 168c-50 0 -167 -13 -167 -125c0 -59 31 -87 96 -111c54 -19 83 -24 139 -36c62 -15 234 -47 234 -217c0 -151 -89 -217 -272 -217z" />
    <glyph glyph-name="Scaron" unicode="&#x160;" horiz-adv-x="667" 
d="M161 986h65l103 -119l103 119h64l-118 -175h-99zM363 -16c-225 0 -320 122 -331 262h90c33 -140 131 -177 259 -177c105 0 173 38 173 120c0 89 -78 115 -130 129c-50 14 -112 24 -187 50c-93 32 -160 75 -160 183c0 168 147 225 268 225c173 0 266 -107 269 -254h-88
c-11 139 -113 168 -193 168c-50 0 -167 -13 -167 -125c0 -59 31 -87 96 -111c54 -19 83 -24 139 -36c62 -15 234 -47 234 -217c0 -151 -89 -217 -272 -217z" />
    <glyph glyph-name="Scedilla" unicode="&#x15e;" horiz-adv-x="667" 
d="M323 -51c47 0 78 -26 78 -64c0 -45 -38 -75 -87 -75h-57v45h50c27 0 45 11 45 29c0 16 -18 26 -45 26h-40v39l35 38c-181 20 -260 132 -270 259h90c33 -140 131 -177 259 -177c105 0 173 38 173 120c0 89 -78 115 -130 129c-50 14 -112 24 -187 50
c-93 32 -160 75 -160 183c0 168 147 225 268 225c173 0 266 -107 269 -254h-88c-11 139 -113 168 -193 168c-50 0 -167 -13 -167 -125c0 -59 31 -87 96 -111c54 -19 83 -24 139 -36c62 -15 234 -47 234 -217c0 -151 -89 -217 -272 -217h-16l-37 -35h13z" />
    <glyph glyph-name="Scommaaccent" unicode="&#x218;" horiz-adv-x="667" 
d="M363 -16c-225 0 -320 122 -331 262h90c33 -140 131 -177 259 -177c105 0 173 38 173 120c0 89 -78 115 -130 129c-50 14 -112 24 -187 50c-93 32 -160 75 -160 183c0 168 147 225 268 225c173 0 266 -107 269 -254h-88c-11 139 -113 168 -193 168
c-50 0 -167 -13 -167 -125c0 -59 31 -87 96 -111c54 -19 83 -24 139 -36c62 -15 234 -47 234 -217c0 -151 -89 -217 -272 -217zM321 -240h-47l34 170h76z" />
    <glyph glyph-name="T" unicode="T" horiz-adv-x="611" 
d="M262 0v676h-234v84h554l1 -84h-233v-676h-88z" />
    <glyph glyph-name="Tbar" unicode="&#x166;" horiz-adv-x="611" 
d="M462 345h-112v-345h-88v345h-112v69h112v262h-234v84h554l1 -84h-233v-262h112v-69z" />
    <glyph glyph-name="Tcaron" unicode="&#x164;" horiz-adv-x="611" 
d="M138 995h65l103 -119l103 119h64l-118 -175h-99zM262 0v676h-234v84h554l1 -84h-233v-676h-88z" />
    <glyph glyph-name="uni0162" unicode="&#x162;" horiz-adv-x="611" 
d="M300 -51c47 0 78 -26 78 -64c0 -45 -38 -75 -87 -75h-57v45h50c27 0 45 11 45 29c0 16 -18 26 -45 26h-40v39l47 51h-29v676h-234v84h554l1 -84h-233v-654h13l-13 -12v-10h-10l-53 -51h13z" />
    <glyph glyph-name="uni021A" unicode="&#x21a;" horiz-adv-x="611" 
d="M262 0v676h-234v84h554l1 -84h-233v-676h-88zM298 -240h-47l34 170h76z" />
    <glyph glyph-name="U" unicode="U" horiz-adv-x="729" 
d="M380 -16c-267 0 -280 190 -280 387v389h88v-396c0 -164 15 -294 192 -294s192 130 192 294v396h88v-389c0 -197 -13 -387 -280 -387z" />
    <glyph glyph-name="Uacute" unicode="&#xda;" horiz-adv-x="729" 
d="M372 995h119l-165 -175h-62zM380 -16c-267 0 -280 190 -280 387v389h88v-396c0 -164 15 -294 192 -294s192 130 192 294v396h88v-389c0 -197 -13 -387 -280 -387z" />
    <glyph glyph-name="Ucircumflex" unicode="&#xdb;" horiz-adv-x="729" 
d="M275 820h-65l118 175h99l118 -175h-64l-103 119zM380 -16c-267 0 -280 190 -280 387v389h88v-396c0 -164 15 -294 192 -294s192 130 192 294v396h88v-389c0 -197 -13 -387 -280 -387z" />
    <glyph glyph-name="Udieresis" unicode="&#xdc;" horiz-adv-x="729" 
d="M341 911h-75v84h75v-84zM494 911h-75v84h75v-84zM380 -16c-267 0 -280 190 -280 387v389h88v-396c0 -164 15 -294 192 -294s192 130 192 294v396h88v-389c0 -197 -13 -387 -280 -387z" />
    <glyph glyph-name="Ugrave" unicode="&#xd9;" horiz-adv-x="729" 
d="M429 820l-165 175h119l108 -175h-62zM380 -16c-267 0 -280 190 -280 387v389h88v-396c0 -164 15 -294 192 -294s192 130 192 294v396h88v-389c0 -197 -13 -387 -280 -387z" />
    <glyph glyph-name="Uhungarumlaut" unicode="&#x170;" horiz-adv-x="729" 
d="M269 995h119l-165 -175h-62zM475 995h119l-165 -175h-62zM380 -16c-267 0 -280 190 -280 387v389h88v-396c0 -164 15 -294 192 -294s192 130 192 294v396h88v-389c0 -197 -13 -387 -280 -387z" />
    <glyph glyph-name="Umacron" unicode="&#x16a;" horiz-adv-x="729" 
d="M534 955v-70h-312v70h312zM380 -16c-267 0 -280 190 -280 387v389h88v-396c0 -164 15 -294 192 -294s192 130 192 294v396h88v-389c0 -197 -13 -387 -280 -387z" />
    <glyph glyph-name="Uogonek" unicode="&#x172;" horiz-adv-x="729" 
d="M660 371c0 -192 -12 -378 -261 -387c-36 -33 -48 -60 -48 -81c0 -28 23 -44 66 -44c8 0 17 0 30 2v-59c-13 -2 -28 -3 -47 -3c-81 0 -113 48 -113 88c0 44 33 77 61 98c-236 15 -248 197 -248 386v389h88v-396c0 -164 15 -294 192 -294s192 130 192 294v396h88v-389z" />
    <glyph glyph-name="Uring" unicode="&#x16e;" horiz-adv-x="729" 
d="M378 844c-51 0 -84 33 -84 83c0 49 33 81 84 81c50 0 83 -32 83 -81c0 -50 -33 -83 -83 -83zM378 889c22 0 37 15 37 37c0 23 -15 37 -37 37c-23 0 -38 -14 -38 -37c0 -22 15 -37 38 -37zM380 -16c-267 0 -280 190 -280 387v389h88v-396c0 -164 15 -294 192 -294
s192 130 192 294v396h88v-389c0 -197 -13 -387 -280 -387z" />
    <glyph glyph-name="V" unicode="V" horiz-adv-x="735" 
d="M368 107l250 653h99l-301 -760h-97l-301 760h100z" />
    <glyph glyph-name="W" unicode="W" horiz-adv-x="1079" 
d="M278 107l204 653h115l205 -653l160 653h99l-212 -760h-96l-213 668l-214 -668h-96l-212 760h100z" />
    <glyph glyph-name="Wacute" unicode="&#x1e82;" horiz-adv-x="1079" 
d="M534 995h119l-165 -175h-62zM278 107l204 653h115l205 -653l160 653h99l-212 -760h-96l-213 668l-214 -668h-96l-212 760h100z" />
    <glyph glyph-name="Wcircumflex" unicode="&#x174;" horiz-adv-x="1079" 
d="M437 820h-65l118 175h99l118 -175h-64l-103 119zM278 107l204 653h115l205 -653l160 653h99l-212 -760h-96l-213 668l-214 -668h-96l-212 760h100z" />
    <glyph glyph-name="Wdieresis" unicode="&#x1e84;" horiz-adv-x="1079" 
d="M501 911h-75v84h75v-84zM654 911h-75v84h75v-84zM278 107l204 653h115l205 -653l160 653h99l-212 -760h-96l-213 668l-214 -668h-96l-212 760h100z" />
    <glyph glyph-name="Wgrave" unicode="&#x1e80;" horiz-adv-x="1079" 
d="M591 820l-165 175h119l108 -175h-62zM278 107l204 653h115l205 -653l160 653h99l-212 -760h-96l-213 668l-214 -668h-96l-212 760h100z" />
    <glyph glyph-name="X" unicode="X" horiz-adv-x="663" 
d="M135 0h-107l251 383l-236 377h107l182 -301l181 301h108l-237 -377l251 -383h-107l-196 310z" />
    <glyph glyph-name="Y" unicode="Y" horiz-adv-x="670" 
d="M127 760l209 -414l208 414h101l-266 -497v-263h-89v263l-265 497h102z" />
    <glyph glyph-name="Yacute" unicode="&#xdd;" horiz-adv-x="670" 
d="M330 995h119l-165 -175h-62zM127 760l209 -414l208 414h101l-266 -497v-263h-89v263l-265 497h102z" />
    <glyph glyph-name="Ycircumflex" unicode="&#x176;" horiz-adv-x="670" 
d="M233 820h-65l118 175h99l118 -175h-64l-103 119zM127 760l209 -414l208 414h101l-266 -497v-263h-89v263l-265 497h102z" />
    <glyph glyph-name="Ydieresis" unicode="&#x178;" horiz-adv-x="670" 
d="M294 911h-75v84h75v-84zM447 911h-75v84h75v-84zM127 760l209 -414l208 414h101l-266 -497v-263h-89v263l-265 497h102z" />
    <glyph glyph-name="Ygrave" unicode="&#x1ef2;" horiz-adv-x="670" 
d="M387 820l-165 175h119l108 -175h-62zM127 760l209 -414l208 414h101l-266 -497v-263h-89v263l-265 497h102z" />
    <glyph glyph-name="Z" unicode="Z" horiz-adv-x="639" 
d="M43 0v84l418 592h-408v84h507l1 -84l-418 -592h460v-84h-560z" />
    <glyph glyph-name="Zacute" unicode="&#x179;" horiz-adv-x="639" 
d="M316 995h119l-165 -175h-62zM43 0v84l418 592h-408v84h507l1 -84l-418 -592h460v-84h-560z" />
    <glyph glyph-name="Zcaron" unicode="&#x17d;" horiz-adv-x="639" 
d="M154 995h65l103 -119l103 119h64l-118 -175h-99zM43 0v84l418 592h-408v84h507l1 -84l-418 -592h460v-84h-560z" />
    <glyph glyph-name="Zdotaccent" unicode="&#x17b;" horiz-adv-x="639" 
d="M322 884c-36 0 -65 28 -65 64c0 35 29 63 65 63c34 0 64 -28 64 -63c0 -36 -30 -64 -64 -64zM43 0v84l418 592h-408v84h507l1 -84l-418 -592h460v-84h-560z" />
    <glyph glyph-name="I.ss01" horiz-adv-x="709" 
d="M311 676h-234v84h554l1 -84h-233v-592h233l-1 -84h-554v84h234v592z" />
    <glyph glyph-name="Iacute.ss01" horiz-adv-x="709" 
d="M349 995h119l-165 -175h-62zM311 676h-234v84h554l1 -84h-233v-592h233l-1 -84h-554v84h234v592z" />
    <glyph glyph-name="Icircumflex.ss01" horiz-adv-x="709" 
d="M252 820h-65l118 175h99l118 -175h-64l-103 119zM311 676h-234v84h554l1 -84h-233v-592h233l-1 -84h-554v84h234v592z" />
    <glyph glyph-name="Idieresis.ss01" horiz-adv-x="709" 
d="M277 901c-24 0 -46 20 -46 48c0 24 22 44 46 44c29 0 47 -20 47 -44c0 -28 -21 -48 -47 -48zM424 901c-25 0 -46 20 -46 48c0 24 21 44 46 44c28 0 47 -20 47 -44c0 -28 -22 -48 -47 -48zM311 676h-234v84h554l1 -84h-233v-592h233l-1 -84h-554v84h234v592z" />
    <glyph glyph-name="Idotaccent.ss01" horiz-adv-x="709" 
d="M355 884c-36 0 -65 28 -65 64c0 35 29 63 65 63c34 0 64 -28 64 -63c0 -36 -30 -64 -64 -64zM311 676h-234v84h554l1 -84h-233v-592h233l-1 -84h-554v84h234v592z" />
    <glyph glyph-name="Igrave.ss01" horiz-adv-x="709" 
d="M406 820l-165 175h119l108 -175h-62zM311 676h-234v84h554l1 -84h-233v-592h233l-1 -84h-554v84h234v592z" />
    <glyph glyph-name="Imacron.ss01" horiz-adv-x="709" 
d="M511 955v-70h-312v70h312zM311 676h-234v84h554l1 -84h-233v-592h233l-1 -84h-554v84h234v592z" />
    <glyph glyph-name="Iogonek.ss01" horiz-adv-x="709" 
d="M631 0h-253c-50 -40 -66 -72 -66 -97c0 -28 23 -44 66 -44c8 0 17 0 30 2v-59c-13 -2 -28 -3 -47 -3c-81 0 -113 48 -113 88c0 56 56 95 83 113h-254v84h234v592h-234v84h554l1 -84h-233v-592h233z" />
    <glyph glyph-name="J.ss01" horiz-adv-x="575" 
d="M273 -16c-151 0 -244 82 -255 237h88c13 -100 65 -151 160 -151c140 0 145 106 145 310v296h-333v84h420v-370c0 -231 -3 -406 -225 -406z" />
    <glyph glyph-name="K.ss01" horiz-adv-x="679" 
d="M374 300l-177 -300l-9 2v-2h-89v760h89v-609l347 609h101l-211 -369l225 -391h-101z" />
    <glyph glyph-name="Kcommaaccent.ss01" horiz-adv-x="679" 
d="M374 300l-177 -300l-9 2v-2h-89v760h89v-609l347 609h101l-211 -369l225 -391h-101zM329 -240h-47l34 170h76z" />
    <glyph glyph-name="M.ss01" horiz-adv-x="851" 
d="M425 241l226 519h100v-760h-87v603l-189 -436h-99l-189 436v-603h-87v760h100z" />
    <glyph glyph-name="Q.ss01" horiz-adv-x="837" 
d="M420 -16c-20 0 -39 1 -57 4l-47 -73h292v-80h-383v80l60 92c-140 52 -229 187 -229 373c0 240 148 396 364 396c214 0 361 -156 361 -396s-147 -396 -361 -396zM148 380c0 -189 109 -310 271 -310c161 0 270 121 270 310s-109 310 -270 310c-162 0 -271 -121 -271 -310z
" />
    <glyph glyph-name="R.ss01" horiz-adv-x="669" 
d="M361 760c158 0 252 -62 252 -198c0 -117 -82 -190 -256 -191l284 -371h-103l-293 374h-58v-374h-87v760h261zM380 450c74 0 146 36 146 113c0 69 -47 116 -163 116h-176v-229h193z" />
    <glyph glyph-name="Racute.ss01" horiz-adv-x="659" 
d="M364 995h119l-165 -175h-62zM361 760c158 0 252 -62 252 -198c0 -117 -82 -190 -256 -191l284 -371h-103l-293 374h-58v-374h-87v760h261zM380 450c74 0 146 36 146 113c0 69 -47 116 -163 116h-176v-229h193z" />
    <glyph glyph-name="Rcaron.ss01" horiz-adv-x="659" 
d="M202 995h65l103 -119l103 119h64l-118 -175h-99zM361 760c158 0 252 -62 252 -198c0 -117 -82 -190 -256 -191l284 -371h-103l-293 374h-58v-374h-87v760h261zM380 450c74 0 146 36 146 113c0 69 -47 116 -163 116h-176v-229h193z" />
    <glyph glyph-name="Rcommaaccent.ss01" horiz-adv-x="659" 
d="M361 760c158 0 252 -62 252 -198c0 -117 -82 -190 -256 -191l284 -371h-103l-293 374h-58v-374h-87v760h261zM380 450c74 0 146 36 146 113c0 69 -47 116 -163 116h-176v-229h193zM362 -240h-47l34 170h76z" />
    <glyph glyph-name="U.ss01" horiz-adv-x="729" 
d="M377 -16c-263 0 -277 178 -277 381v395h88v-401c0 -167 15 -289 192 -289s192 122 192 289v401h88v-760h-88v76c-39 -70 -99 -92 -195 -92z" />
    <glyph glyph-name="Uacute.ss01" horiz-adv-x="729" 
d="M372 995h119l-165 -175h-62zM377 -16c-263 0 -277 178 -277 381v395h88v-401c0 -167 15 -289 192 -289s192 122 192 289v401h88v-760h-88v76c-39 -70 -99 -92 -195 -92z" />
    <glyph glyph-name="Ucircumflex.ss01" horiz-adv-x="727" 
d="M275 820h-65l118 175h99l118 -175h-64l-103 119zM378 -16c-263 0 -277 178 -277 381v395h88v-401c0 -167 15 -289 192 -289s192 122 192 289v401h88v-760h-88v76c-39 -70 -99 -92 -195 -92z" />
    <glyph glyph-name="Udieresis.ss01" horiz-adv-x="729" 
d="M341 911h-75v84h75v-84zM494 911h-75v84h75v-84zM377 -16c-263 0 -277 178 -277 381v395h88v-401c0 -167 15 -289 192 -289s192 122 192 289v401h88v-760h-88v76c-39 -70 -99 -92 -195 -92z" />
    <glyph glyph-name="Ugrave.ss01" horiz-adv-x="729" 
d="M429 820l-165 175h119l108 -175h-62zM377 -16c-263 0 -277 178 -277 381v395h88v-401c0 -167 15 -289 192 -289s192 122 192 289v401h88v-760h-88v76c-39 -70 -99 -92 -195 -92z" />
    <glyph glyph-name="Uhungarumlaut.ss01" horiz-adv-x="728" 
d="M269 995h119l-165 -175h-62zM475 995h119l-165 -175h-62zM377 -16c-263 0 -277 178 -277 381v395h88v-401c0 -167 15 -289 192 -289s192 122 192 289v401h88v-760h-88v76c-39 -70 -99 -92 -195 -92z" />
    <glyph glyph-name="Umacron.ss01" horiz-adv-x="729" 
d="M534 955v-70h-312v70h312zM377 -16c-263 0 -277 178 -277 381v395h88v-401c0 -167 15 -289 192 -289s192 122 192 289v401h88v-760h-88v76c-39 -70 -99 -92 -195 -92z" />
    <glyph glyph-name="Uogonek.ss01" horiz-adv-x="729" 
d="M572 0v76c-34 -60 -83 -85 -157 -91c-36 -33 -49 -60 -49 -82c0 -28 23 -44 66 -44c8 0 17 0 30 2v-59c-13 -2 -28 -3 -47 -3c-80 0 -112 48 -112 88c0 43 33 76 60 97c-250 7 -263 182 -263 381v395h88v-401c0 -167 15 -289 192 -289s192 122 192 289v401h88v-760h-88z
" />
    <glyph glyph-name="Uring.ss01" horiz-adv-x="729" 
d="M378 844c-51 0 -84 33 -84 83c0 49 33 81 84 81c50 0 83 -32 83 -81c0 -50 -33 -83 -83 -83zM378 889c22 0 37 15 37 37c0 23 -15 37 -37 37c-23 0 -38 -14 -38 -37c0 -22 15 -37 38 -37zM377 -16c-263 0 -277 178 -277 381v395h88v-401c0 -167 15 -289 192 -289
s192 122 192 289v401h88v-760h-88v76c-39 -70 -99 -92 -195 -92z" />
    <glyph glyph-name="X.ss01" horiz-adv-x="703" 
d="M150 760l202 -334l201 334h108l-237 -377l251 -383h-107l-216 341l-217 -341h-107l251 383l-236 377h107z" />
    <glyph glyph-name="a" unicode="a" horiz-adv-x="610" 
d="M223 -11c-140 0 -184 87 -184 160c0 47 19 88 58 118c44 34 114 55 279 55h27v31c0 65 -32 110 -123 110c-98 0 -128 -47 -130 -86h-84c2 68 45 163 216 163c122 0 207 -50 207 -224v-189c0 -49 11 -61 57 -58v-77h1c-73 -3 -126 30 -133 81h-1
c-37 -48 -116 -84 -190 -84zM235 63c113 0 169 72 169 111v81h-32c-136 0 -250 -16 -250 -108c0 -51 37 -84 113 -84z" />
    <glyph glyph-name="aacute" unicode="&#xe1;" horiz-adv-x="610" 
d="M279 760h119l-165 -175h-62zM223 -11c-140 0 -184 87 -184 160c0 47 19 88 58 118c44 34 114 55 279 55h27v31c0 65 -32 110 -123 110c-98 0 -128 -47 -130 -86h-84c2 68 45 163 216 163c122 0 207 -50 207 -224v-189c0 -49 11 -61 57 -58v-77h1c-73 -3 -126 30 -133 81
h-1c-37 -48 -116 -84 -190 -84zM235 63c113 0 169 72 169 111v81h-32c-136 0 -250 -16 -250 -108c0 -51 37 -84 113 -84z" />
    <glyph glyph-name="abreve" unicode="&#x103;" horiz-adv-x="610" 
d="M464 760c0 -105 -71 -175 -179 -175s-180 70 -180 175h75c0 -63 42 -104 105 -104s104 41 104 104h75zM223 -11c-140 0 -184 87 -184 160c0 47 19 88 58 118c44 34 114 55 279 55h27v31c0 65 -32 110 -123 110c-98 0 -128 -47 -130 -86h-84c2 68 45 163 216 163
c122 0 207 -50 207 -224v-189c0 -49 11 -61 57 -58v-77h1c-73 -3 -126 30 -133 81h-1c-37 -48 -116 -84 -190 -84zM235 63c113 0 169 72 169 111v81h-32c-136 0 -250 -16 -250 -108c0 -51 37 -84 113 -84z" />
    <glyph glyph-name="acircumflex" unicode="&#xe2;" horiz-adv-x="610" 
d="M182 585h-65l118 175h99l118 -175h-64l-103 119zM223 -11c-140 0 -184 87 -184 160c0 47 19 88 58 118c44 34 114 55 279 55h27v31c0 65 -32 110 -123 110c-98 0 -128 -47 -130 -86h-84c2 68 45 163 216 163c122 0 207 -50 207 -224v-189c0 -49 11 -61 57 -58v-77h1
c-73 -3 -126 30 -133 81h-1c-37 -48 -116 -84 -190 -84zM235 63c113 0 169 72 169 111v81h-32c-136 0 -250 -16 -250 -108c0 -51 37 -84 113 -84z" />
    <glyph glyph-name="adieresis" unicode="&#xe4;" horiz-adv-x="610" 
d="M244 676h-75v84h75v-84zM397 676h-75v84h75v-84zM223 -11c-140 0 -184 87 -184 160c0 47 19 88 58 118c44 34 114 55 279 55h27v31c0 65 -32 110 -123 110c-98 0 -128 -47 -130 -86h-84c2 68 45 163 216 163c122 0 207 -50 207 -224v-189c0 -49 11 -61 57 -58v-77h1
c-73 -3 -126 30 -133 81h-1c-37 -48 -116 -84 -190 -84zM235 63c113 0 169 72 169 111v81h-32c-136 0 -250 -16 -250 -108c0 -51 37 -84 113 -84z" />
    <glyph glyph-name="agrave" unicode="&#xe0;" horiz-adv-x="610" 
d="M336 585l-165 175h119l108 -175h-62zM223 -11c-140 0 -184 87 -184 160c0 47 19 88 58 118c44 34 114 55 279 55h27v31c0 65 -32 110 -123 110c-98 0 -128 -47 -130 -86h-84c2 68 45 163 216 163c122 0 207 -50 207 -224v-189c0 -49 11 -61 57 -58v-77h1
c-73 -3 -126 30 -133 81h-1c-37 -48 -116 -84 -190 -84zM235 63c113 0 169 72 169 111v81h-32c-136 0 -250 -16 -250 -108c0 -51 37 -84 113 -84z" />
    <glyph glyph-name="amacron" unicode="&#x101;" horiz-adv-x="610" 
d="M441 720v-70h-312v70h312zM223 -11c-140 0 -184 87 -184 160c0 47 19 88 58 118c44 34 114 55 279 55h27v31c0 65 -32 110 -123 110c-98 0 -128 -47 -130 -86h-84c2 68 45 163 216 163c122 0 207 -50 207 -224v-189c0 -49 11 -61 57 -58v-77h1c-73 -3 -126 30 -133 81h-1
c-37 -48 -116 -84 -190 -84zM235 63c113 0 169 72 169 111v81h-32c-136 0 -250 -16 -250 -108c0 -51 37 -84 113 -84z" />
    <glyph glyph-name="aogonek" unicode="&#x105;" horiz-adv-x="610" 
d="M494 -3c-47 -39 -63 -71 -63 -95c0 -28 23 -44 66 -44c8 0 17 0 30 2v-59c-13 -2 -28 -3 -47 -3c-81 0 -113 48 -113 88c0 64 72 106 92 119h11c-32 14 -52 38 -56 68h-1c-37 -48 -116 -84 -190 -84c-140 0 -184 87 -184 160c0 47 19 88 58 118c44 34 114 55 279 55h27
v31c0 65 -32 110 -123 110c-98 0 -128 -47 -130 -86h-84c2 68 45 163 216 163c122 0 207 -50 207 -224v-189c0 -49 11 -61 57 -58v-77h1c-19 -1 -37 1 -53 5zM372 255c-136 0 -250 -16 -250 -108c0 -51 37 -84 113 -84c113 0 169 72 169 111v81h-32z" />
    <glyph glyph-name="aring" unicode="&#xe5;" horiz-adv-x="610" 
d="M285 609c-51 0 -84 33 -84 83c0 49 33 81 84 81c50 0 83 -32 83 -81c0 -50 -33 -83 -83 -83zM285 654c22 0 37 15 37 37c0 23 -15 37 -37 37c-23 0 -38 -14 -38 -37c0 -22 15 -37 38 -37zM223 -11c-140 0 -184 87 -184 160c0 47 19 88 58 118c44 34 114 55 279 55h27v31
c0 65 -32 110 -123 110c-98 0 -128 -47 -130 -86h-84c2 68 45 163 216 163c122 0 207 -50 207 -224v-189c0 -49 11 -61 57 -58v-77h1c-73 -3 -126 30 -133 81h-1c-37 -48 -116 -84 -190 -84zM235 63c113 0 169 72 169 111v81h-32c-136 0 -250 -16 -250 -108
c0 -51 37 -84 113 -84z" />
    <glyph glyph-name="atilde" unicode="&#xe3;" horiz-adv-x="610" 
d="M219 739c59 0 82 -64 121 -64c22 0 39 23 39 59h63c0 -88 -40 -128 -92 -128c-67 0 -87 66 -124 66c-22 0 -36 -25 -36 -61h-63c0 74 39 128 92 128zM223 -11c-140 0 -184 87 -184 160c0 47 19 88 58 118c44 34 114 55 279 55h27v31c0 65 -32 110 -123 110
c-98 0 -128 -47 -130 -86h-84c2 68 45 163 216 163c122 0 207 -50 207 -224v-189c0 -49 11 -61 57 -58v-77h1c-73 -3 -126 30 -133 81h-1c-37 -48 -116 -84 -190 -84zM235 63c113 0 169 72 169 111v81h-32c-136 0 -250 -16 -250 -108c0 -51 37 -84 113 -84z" />
    <glyph glyph-name="ae" unicode="&#xe6;" horiz-adv-x="931" 
d="M239 -16c-162 0 -200 91 -200 162c0 76 44 178 270 178h105c0 74 -18 138 -133 138c-95 0 -130 -44 -132 -95h-88c3 82 54 174 225 174c85 0 150 -22 187 -82c42 51 106 82 189 82c132 0 221 -79 230 -246v-63l-1 -2l-389 -1c9 -102 63 -169 161 -169
c84 0 136 50 144 109h85c-1 -86 -85 -185 -225 -185c-100 0 -174 51 -203 110c-53 -89 -147 -110 -225 -110zM807 309c-15 118 -71 156 -144 156c-91 0 -145 -60 -160 -156h304zM245 64c110 0 170 47 170 123v66h-110c-161 0 -181 -62 -181 -104c0 -56 36 -85 121 -85z" />
    <glyph glyph-name="aeacute" unicode="&#x1fd;" horiz-adv-x="931" 
d="M461 760h119l-165 -175h-62zM239 -16c-162 0 -200 91 -200 162c0 76 44 178 270 178h105c0 74 -18 138 -133 138c-95 0 -130 -44 -132 -95h-88c3 82 54 174 225 174c85 0 150 -22 187 -82c42 51 106 82 189 82c132 0 221 -79 230 -246v-63l-1 -2l-389 -1
c9 -102 63 -169 161 -169c84 0 136 50 144 109h85c-1 -86 -85 -185 -225 -185c-100 0 -174 51 -203 110c-53 -89 -147 -110 -225 -110zM807 309c-15 118 -71 156 -144 156c-91 0 -145 -60 -160 -156h304zM245 64c110 0 170 47 170 123v66h-110c-161 0 -181 -62 -181 -104
c0 -56 36 -85 121 -85z" />
    <glyph glyph-name="b" unicode="b" horiz-adv-x="599" 
d="M325 541c144 0 241 -111 241 -277c0 -168 -94 -280 -236 -280c-72 0 -149 34 -185 83v-67h-81v760h85v-307c42 53 109 88 176 88zM318 61c97 0 162 80 162 200c0 123 -65 204 -164 204c-100 0 -167 -71 -167 -178v-62c0 -98 68 -164 169 -164z" />
    <glyph glyph-name="c" unicode="c" horiz-adv-x="550" 
d="M282 -16c-163 0 -249 123 -249 279c0 163 89 278 247 278c132 0 222 -79 230 -199h-84c-15 85 -65 123 -145 123c-108 0 -162 -83 -162 -202s53 -203 162 -203c80 0 129 49 145 106h84c-10 -85 -83 -182 -228 -182z" />
    <glyph glyph-name="cacute" unicode="&#x107;" horiz-adv-x="550" 
d="M265 760h119l-165 -175h-62zM282 -16c-163 0 -249 123 -249 279c0 163 89 278 247 278c132 0 222 -79 230 -199h-84c-15 85 -65 123 -145 123c-108 0 -162 -83 -162 -202s53 -203 162 -203c80 0 129 49 145 106h84c-10 -85 -83 -182 -228 -182z" />
    <glyph glyph-name="ccaron" unicode="&#x10d;" horiz-adv-x="550" 
d="M103 760h65l103 -119l103 119h64l-118 -175h-99zM282 -16c-163 0 -249 123 -249 279c0 163 89 278 247 278c132 0 222 -79 230 -199h-84c-15 85 -65 123 -145 123c-108 0 -162 -83 -162 -202s53 -203 162 -203c80 0 129 49 145 106h84c-10 -85 -83 -182 -228 -182z" />
    <glyph glyph-name="ccedilla" unicode="&#xe7;" horiz-adv-x="550" 
d="M281 60c80 0 129 49 145 106h84c-10 -84 -81 -179 -221 -182l-37 -35h13c47 0 78 -26 78 -64c0 -45 -38 -75 -87 -75h-57v45h50c27 0 45 11 45 29c0 16 -18 26 -45 26h-40v39l34 37c-138 18 -210 134 -210 277c0 163 89 278 247 278c132 0 222 -79 230 -199h-84
c-15 85 -65 123 -145 123c-108 0 -162 -83 -162 -202s53 -203 162 -203z" />
    <glyph glyph-name="cdotaccent" unicode="&#x10b;" horiz-adv-x="550" 
d="M271 649c-36 0 -65 28 -65 64c0 35 29 63 65 63c34 0 64 -28 64 -63c0 -36 -30 -64 -64 -64zM282 -16c-163 0 -249 123 -249 279c0 163 89 278 247 278c132 0 222 -79 230 -199h-84c-15 85 -65 123 -145 123c-108 0 -162 -83 -162 -202s53 -203 162 -203
c80 0 129 49 145 106h84c-10 -85 -83 -182 -228 -182z" />
    <glyph glyph-name="d" unicode="d" horiz-adv-x="605" 
d="M465 0v67c-36 -49 -112 -83 -184 -83c-142 0 -236 112 -236 280c0 166 97 277 243 277c66 0 132 -35 174 -88v307h85v-760h-82zM462 301c0 98 -66 163 -167 163c-99 0 -164 -79 -164 -199c0 -123 66 -204 166 -204s165 71 165 178v62z" />
    <glyph glyph-name="eth" unicode="&#xf0;" horiz-adv-x="577" 
d="M391 657c94 -99 153 -229 153 -376c0 -181 -96 -297 -248 -297c-158 0 -251 121 -251 272c0 159 104 277 231 277c72 0 114 -18 143 -50c-17 37 -49 84 -103 139l-129 -62l-40 61l114 53c-30 28 -65 57 -106 86h107c26 -16 50 -32 74 -51l108 51l38 -59zM288 58
c107 0 167 83 167 198c0 116 -60 198 -167 198c-105 0 -159 -79 -159 -198s54 -198 159 -198z" />
    <glyph glyph-name="dcaron" unicode="&#x10f;" horiz-adv-x="588" 
d="M463 0v67c-36 -49 -112 -83 -184 -83c-142 0 -236 112 -236 280c0 166 97 277 243 277c66 0 132 -35 174 -88v307h85v-760h-82zM635 760h96l-105 -175h-39zM460 301c0 98 -66 163 -167 163c-99 0 -164 -79 -164 -199c0 -123 66 -204 166 -204s165 71 165 178v62z" />
    <glyph glyph-name="dcroat" unicode="&#x111;" horiz-adv-x="605" 
d="M547 0h-82v67c-36 -49 -112 -83 -184 -83c-142 0 -236 112 -236 280c0 166 97 277 243 277c66 0 132 -35 174 -88v129h-116v69h116v109h85v-109h111v-69h-111v-582zM462 301c0 98 -66 163 -167 163c-99 0 -164 -79 -164 -199c0 -123 66 -204 166 -204s165 71 165 178v62z
" />
    <glyph glyph-name="e" unicode="e" horiz-adv-x="550" 
d="M282 -16c-163 0 -249 122 -249 280c0 162 90 277 244 277c137 0 233 -91 233 -224v-87l-389 -1c9 -102 63 -169 159 -169c80 0 130 50 146 87h84c-10 -66 -83 -163 -228 -163zM426 304c0 112 -68 161 -151 161c-81 0 -153 -49 -153 -161h304z" />
    <glyph glyph-name="eacute" unicode="&#xe9;" horiz-adv-x="550" 
d="M265 760h119l-165 -175h-62zM282 -16c-163 0 -249 122 -249 280c0 162 90 277 244 277c137 0 233 -91 233 -224v-87l-389 -1c9 -102 63 -169 159 -169c80 0 130 50 146 87h84c-10 -66 -83 -163 -228 -163zM426 304c0 112 -68 161 -151 161c-81 0 -153 -49 -153 -161h304z
" />
    <glyph glyph-name="ecaron" unicode="&#x11b;" horiz-adv-x="550" 
d="M103 760h65l103 -119l103 119h64l-118 -175h-99zM282 -16c-163 0 -249 122 -249 280c0 162 90 277 244 277c137 0 233 -91 233 -224v-87l-389 -1c9 -102 63 -169 159 -169c80 0 130 50 146 87h84c-10 -66 -83 -163 -228 -163zM426 304c0 112 -68 161 -151 161
c-81 0 -153 -49 -153 -161h304z" />
    <glyph glyph-name="ecircumflex" unicode="&#xea;" horiz-adv-x="550" 
d="M168 585h-65l118 175h99l118 -175h-64l-103 119zM282 -16c-163 0 -249 122 -249 280c0 162 90 277 244 277c137 0 233 -91 233 -224v-87l-389 -1c9 -102 63 -169 159 -169c80 0 130 50 146 87h84c-10 -66 -83 -163 -228 -163zM426 304c0 112 -68 161 -151 161
c-81 0 -153 -49 -153 -161h304z" />
    <glyph glyph-name="edieresis" unicode="&#xeb;" horiz-adv-x="550" 
d="M233 676h-75v84h75v-84zM386 676h-75v84h75v-84zM282 -16c-163 0 -249 122 -249 280c0 162 90 277 244 277c137 0 233 -91 233 -224v-87l-389 -1c9 -102 63 -169 159 -169c80 0 130 50 146 87h84c-10 -66 -83 -163 -228 -163zM426 304c0 112 -68 161 -151 161
c-81 0 -153 -49 -153 -161h304z" />
    <glyph glyph-name="edotaccent" unicode="&#x117;" horiz-adv-x="550" 
d="M271 649c-36 0 -65 28 -65 64c0 35 29 63 65 63c34 0 64 -28 64 -63c0 -36 -30 -64 -64 -64zM282 -16c-163 0 -249 122 -249 280c0 162 90 277 244 277c137 0 233 -91 233 -224v-87l-389 -1c9 -102 63 -169 159 -169c80 0 130 50 146 87h84c-10 -66 -83 -163 -228 -163z
M426 304c0 112 -68 161 -151 161c-81 0 -153 -49 -153 -161h304z" />
    <glyph glyph-name="egrave" unicode="&#xe8;" horiz-adv-x="550" 
d="M322 585l-165 175h119l108 -175h-62zM282 -16c-163 0 -249 122 -249 280c0 162 90 277 244 277c137 0 233 -91 233 -224v-87l-389 -1c9 -102 63 -169 159 -169c80 0 130 50 146 87h84c-10 -66 -83 -163 -228 -163zM426 304c0 112 -68 161 -151 161
c-81 0 -153 -49 -153 -161h304z" />
    <glyph glyph-name="emacron" unicode="&#x113;" horiz-adv-x="550" 
d="M427 720v-70h-312v70h312zM282 -16c-163 0 -249 122 -249 280c0 162 90 277 244 277c137 0 233 -91 233 -224v-87l-389 -1c9 -102 63 -169 159 -169c80 0 130 50 146 87h84c-10 -66 -83 -163 -228 -163zM426 304c0 112 -68 161 -151 161c-81 0 -153 -49 -153 -161h304z
" />
    <glyph glyph-name="eogonek" unicode="&#x119;" horiz-adv-x="571" 
d="M121 229c9 -102 63 -169 159 -169c80 0 130 50 146 87h84c-9 -62 -74 -150 -200 -162c-36 -33 -49 -60 -49 -82c0 -28 23 -44 66 -44c8 0 17 0 30 2v-59c-13 -2 -28 -3 -47 -3c-81 0 -113 48 -113 88c0 44 33 77 61 98c-147 11 -225 129 -225 279c0 162 90 277 244 277
c137 0 233 -91 233 -224v-87zM426 304c0 112 -68 161 -151 161c-81 0 -153 -49 -153 -161h304z" />
    <glyph glyph-name="f" unicode="f" horiz-adv-x="301" 
d="M21 525h71v86c0 111 41 165 138 165c30 0 55 -5 59 -6v-71c-5 1 -10 3 -32 3c-56 0 -80 -21 -80 -73v-104h108v-72h-108v-453h-85v453h-71v72z" />
    <glyph glyph-name="g" unicode="g" horiz-adv-x="599" 
d="M536 26c0 -220 -107 -266 -237 -266c-132 0 -218 49 -246 176h86c19 -70 80 -97 157 -97c119 0 155 66 155 209v31c-41 -67 -107 -95 -181 -95c-154 0 -237 120 -237 284c0 148 66 273 232 273c74 0 142 -25 186 -99v83h85v-499zM451 301c0 98 -71 163 -170 163
c-111 0 -169 -81 -169 -199c0 -120 59 -204 171 -204c101 0 168 67 168 178v62z" />
    <glyph glyph-name="gbreve" unicode="&#x11f;" horiz-adv-x="599" 
d="M475 760c0 -105 -71 -175 -179 -175s-180 70 -180 175h75c0 -63 42 -104 105 -104s104 41 104 104h75zM536 26c0 -220 -107 -266 -237 -266c-132 0 -218 49 -246 176h86c19 -70 80 -97 157 -97c119 0 155 66 155 209v31c-41 -67 -107 -95 -181 -95
c-154 0 -237 120 -237 284c0 148 66 273 232 273c74 0 142 -25 186 -99v83h85v-499zM451 301c0 98 -71 163 -170 163c-111 0 -169 -81 -169 -199c0 -120 59 -204 171 -204c101 0 168 67 168 178v62z" />
    <glyph glyph-name="gcommaaccent" unicode="&#x123;" horiz-adv-x="599" 
d="M350 585h-108v103l50 104h58l-40 -104h40v-103zM536 26c0 -220 -107 -266 -237 -266c-132 0 -218 49 -246 176h86c19 -70 80 -97 157 -97c119 0 155 66 155 209v31c-41 -67 -107 -95 -181 -95c-154 0 -237 120 -237 284c0 148 66 273 232 273c74 0 142 -25 186 -99v83h85
v-499zM451 301c0 98 -71 163 -170 163c-111 0 -169 -81 -169 -199c0 -120 59 -204 171 -204c101 0 168 67 168 178v62z" />
    <glyph glyph-name="gdotaccent" unicode="&#x121;" horiz-adv-x="599" 
d="M296 649c-36 0 -65 28 -65 64c0 35 29 63 65 63c34 0 64 -28 64 -63c0 -36 -30 -64 -64 -64zM536 26c0 -220 -107 -266 -237 -266c-132 0 -218 49 -246 176h86c19 -70 80 -97 157 -97c119 0 155 66 155 209v31c-41 -67 -107 -95 -181 -95c-154 0 -237 120 -237 284
c0 148 66 273 232 273c74 0 142 -25 186 -99v83h85v-499zM451 301c0 98 -71 163 -170 163c-111 0 -169 -81 -169 -199c0 -120 59 -204 171 -204c101 0 168 67 168 178v62z" />
    <glyph glyph-name="h" unicode="h" horiz-adv-x="573" 
d="M149 446c43 72 118 95 177 95c117 0 189 -90 189 -210v-331h-85v311c0 93 -43 154 -124 154c-84 0 -157 -63 -157 -173v-292h-85v760h85v-314z" />
    <glyph glyph-name="hbar" unicode="&#x127;" horiz-adv-x="573" 
d="M326 541c117 0 189 -90 189 -210v-331h-85v311c0 93 -43 154 -124 154c-84 0 -157 -63 -157 -173v-292h-85v591h-68v69h68v100h85v-100h159v-69h-159v-145c43 72 118 95 177 95z" />
    <glyph glyph-name="i" unicode="i" horiz-adv-x="224" 
d="M160 666h-96v94h96v-94zM154 0h-85v525h85v-525z" />
    <glyph glyph-name="dotlessi" unicode="&#x131;" horiz-adv-x="241" 
d="M163 0h-85v525h85v-525z" />
    <glyph glyph-name="iacute" unicode="&#xed;" horiz-adv-x="241" 
d="M115 760h119l-165 -175h-62zM163 0h-85v525h85v-525z" />
    <glyph glyph-name="icircumflex" unicode="&#xee;" horiz-adv-x="241" 
d="M18 585h-65l118 175h99l118 -175h-64l-103 119zM163 0h-85v525h85v-525z" />
    <glyph glyph-name="idieresis" unicode="&#xef;" horiz-adv-x="241" 
d="M81 676h-75v84h75v-84zM234 676h-75v84h75v-84zM163 0h-85v525h85v-525z" />
    <glyph glyph-name="i.loclTRK" horiz-adv-x="241" 
d="M121 649c-36 0 -65 28 -65 64c0 35 29 63 65 63c34 0 64 -28 64 -63c0 -36 -30 -64 -64 -64zM163 0h-85v525h85v-525z" />
    <glyph glyph-name="igrave" unicode="&#xec;" horiz-adv-x="241" 
d="M172 585l-165 175h119l108 -175h-62zM163 0h-85v525h85v-525z" />
    <glyph glyph-name="imacron" unicode="&#x12b;" horiz-adv-x="241" 
d="M277 720v-70h-312v70h312zM163 0h-85v525h85v-525z" />
    <glyph glyph-name="iogonek" unicode="&#x12f;" horiz-adv-x="224" 
d="M64 760h96v-94h-96v94zM138 -141c8 0 17 0 30 2v-59c-13 -2 -28 -3 -47 -3c-81 0 -113 48 -113 88c0 56 56 95 83 113h-22v525h85v-525h-16c-50 -40 -66 -72 -66 -97c0 -28 23 -44 66 -44z" />
    <glyph glyph-name="j" unicode="j" horiz-adv-x="232" 
d="M169 666h-96v94h96v-94zM23 -240c-28 0 -57 6 -57 6v79s11 -3 32 -3c57 0 80 20 80 63v620h85v-607c0 -100 -36 -158 -140 -158z" />
    <glyph glyph-name="k" unicode="k" horiz-adv-x="481" 
d="M149 0h-85v760h85v-465l192 230h103l-216 -262l239 -263h-103l-215 242v-242z" />
    <glyph glyph-name="kcommaaccent" unicode="&#x137;" horiz-adv-x="481" 
d="M149 242v-242h-85v760h85v-465l192 230h103l-216 -262l239 -263h-103zM225 -240h-47l34 170h76z" />
    <glyph glyph-name="l" unicode="l" horiz-adv-x="213" 
d="M149 0h-85v760h85v-760z" />
    <glyph glyph-name="lacute" unicode="&#x13a;" horiz-adv-x="213" 
d="M101 974h119l-165 -175h-62zM149 0h-85v760h85v-760z" />
    <glyph glyph-name="lcaron" unicode="&#x13e;" horiz-adv-x="270" 
d="M154 0h-85v760h85v-760zM271 760h96l-105 -175h-39z" />
    <glyph glyph-name="lcommaaccent" unicode="&#x13c;" horiz-adv-x="213" 
d="M149 0h-85v760h85v-760zM94 -240h-47l34 170h76z" />
    <glyph glyph-name="lslash" unicode="&#x142;" horiz-adv-x="213" 
d="M149 0h-85v295l-100 -67v95l100 67v370h85v-313l102 68v-95l-102 -68v-352z" />
    <glyph glyph-name="m" unicode="m" horiz-adv-x="949" 
d="M696 541c116 0 185 -70 185 -220v-321h-85v323c0 117 -58 142 -117 142c-94 0 -164 -63 -164 -173v-292h-85v323c0 117 -58 142 -117 142c-94 0 -164 -63 -164 -173v-292h-85v525h85v-79c42 69 109 95 181 95c81 0 138 -34 166 -105c56 81 130 105 200 105z" />
    <glyph glyph-name="n" unicode="n" horiz-adv-x="583" 
d="M149 446c43 72 118 95 177 95c117 0 189 -89 189 -209v-332h-85v311c0 93 -43 154 -124 154c-84 0 -157 -63 -157 -173v-292h-85v525h85v-79z" />
    <glyph glyph-name="nacute" unicode="&#x144;" horiz-adv-x="583" 
d="M281 760h119l-165 -175h-62zM149 446c43 72 118 95 177 95c117 0 189 -89 189 -209v-332h-85v311c0 93 -43 154 -124 154c-84 0 -157 -63 -157 -173v-292h-85v525h85v-79z" />
    <glyph glyph-name="ncaron" unicode="&#x148;" horiz-adv-x="583" 
d="M119 760h65l103 -119l103 119h64l-118 -175h-99zM149 446c43 72 118 95 177 95c117 0 189 -89 189 -209v-332h-85v311c0 93 -43 154 -124 154c-84 0 -157 -63 -157 -173v-292h-85v525h85v-79z" />
    <glyph glyph-name="ncommaaccent" unicode="&#x146;" horiz-adv-x="583" 
d="M149 446c43 72 118 95 177 95c117 0 189 -89 189 -209v-332h-85v311c0 93 -43 154 -124 154c-84 0 -157 -63 -157 -173v-292h-85v525h85v-79zM279 -240h-47l34 170h76z" />
    <glyph glyph-name="eng" unicode="&#x14b;" horiz-adv-x="583" 
d="M375 -240c-28 0 -57 6 -57 6v79s11 -3 32 -3c57 0 80 22 80 67v414c0 117 -58 142 -117 142c-94 0 -164 -63 -164 -173v-292h-85v525h85v-79c42 69 109 95 181 95c116 0 185 -70 185 -220v-401c0 -100 -40 -160 -140 -160z" />
    <glyph glyph-name="ntilde" unicode="&#xf1;" horiz-adv-x="583" 
d="M221 739c59 0 82 -64 121 -64c22 0 39 23 39 59h63c0 -88 -40 -128 -92 -128c-67 0 -87 66 -124 66c-22 0 -36 -25 -36 -61h-63c0 74 39 128 92 128zM149 446c43 72 118 95 177 95c117 0 189 -89 189 -209v-332h-85v311c0 93 -43 154 -124 154c-84 0 -157 -63 -157 -173
v-292h-85v525h85v-79z" />
    <glyph glyph-name="o" unicode="o" horiz-adv-x="569" 
d="M285 -16c-150 0 -252 123 -252 279c0 162 102 278 252 278c151 0 250 -116 250 -278c0 -156 -99 -279 -250 -279zM284 60c108 0 166 83 166 203c0 119 -58 202 -166 202s-165 -83 -165 -202c0 -120 57 -203 165 -203z" />
    <glyph glyph-name="oacute" unicode="&#xf3;" horiz-adv-x="569" 
d="M278 760h119l-165 -175h-62zM285 -16c-150 0 -252 123 -252 279c0 162 102 278 252 278c151 0 250 -116 250 -278c0 -156 -99 -279 -250 -279zM284 60c108 0 166 83 166 203c0 119 -58 202 -166 202s-165 -83 -165 -202c0 -120 57 -203 165 -203z" />
    <glyph glyph-name="ocircumflex" unicode="&#xf4;" horiz-adv-x="569" 
d="M181 585h-65l118 175h99l118 -175h-64l-103 119zM285 -16c-150 0 -252 123 -252 279c0 162 102 278 252 278c151 0 250 -116 250 -278c0 -156 -99 -279 -250 -279zM284 60c108 0 166 83 166 203c0 119 -58 202 -166 202s-165 -83 -165 -202c0 -120 57 -203 165 -203z" />
    <glyph glyph-name="odieresis" unicode="&#xf6;" horiz-adv-x="569" 
d="M245 676h-75v84h75v-84zM398 676h-75v84h75v-84zM285 -16c-150 0 -252 123 -252 279c0 162 102 278 252 278c151 0 250 -116 250 -278c0 -156 -99 -279 -250 -279zM284 60c108 0 166 83 166 203c0 119 -58 202 -166 202s-165 -83 -165 -202c0 -120 57 -203 165 -203z" />
    <glyph glyph-name="ograve" unicode="&#xf2;" horiz-adv-x="569" 
d="M335 585l-165 175h119l108 -175h-62zM285 -16c-150 0 -252 123 -252 279c0 162 102 278 252 278c151 0 250 -116 250 -278c0 -156 -99 -279 -250 -279zM284 60c108 0 166 83 166 203c0 119 -58 202 -166 202s-165 -83 -165 -202c0 -120 57 -203 165 -203z" />
    <glyph glyph-name="ohungarumlaut" unicode="&#x151;" horiz-adv-x="569" 
d="M175 760h119l-165 -175h-62zM381 760h119l-165 -175h-62zM285 -16c-150 0 -252 123 -252 279c0 162 102 278 252 278c151 0 250 -116 250 -278c0 -156 -99 -279 -250 -279zM284 60c108 0 166 83 166 203c0 119 -58 202 -166 202s-165 -83 -165 -202
c0 -120 57 -203 165 -203z" />
    <glyph glyph-name="omacron" unicode="&#x14d;" horiz-adv-x="569" 
d="M440 720v-70h-312v70h312zM285 -16c-150 0 -252 123 -252 279c0 162 102 278 252 278c151 0 250 -116 250 -278c0 -156 -99 -279 -250 -279zM284 60c108 0 166 83 166 203c0 119 -58 202 -166 202s-165 -83 -165 -202c0 -120 57 -203 165 -203z" />
    <glyph glyph-name="oslash" unicode="&#xf8;" horiz-adv-x="594" 
d="M471 465c44 -49 70 -120 70 -202c0 -156 -99 -279 -250 -279c-41 0 -78 9 -111 26l-72 -114h-75l95 149c-56 51 -89 129 -89 218c0 162 102 278 252 278c50 0 94 -13 131 -35l64 101h75zM125 263c0 -63 15 -115 46 -151l209 328c-25 16 -55 25 -90 25
c-108 0 -165 -83 -165 -202zM456 263c0 51 -11 96 -32 130l-203 -319c20 -9 43 -14 69 -14c108 0 166 83 166 203z" />
    <glyph glyph-name="otilde" unicode="&#xf5;" horiz-adv-x="569" 
d="M218 739c59 0 82 -64 121 -64c22 0 39 23 39 59h63c0 -88 -40 -128 -92 -128c-67 0 -87 66 -124 66c-22 0 -36 -25 -36 -61h-63c0 74 39 128 92 128zM285 -16c-150 0 -252 123 -252 279c0 162 102 278 252 278c151 0 250 -116 250 -278c0 -156 -99 -279 -250 -279z
M284 60c108 0 166 83 166 203c0 119 -58 202 -166 202s-165 -83 -165 -202c0 -120 57 -203 165 -203z" />
    <glyph glyph-name="oe" unicode="&#x153;" horiz-adv-x="989" 
d="M296 -16c-161 0 -263 123 -263 279c0 162 102 278 264 278c96 0 171 -41 215 -109c42 68 113 109 208 109c132 0 220 -79 229 -246v-63l-1 -2l-388 -1c9 -102 63 -169 160 -169c84 0 136 50 145 109h84c-1 -88 -84 -185 -229 -185c-96 0 -167 42 -208 111
c-44 -67 -119 -111 -216 -111zM296 60c119 0 176 83 176 203c0 119 -57 202 -176 202c-120 0 -177 -83 -177 -202c0 -120 57 -203 177 -203zM865 310c-16 117 -72 155 -145 155c-91 0 -145 -60 -159 -155h304z" />
    <glyph glyph-name="p" unicode="p" horiz-adv-x="599" 
d="M325 541c144 0 241 -111 241 -277c0 -168 -94 -280 -236 -280c-72 0 -145 34 -181 83v-307h-85v765h82v-72c42 53 112 88 179 88zM318 61c97 0 162 80 162 200c0 123 -65 204 -164 204c-100 0 -167 -71 -167 -178v-62c0 -98 68 -164 169 -164z" />
    <glyph glyph-name="thorn" unicode="&#xfe;" horiz-adv-x="599" 
d="M325 541c144 0 241 -111 241 -277c0 -168 -94 -280 -236 -280c-72 0 -145 34 -181 83v-307h-85v1000h82v-307c42 53 112 88 179 88zM318 61c97 0 162 80 162 200c0 123 -65 204 -164 204c-100 0 -167 -71 -167 -178v-62c0 -98 68 -164 169 -164z" />
    <glyph glyph-name="q" unicode="q" horiz-adv-x="614" 
d="M450 -240v307c-36 -49 -109 -83 -180 -83c-142 0 -237 112 -237 280c0 166 97 277 242 277c66 0 137 -35 178 -88v72h82v-765h-85zM450 301c0 98 -67 163 -169 163c-97 0 -162 -79 -162 -199c0 -123 65 -204 164 -204c101 0 167 71 167 178v62z" />
    <glyph glyph-name="r" unicode="r" horiz-adv-x="341" 
d="M144 431c21 41 56 72 95 90c29 13 58 17 95 17v-90h-22c-86 0 -163 -67 -163 -176v-272h-85v525h80v-94z" />
    <glyph glyph-name="racute" unicode="&#x155;" horiz-adv-x="341" 
d="M161 760h119l-165 -175h-62zM144 431c21 41 56 72 95 90c29 13 58 17 95 17v-90h-22c-86 0 -163 -67 -163 -176v-272h-85v525h80v-94z" />
    <glyph glyph-name="rcaron" unicode="&#x159;" horiz-adv-x="341" 
d="M-1 760h65l103 -119l103 119h64l-118 -175h-99zM144 431c21 41 56 72 95 90c29 13 58 17 95 17v-90h-22c-86 0 -163 -67 -163 -176v-272h-85v525h80v-94z" />
    <glyph glyph-name="rcommaaccent" unicode="&#x157;" horiz-adv-x="341" 
d="M144 431c21 41 56 72 95 90c29 13 58 17 95 17v-90h-22c-86 0 -163 -67 -163 -176v-272h-85v525h80v-94zM165 -240h-47l34 170h76z" />
    <glyph glyph-name="s" unicode="s" horiz-adv-x="523" 
d="M289 -16c-175 0 -246 86 -254 188h86c20 -88 79 -114 176 -114c62 0 102 25 102 78c0 54 -52 73 -105 86c-133 32 -229 54 -231 163c-2 115 102 156 213 156c122 0 189 -73 193 -176h-86c-7 83 -66 101 -115 101c-54 0 -120 -9 -120 -74c0 -51 37 -65 143 -88
c83 -18 191 -40 191 -160c0 -111 -68 -160 -193 -160z" />
    <glyph glyph-name="sacute" unicode="&#x15b;" horiz-adv-x="523" 
d="M263 760h119l-165 -175h-62zM289 -16c-175 0 -246 86 -254 188h86c20 -88 79 -114 176 -114c62 0 102 25 102 78c0 54 -52 73 -105 86c-133 32 -229 54 -231 163c-2 115 102 156 213 156c122 0 189 -73 193 -176h-86c-7 83 -66 101 -115 101c-54 0 -120 -9 -120 -74
c0 -51 37 -65 143 -88c83 -18 191 -40 191 -160c0 -111 -68 -160 -193 -160z" />
    <glyph glyph-name="scaron" unicode="&#x161;" horiz-adv-x="523" 
d="M101 760h65l103 -119l103 119h64l-118 -175h-99zM289 -16c-175 0 -246 86 -254 188h86c20 -88 79 -114 176 -114c62 0 102 25 102 78c0 54 -52 73 -105 86c-133 32 -229 54 -231 163c-2 115 102 156 213 156c122 0 189 -73 193 -176h-86c-7 83 -66 101 -115 101
c-54 0 -120 -9 -120 -74c0 -51 37 -65 143 -88c83 -18 191 -40 191 -160c0 -111 -68 -160 -193 -160z" />
    <glyph glyph-name="scedilla" unicode="&#x15f;" horiz-adv-x="523" 
d="M263 -51c47 0 78 -26 78 -64c0 -45 -38 -75 -87 -75h-57v45h50c27 0 45 11 45 29c0 16 -18 26 -45 26h-40v39l34 37c-140 15 -199 94 -206 186h86c20 -88 79 -114 176 -114c62 0 102 25 102 78c0 54 -52 73 -105 86c-133 32 -229 54 -231 163c-2 115 102 156 213 156
c122 0 189 -73 193 -176h-86c-7 83 -66 101 -115 101c-54 0 -120 -9 -120 -74c0 -51 37 -65 143 -88c83 -18 191 -40 191 -160c0 -111 -68 -160 -193 -160h-3l-36 -35h13z" />
    <glyph glyph-name="scommaaccent" unicode="&#x219;" horiz-adv-x="523" 
d="M289 -16c-175 0 -246 86 -254 188h86c20 -88 79 -114 176 -114c62 0 102 25 102 78c0 54 -52 73 -105 86c-133 32 -229 54 -231 163c-2 115 102 156 213 156c122 0 189 -73 193 -176h-86c-7 83 -66 101 -115 101c-54 0 -120 -9 -120 -74c0 -51 37 -65 143 -88
c83 -18 191 -40 191 -160c0 -111 -68 -160 -193 -160zM261 -240h-47l34 170h76z" />
    <glyph glyph-name="germandbls" unicode="&#xdf;" horiz-adv-x="629" 
d="M459 326c68 -36 130 -73 130 -167c0 -93 -61 -175 -176 -175c-121 0 -189 90 -194 187h86c14 -67 58 -112 115 -112c55 0 88 44 88 92c0 63 -56 87 -114 114c-74 35 -133 69 -133 135c0 95 117 139 117 213c0 44 -42 81 -116 81c-104 0 -113 -72 -113 -117v-577h-85v582
c0 110 60 194 197 194c126 0 201 -70 201 -163c0 -114 -111 -164 -111 -207c0 -28 44 -46 108 -80z" />
    <glyph glyph-name="t" unicode="t" horiz-adv-x="329" 
d="M248 -10c-117 0 -157 49 -157 145v318h-72v63c64 0 76 27 76 90v54h81v-135h120v-72h-120v-303c0 -70 22 -90 88 -90c8 0 19 0 35 2v-69c-23 -2 -40 -3 -51 -3z" />
    <glyph glyph-name="tbar" unicode="&#x167;" horiz-adv-x="394" 
d="M282 72c22 0 57 3 58 3v-79c1 0 -48 -6 -79 -6c-106 0 -147 54 -147 149v89h-72v69h72v151h-72v72c53 0 76 33 76 94v46h81v-135h120v-77h-120v-151h120v-69h-120v-67c0 -68 23 -89 83 -89z" />
    <glyph glyph-name="tcaron" unicode="&#x165;" horiz-adv-x="329" 
d="M311 760h97l-105 -175h-40zM242 -10c-117 0 -157 49 -157 145v318h-72v63c64 0 76 27 76 90v54h81v-135h120v-72h-120v-303c0 -70 22 -90 88 -90c8 0 19 0 35 2v-69c-23 -2 -40 -3 -51 -3z" />
    <glyph glyph-name="uni0163" unicode="&#x163;" horiz-adv-x="329" 
d="M264 60c8 0 19 0 35 2v-69c-23 -2 -40 -3 -51 -3c-19 0 -37 1 -52 4l-47 -45h13c47 0 78 -26 78 -64c0 -45 -38 -75 -87 -75h-57v45h50c27 0 45 11 45 29c0 16 -18 26 -45 26h-40v39l52 56c-49 21 -67 65 -67 130v318h-72v63c64 0 76 27 76 90v54h81v-135h120v-72h-120
v-303c0 -70 22 -90 88 -90z" />
    <glyph glyph-name="uni021B" unicode="&#x21b;" horiz-adv-x="329" 
d="M248 -10c-117 0 -157 49 -157 145v318h-72v63c64 0 76 27 76 90v54h81v-135h120v-72h-120v-303c0 -70 22 -90 88 -90c8 0 19 0 35 2v-69c-23 -2 -40 -3 -51 -3zM160 -240h-47l34 170h76z" />
    <glyph glyph-name="u" unicode="u" horiz-adv-x="563" 
d="M233 -16c-116 0 -185 70 -185 220v321h85v-323c0 -117 59 -142 117 -142c95 0 164 63 164 173v292h85v-525h-85v90c-42 -80 -109 -106 -181 -106z" />
    <glyph glyph-name="uacute" unicode="&#xfa;" horiz-adv-x="563" 
d="M268 760h119l-165 -175h-62zM233 -16c-116 0 -185 70 -185 220v321h85v-323c0 -117 59 -142 117 -142c95 0 164 63 164 173v292h85v-525h-85v90c-42 -80 -109 -106 -181 -106z" />
    <glyph glyph-name="ucircumflex" unicode="&#xfb;" horiz-adv-x="563" 
d="M171 585h-65l118 175h99l118 -175h-64l-103 119zM233 -16c-116 0 -185 70 -185 220v321h85v-323c0 -117 59 -142 117 -142c95 0 164 63 164 173v292h85v-525h-85v90c-42 -80 -109 -106 -181 -106z" />
    <glyph glyph-name="udieresis" unicode="&#xfc;" horiz-adv-x="563" 
d="M237 676h-75v84h75v-84zM390 676h-75v84h75v-84zM233 -16c-116 0 -185 70 -185 220v321h85v-323c0 -117 59 -142 117 -142c95 0 164 63 164 173v292h85v-525h-85v90c-42 -80 -109 -106 -181 -106z" />
    <glyph glyph-name="ugrave" unicode="&#xf9;" horiz-adv-x="563" 
d="M325 585l-165 175h119l108 -175h-62zM233 -16c-116 0 -185 70 -185 220v321h85v-323c0 -117 59 -142 117 -142c95 0 164 63 164 173v292h85v-525h-85v90c-42 -80 -109 -106 -181 -106z" />
    <glyph glyph-name="uhungarumlaut" unicode="&#x171;" horiz-adv-x="563" 
d="M165 760h119l-165 -175h-62zM371 760h119l-165 -175h-62zM233 -16c-116 0 -185 70 -185 220v321h85v-323c0 -117 59 -142 117 -142c95 0 164 63 164 173v292h85v-525h-85v90c-42 -80 -109 -106 -181 -106z" />
    <glyph glyph-name="umacron" unicode="&#x16b;" horiz-adv-x="563" 
d="M430 720v-70h-312v70h312zM233 -16c-116 0 -185 70 -185 220v321h85v-323c0 -117 59 -142 117 -142c95 0 164 63 164 173v292h85v-525h-85v90c-42 -80 -109 -106 -181 -106z" />
    <glyph glyph-name="uogonek" unicode="&#x173;" horiz-adv-x="563" 
d="M480 -141c8 0 17 0 30 2v-59c-13 -2 -28 -3 -47 -3c-81 0 -113 48 -113 88c0 56 56 95 83 113h-19v90c-42 -80 -109 -106 -181 -106c-116 0 -185 70 -185 220v321h85v-323c0 -117 59 -142 117 -142c95 0 164 63 164 173v292h85v-525h-19c-50 -40 -66 -72 -66 -97
c0 -28 23 -44 66 -44z" />
    <glyph glyph-name="uring" unicode="&#x16f;" horiz-adv-x="563" 
d="M274 609c-51 0 -84 33 -84 83c0 49 33 81 84 81c50 0 83 -32 83 -81c0 -50 -33 -83 -83 -83zM274 654c22 0 37 15 37 37c0 23 -15 37 -37 37c-23 0 -38 -14 -38 -37c0 -22 15 -37 38 -37zM233 -16c-116 0 -185 70 -185 220v321h85v-323c0 -117 59 -142 117 -142
c95 0 164 63 164 173v292h85v-525h-85v90c-42 -80 -109 -106 -181 -106z" />
    <glyph glyph-name="v" unicode="v" horiz-adv-x="509" 
d="M232 169l22 -58h2l21 58l122 356h96l-200 -525h-81l-200 525h96z" />
    <glyph glyph-name="w" unicode="w" horiz-adv-x="865" 
d="M254 111h2l126 414h101l127 -414h2l143 414h96l-201 -525h-80l-136 425h-2l-137 -425h-81l-200 525h96z" />
    <glyph glyph-name="wacute" unicode="&#x1e83;" horiz-adv-x="865" 
d="M427 760h119l-165 -175h-62zM254 111h2l126 414h101l127 -414h2l143 414h96l-201 -525h-80l-136 425h-2l-137 -425h-81l-200 525h96z" />
    <glyph glyph-name="wcircumflex" unicode="&#x175;" horiz-adv-x="865" 
d="M330 585h-65l118 175h99l118 -175h-64l-103 119zM254 111h2l126 414h101l127 -414h2l143 414h96l-201 -525h-80l-136 425h-2l-137 -425h-81l-200 525h96z" />
    <glyph glyph-name="wdieresis" unicode="&#x1e85;" horiz-adv-x="865" 
d="M398 676h-75v84h75v-84zM551 676h-75v84h75v-84zM254 111h2l126 414h101l127 -414h2l143 414h96l-201 -525h-80l-136 425h-2l-137 -425h-81l-200 525h96z" />
    <glyph glyph-name="wgrave" unicode="&#x1e81;" horiz-adv-x="865" 
d="M484 585l-165 175h119l108 -175h-62zM254 111h2l126 414h101l127 -414h2l143 414h96l-201 -525h-80l-136 425h-2l-137 -425h-81l-200 525h96z" />
    <glyph glyph-name="x" unicode="x" horiz-adv-x="466" 
d="M352 0l-119 195l-119 -195h-100l168 263l-168 262h100l115 -200l123 200h100l-169 -262l169 -263h-100z" />
    <glyph glyph-name="y" unicode="y" horiz-adv-x="509" 
d="M110 525l126 -369l18 -48h2l18 48l125 369h96l-184 -475l-97 -290h-81l81 240l-200 525h96z" />
    <glyph glyph-name="yacute" unicode="&#xfd;" horiz-adv-x="509" 
d="M249 760h119l-165 -175h-62zM110 525l126 -369l18 -48h2l18 48l125 369h96l-184 -475l-97 -290h-81l81 240l-200 525h96z" />
    <glyph glyph-name="ycircumflex" unicode="&#x177;" horiz-adv-x="509" 
d="M152 585h-65l118 175h99l118 -175h-64l-103 119zM110 525l126 -369l18 -48h2l18 48l125 369h96l-184 -475l-97 -290h-81l81 240l-200 525h96z" />
    <glyph glyph-name="ydieresis" unicode="&#xff;" horiz-adv-x="509" 
d="M218 676h-75v84h75v-84zM371 676h-75v84h75v-84zM110 525l126 -369l18 -48h2l18 48l125 369h96l-184 -475l-97 -290h-81l81 240l-200 525h96z" />
    <glyph glyph-name="ygrave" unicode="&#x1ef3;" horiz-adv-x="509" 
d="M306 585l-165 175h119l108 -175h-62zM110 525l126 -369l18 -48h2l18 48l125 369h96l-184 -475l-97 -290h-81l81 240l-200 525h96z" />
    <glyph glyph-name="z" unicode="z" horiz-adv-x="537" 
d="M32 0v75l357 375h-353v75h453l1 -75l-357 -375h376v-75h-477z" />
    <glyph glyph-name="zacute" unicode="&#x17a;" horiz-adv-x="537" 
d="M265 760h119l-165 -175h-62zM32 0v75l357 375h-353v75h453l1 -75l-357 -375h376v-75h-477z" />
    <glyph glyph-name="zcaron" unicode="&#x17e;" horiz-adv-x="537" 
d="M103 760h65l103 -119l103 119h64l-118 -175h-99zM32 0v75l357 375h-353v75h453l1 -75l-357 -375h376v-75h-477z" />
    <glyph glyph-name="zdotaccent" unicode="&#x17c;" horiz-adv-x="537" 
d="M271 649c-36 0 -65 28 -65 64c0 35 29 63 65 63c34 0 64 -28 64 -63c0 -36 -30 -64 -64 -64zM32 0v75l357 375h-353v75h453l1 -75l-357 -375h376v-75h-477z" />
    <glyph glyph-name="a.ss01" horiz-adv-x="605" 
d="M275 -16c-154 0 -236 122 -236 280c0 154 77 277 241 277c74 0 133 -26 176 -98v82h85v-525h-85v79c-43 -69 -109 -95 -181 -95zM289 61c100 0 167 66 167 178v62c0 99 -70 163 -169 163c-111 0 -169 -81 -169 -199c0 -120 59 -204 171 -204z" />
    <glyph glyph-name="aacute.ss01" horiz-adv-x="605" 
d="M285 759h119l-165 -175h-62zM275 -16c-154 0 -236 122 -236 280c0 154 77 277 241 277c74 0 133 -26 176 -98v82h85v-525h-85v79c-43 -69 -109 -95 -181 -95zM289 61c100 0 167 66 167 178v62c0 99 -70 163 -169 163c-111 0 -169 -81 -169 -199c0 -120 59 -204 171 -204z
" />
    <glyph glyph-name="abreve.ss01" horiz-adv-x="605" 
d="M470 759c0 -105 -71 -175 -179 -175s-180 70 -180 175h75c0 -63 42 -104 105 -104s104 41 104 104h75zM275 -16c-154 0 -236 122 -236 280c0 154 77 277 241 277c74 0 133 -26 176 -98v82h85v-525h-85v79c-43 -69 -109 -95 -181 -95zM289 61c100 0 167 66 167 178v62
c0 99 -70 163 -169 163c-111 0 -169 -81 -169 -199c0 -120 59 -204 171 -204z" />
    <glyph glyph-name="acircumflex.ss01" horiz-adv-x="605" 
d="M188 584h-65l118 175h99l118 -175h-64l-103 119zM275 -16c-154 0 -236 122 -236 280c0 154 77 277 241 277c74 0 133 -26 176 -98v82h85v-525h-85v79c-43 -69 -109 -95 -181 -95zM289 61c100 0 167 66 167 178v62c0 99 -70 163 -169 163c-111 0 -169 -81 -169 -199
c0 -120 59 -204 171 -204z" />
    <glyph glyph-name="adieresis.ss01" horiz-adv-x="605" 
d="M222 666c-24 0 -46 20 -46 48c0 24 22 44 46 44c29 0 47 -20 47 -44c0 -28 -21 -48 -47 -48zM369 666c-25 0 -46 20 -46 48c0 24 21 44 46 44c28 0 47 -20 47 -44c0 -28 -22 -48 -47 -48zM275 -16c-154 0 -236 122 -236 280c0 154 77 277 241 277c74 0 133 -26 176 -98
v82h85v-525h-85v79c-43 -69 -109 -95 -181 -95zM289 61c100 0 167 66 167 178v62c0 99 -70 163 -169 163c-111 0 -169 -81 -169 -199c0 -120 59 -204 171 -204z" />
    <glyph glyph-name="agrave.ss01" horiz-adv-x="605" 
d="M342 584l-165 175h119l108 -175h-62zM275 -16c-154 0 -236 122 -236 280c0 154 77 277 241 277c74 0 133 -26 176 -98v82h85v-525h-85v79c-43 -69 -109 -95 -181 -95zM289 61c100 0 167 66 167 178v62c0 99 -70 163 -169 163c-111 0 -169 -81 -169 -199
c0 -120 59 -204 171 -204z" />
    <glyph glyph-name="amacron.ss01" horiz-adv-x="605" 
d="M446 719v-70h-312v70h312zM275 -16c-154 0 -236 122 -236 280c0 154 77 277 241 277c74 0 133 -26 176 -98v82h85v-525h-85v79c-43 -69 -109 -95 -181 -95zM289 61c100 0 167 66 167 178v62c0 99 -70 163 -169 163c-111 0 -169 -81 -169 -199c0 -120 59 -204 171 -204z
" />
    <glyph glyph-name="aogonek.ss01" horiz-adv-x="605" 
d="M498 0c-51 -41 -68 -73 -68 -98c0 -28 23 -44 66 -44c8 0 17 0 30 2v-59c-13 -2 -28 -3 -47 -3c-81 0 -113 48 -113 88c0 62 68 103 90 118v75c-43 -69 -109 -95 -181 -95c-154 0 -236 122 -236 280c0 154 77 277 241 277c74 0 133 -26 176 -98v82h85v-525h-43zM289 61
c100 0 167 66 167 178v62c0 99 -70 163 -169 163c-111 0 -169 -81 -169 -199c0 -120 59 -204 171 -204z" />
    <glyph glyph-name="aring.ss01" horiz-adv-x="605" 
d="M291 608c-51 0 -84 33 -84 83c0 49 33 81 84 81c50 0 83 -32 83 -81c0 -50 -33 -83 -83 -83zM291 653c22 0 37 15 37 37c0 23 -15 37 -37 37c-23 0 -38 -14 -38 -37c0 -22 15 -37 38 -37zM275 -16c-154 0 -236 122 -236 280c0 154 77 277 241 277c74 0 133 -26 176 -98
v82h85v-525h-85v79c-43 -69 -109 -95 -181 -95zM289 61c100 0 167 66 167 178v62c0 99 -70 163 -169 163c-111 0 -169 -81 -169 -199c0 -120 59 -204 171 -204z" />
    <glyph glyph-name="atilde.ss01" horiz-adv-x="605" 
d="M225 738c59 0 82 -64 121 -64c22 0 39 23 39 59h63c0 -88 -40 -128 -92 -128c-67 0 -87 66 -124 66c-22 0 -36 -25 -36 -61h-63c0 74 39 128 92 128zM275 -16c-154 0 -236 122 -236 280c0 154 77 277 241 277c74 0 133 -26 176 -98v82h85v-525h-85v79
c-43 -69 -109 -95 -181 -95zM289 61c100 0 167 66 167 178v62c0 99 -70 163 -169 163c-111 0 -169 -81 -169 -199c0 -120 59 -204 171 -204z" />
    <glyph glyph-name="d.ss01" horiz-adv-x="614" 
d="M269 -16c-142 0 -236 114 -236 284c0 164 97 273 242 273c68 0 138 -35 175 -87v306h85v-760h-45l-40 67c-38 -49 -111 -83 -181 -83zM283 61c101 0 167 71 167 178v62c0 98 -67 163 -169 163c-97 0 -162 -79 -162 -199c0 -123 65 -204 164 -204z" />
    <glyph glyph-name="i.ss01" horiz-adv-x="242" 
d="M121 646c-31 0 -57 24 -57 57c0 31 26 55 57 55c34 0 57 -26 57 -55c0 -33 -26 -57 -57 -57zM164 0h-85v525h85v-525z" />
    <glyph glyph-name="idieresis.ss01" horiz-adv-x="241" 
d="M43 666c-24 0 -46 20 -46 48c0 24 22 44 46 44c29 0 47 -20 47 -44c0 -28 -21 -48 -47 -48zM190 666c-25 0 -46 20 -46 48c0 24 21 44 46 44c28 0 47 -20 47 -44c0 -28 -22 -48 -47 -48zM163 0h-85v525h85v-525z" />
    <glyph glyph-name="j.ss01" horiz-adv-x="241" 
d="M120 646c-31 0 -57 24 -57 57c0 31 26 55 57 55s57 -24 57 -55c0 -33 -26 -57 -57 -57zM23 -240c-28 0 -57 6 -57 6v79s11 -3 32 -3c57 0 80 20 80 63v620h85v-607c0 -100 -36 -158 -140 -158z" />
    <glyph glyph-name="k.ss01" horiz-adv-x="517" 
d="M149 0h-85v760h85v-617l248 382h98l-167 -253l175 -272h-102l-123 194z" />
    <glyph glyph-name="kcommaaccent.ss01" horiz-adv-x="517" 
d="M149 0h-85v760h85v-617l248 382h98l-167 -253l175 -272h-102l-123 194zM285 -240h-47l34 170h76z" />
    <glyph glyph-name="l.ss01" horiz-adv-x="213" 
d="M149 525v-525h-85v760h55z" />
    <glyph glyph-name="lacute.ss01" horiz-adv-x="244" 
d="M190 974h119l-165 -175h-62zM154 525v-525h-85v760h55z" />
    <glyph glyph-name="lcaron.ss01" horiz-adv-x="241" 
d="M154 525v-525h-85v760h55zM271 760h96l-105 -175h-39z" />
    <glyph glyph-name="lcommaaccent.ss01" horiz-adv-x="241" 
d="M154 525v-525h-85v760h55zM94 -240h-47l34 170h76z" />
    <glyph glyph-name="lslash.ss01" horiz-adv-x="213" 
d="M141 0h-85v290l-92 -62v95l92 62v375h55l30 -235v-84l110 74v-95l-110 -74v-346z" />
    <glyph glyph-name="n.ss01" horiz-adv-x="583" 
d="M515 0h-85v440h-281v-440h-85v525h451v-525z" />
    <glyph glyph-name="nacute.ss01" horiz-adv-x="583" 
d="M298 760h119l-165 -175h-62zM515 0h-85v440h-281v-440h-85v525h451v-525z" />
    <glyph glyph-name="ncaron.ss01" horiz-adv-x="583" 
d="M136 760h65l103 -119l103 119h64l-118 -175h-99zM515 0h-85v440h-281v-440h-85v525h451v-525z" />
    <glyph glyph-name="ncommaaccent.ss01" horiz-adv-x="583" 
d="M515 0h-85v440h-281v-440h-85v525h451v-525zM296 -240h-47l34 170h76z" />
    <glyph glyph-name="ntilde.ss01" horiz-adv-x="583" 
d="M238 739c59 0 82 -64 121 -64c22 0 39 23 39 59h63c0 -88 -40 -128 -92 -128c-67 0 -87 66 -124 66c-22 0 -36 -25 -36 -61h-63c0 74 39 128 92 128zM515 0h-85v440h-281v-440h-85v525h451v-525z" />
    <glyph glyph-name="q.ss01" horiz-adv-x="614" 
d="M450 67c-38 -49 -111 -83 -181 -83c-142 0 -236 112 -236 280c0 166 97 277 241 277c69 0 139 -35 176 -87l40 71h45v-765h-85v307zM283 61c101 0 167 71 167 178v62c0 98 -67 163 -169 163c-97 0 -162 -79 -162 -199c0 -123 65 -204 164 -204z" />
    <glyph glyph-name="r.ss01" horiz-adv-x="351" 
d="M334 440h-185v-440h-85v525h270v-85z" />
    <glyph glyph-name="racute.ss01" horiz-adv-x="367" 
d="M208 760h119l-165 -175h-62zM335 440h-185v-440h-85v525h270v-85z" />
    <glyph glyph-name="rcaron.ss01" horiz-adv-x="366" 
d="M46 760h65l103 -119l103 119h64l-118 -175h-99zM335 440h-185v-440h-85v525h270v-85z" />
    <glyph glyph-name="rcommaaccent.ss01" horiz-adv-x="366" 
d="M342 440h-185v-440h-85v525h270v-85zM92 -240h-47l34 170h76z" />
    <glyph glyph-name="germandbls.ss01" horiz-adv-x="728" 
d="M439 -16c-141 0 -226 97 -228 182h85c7 -55 57 -109 143 -109c110 0 165 88 165 191c0 102 -55 175 -152 175c-65 0 -104 -32 -134 -86l-19 -38l-89 -8l202 384h-263v-675h-85v760h435v-85l-109 -190h8c27 11 47 16 73 16c117 0 216 -103 216 -250
c0 -139 -88 -267 -248 -267z" />
    <glyph glyph-name="t.ss01" horiz-adv-x="326" 
d="M19 525h72v135h85v-135h120v-71h-120v-454h-85v454h-72v71z" />
    <glyph glyph-name="tbar.ss01" horiz-adv-x="359" 
d="M326 303v-69h-120v-234h-85v234h-72v69h72v151h-72v71h72v135h85v-135h120v-71h-120v-151h120z" />
    <glyph glyph-name="tcaron.ss01" horiz-adv-x="472" 
d="M311 760h96l-105 -175h-39zM17 525h72v135h85v-135h120v-71h-120v-454h-85v454h-72v71z" />
    <glyph glyph-name="uni0163.ss01" horiz-adv-x="324" 
d="M106 -51c47 0 78 -26 78 -64c0 -45 -38 -75 -87 -75h-57v45h50c27 0 45 11 45 29c0 16 -18 26 -45 26h-40v39l47 51h-7v454h-72v71h72v135h85v-135h120v-71h-120v-454h-29l-53 -51h13z" />
    <glyph glyph-name="uni021B.ss01" horiz-adv-x="327" 
d="M20 525h72v135h85v-135h120v-71h-120v-454h-85v454h-72v71zM110 -240h-47l34 170h76z" />
    <glyph glyph-name="u.ss01" horiz-adv-x="607" 
d="M163 85h281v440h85v-525h-451v525h85v-440z" />
    <glyph glyph-name="uacute.ss01" horiz-adv-x="563" 
d="M269 760h119l-165 -175h-62zM133 85h281v440h85v-525h-451v525h85v-440z" />
    <glyph glyph-name="ucircumflex.ss01" horiz-adv-x="563" 
d="M172 585h-65l118 175h99l118 -175h-64l-103 119zM133 85h281v440h85v-525h-451v525h85v-440z" />
    <glyph glyph-name="udieresis.ss01" horiz-adv-x="563" 
d="M235 676h-75v84h75v-84zM388 676h-75v84h75v-84zM133 85h281v440h85v-525h-451v525h85v-440z" />
    <glyph glyph-name="ugrave.ss01" horiz-adv-x="563" 
d="M326 585l-165 175h119l108 -175h-62zM133 85h281v440h85v-525h-451v525h85v-440z" />
    <glyph glyph-name="uhungarumlaut.ss01" horiz-adv-x="553" 
d="M162 760h119l-165 -175h-62zM368 760h119l-165 -175h-62zM128 85h281v440h85v-525h-451v525h85v-440z" />
    <glyph glyph-name="umacron.ss01" horiz-adv-x="563" 
d="M430 720v-70h-312v70h312zM133 85h281v440h85v-525h-451v525h85v-440z" />
    <glyph glyph-name="uogonek.ss01" horiz-adv-x="563" 
d="M324 0c-50 -40 -66 -72 -66 -97c0 -28 23 -44 66 -44c8 0 17 0 30 2v-59c-13 -2 -28 -3 -47 -3c-81 0 -113 48 -113 88c0 56 56 95 83 113h-229v525h85v-440h281v440h85v-525h-175z" />
    <glyph glyph-name="uring.ss01" horiz-adv-x="563" 
d="M275 609c-51 0 -84 33 -84 83c0 49 33 81 84 81c50 0 83 -32 83 -81c0 -50 -33 -83 -83 -83zM275 654c22 0 37 15 37 37c0 23 -15 37 -37 37c-23 0 -38 -14 -38 -37c0 -22 15 -37 38 -37zM133 85h281v440h85v-525h-451v525h85v-440z" />
    <glyph glyph-name="y.ss01" horiz-adv-x="511" 
d="M110 525l127 -370l17 -47h3l19 47l125 370h96l-200 -525v-240h-83v240l-200 525h96z" />
    <glyph glyph-name="yacute.ss01" horiz-adv-x="511" 
d="M250 760h119l-165 -175h-62zM110 525l127 -370l17 -47h3l19 47l125 370h96l-200 -525v-240h-83v240l-200 525h96z" />
    <glyph glyph-name="ycircumflex.ss01" horiz-adv-x="511" 
d="M153 585h-65l118 175h99l118 -175h-64l-103 119zM110 525l127 -370l17 -47h3l19 47l125 370h96l-200 -525v-240h-83v240l-200 525h96z" />
    <glyph glyph-name="ydieresis.ss01" horiz-adv-x="511" 
d="M217 676h-75v84h75v-84zM370 676h-75v84h75v-84zM110 525l127 -370l17 -47h3l19 47l125 370h96l-200 -525v-240h-83v240l-200 525h96z" />
    <glyph glyph-name="ygrave.ss01" horiz-adv-x="511" 
d="M283 585l-165 175h119l108 -175h-62zM110 525l127 -370l17 -47h3l19 47l125 370h96l-200 -525v-240h-83v240l-200 525h96z" />
    <glyph glyph-name="A.smcp" horiz-adv-x="706" 
d="M672 0h-97l-76 184h-292l-76 -184h-97l271 646h96zM240 269h227l-114 272z" />
    <glyph glyph-name="Aacute.smcp" horiz-adv-x="706" 
d="M347 881h119l-165 -175h-62zM672 0h-97l-76 184h-292l-76 -184h-97l271 646h96zM240 269h227l-114 272z" />
    <glyph glyph-name="Abreve.smcp" horiz-adv-x="706" 
d="M532 881c0 -105 -71 -175 -179 -175s-180 70 -180 175h75c0 -63 42 -104 105 -104s104 41 104 104h75zM672 0h-97l-76 184h-292l-76 -184h-97l271 646h96zM240 269h227l-114 272z" />
    <glyph glyph-name="Acircumflex.smcp" horiz-adv-x="706" 
d="M250 706h-65l118 175h99l118 -175h-64l-103 119zM672 0h-97l-76 184h-292l-76 -184h-97l271 646h96zM240 269h227l-114 272z" />
    <glyph glyph-name="Adieresis.smcp" horiz-adv-x="706" 
d="M313 797h-75v84h75v-84zM466 797h-75v84h75v-84zM672 0h-97l-76 184h-292l-76 -184h-97l271 646h96zM240 269h227l-114 272z" />
    <glyph glyph-name="Agrave.smcp" horiz-adv-x="706" 
d="M404 706l-165 175h119l108 -175h-62zM672 0h-97l-76 184h-292l-76 -184h-97l271 646h96zM240 269h227l-114 272z" />
    <glyph glyph-name="Amacron.smcp" horiz-adv-x="706" 
d="M509 841v-70h-312v70h312zM672 0h-97l-76 184h-292l-76 -184h-97l271 646h96zM240 269h227l-114 272z" />
    <glyph glyph-name="Aogonek.smcp" horiz-adv-x="706" 
d="M543 -98c0 -28 23 -44 66 -44c8 0 17 0 30 2v-59c-13 -2 -28 -3 -47 -3c-81 0 -113 48 -113 88c0 64 72 106 92 119h2l-74 179h-292l-76 -184h-97l271 646h96l271 -646h-61c-51 -41 -68 -73 -68 -98zM240 269h227l-114 272z" />
    <glyph glyph-name="Aring.smcp" horiz-adv-x="706" 
d="M353 730c-51 0 -84 33 -84 83c0 49 33 81 84 81c50 0 83 -32 83 -81c0 -50 -33 -83 -83 -83zM353 775c22 0 37 15 37 37c0 23 -15 37 -37 37c-23 0 -38 -14 -38 -37c0 -22 15 -37 38 -37zM672 0h-97l-76 184h-292l-76 -184h-97l271 646h96zM240 269h227l-114 272z" />
    <glyph glyph-name="Atilde.smcp" horiz-adv-x="706" 
d="M287 860c59 0 82 -64 121 -64c22 0 39 23 39 59h63c0 -88 -40 -128 -92 -128c-67 0 -87 66 -124 66c-22 0 -36 -25 -36 -61h-63c0 74 39 128 92 128zM672 0h-97l-76 184h-292l-76 -184h-97l271 646h96zM240 269h227l-114 272z" />
    <glyph glyph-name="AE.smcp" horiz-adv-x="1068" 
d="M499 0v182h-269l-98 -182h-98l341 646h581v-90h-367v-172h331v-89h-331v-205h382v-90h-472zM499 556h-71l-151 -284h222v284z" />
    <glyph glyph-name="AEacute.smcp" horiz-adv-x="1068" 
d="M533 881h119l-165 -175h-62zM499 0v182h-269l-98 -182h-98l341 646h581v-90h-367v-172h331v-89h-331v-205h382v-90h-472zM499 556h-71l-151 -284h222v284z" />
    <glyph glyph-name="B.smcp" horiz-adv-x="655" 
d="M335 646c132 0 229 -55 229 -171c0 -63 -46 -113 -97 -128c67 -9 133 -72 133 -162c0 -112 -71 -185 -220 -185h-284v646h239zM318 381c98 0 158 28 158 88c0 59 -43 98 -141 98h-150v-186h133zM352 79c93 0 160 36 160 114c0 68 -58 110 -168 110h-159v-224h167z" />
    <glyph glyph-name="C.smcp" horiz-adv-x="743" 
d="M383 -14c-195 0 -324 135 -324 334c0 202 130 340 327 340c161 0 281 -101 303 -247h-92c-18 97 -105 163 -217 163c-138 0 -227 -102 -227 -253s90 -253 228 -253c113 0 198 68 216 164h92c-22 -146 -144 -248 -306 -248z" />
    <glyph glyph-name="Cacute.smcp" horiz-adv-x="743" 
d="M367 881h119l-165 -175h-62zM383 -14c-195 0 -324 135 -324 334c0 202 130 340 327 340c161 0 281 -101 303 -247h-92c-18 97 -105 163 -217 163c-138 0 -227 -102 -227 -253s90 -253 228 -253c113 0 198 68 216 164h92c-22 -146 -144 -248 -306 -248z" />
    <glyph glyph-name="Ccaron.smcp" horiz-adv-x="743" 
d="M205 881h65l103 -119l103 119h64l-118 -175h-99zM383 -14c-195 0 -324 135 -324 334c0 202 130 340 327 340c161 0 281 -101 303 -247h-92c-18 97 -105 163 -217 163c-138 0 -227 -102 -227 -253s90 -253 228 -253c113 0 198 68 216 164h92c-22 -146 -144 -248 -306 -248
z" />
    <glyph glyph-name="Ccedilla.smcp" horiz-adv-x="743" 
d="M381 70c113 0 198 68 216 164h92c-22 -143 -139 -244 -296 -248l-39 -37h13c47 0 78 -26 78 -64c0 -45 -38 -75 -87 -75h-57v45h50c27 0 45 11 45 29c0 16 -18 26 -45 26h-40v39l35 39c-174 16 -287 146 -287 332c0 202 130 340 327 340c161 0 281 -101 303 -247h-92
c-18 97 -105 163 -217 163c-138 0 -227 -102 -227 -253s90 -253 228 -253z" />
    <glyph glyph-name="Cdotaccent.smcp" horiz-adv-x="743" 
d="M373 770c-36 0 -65 28 -65 64c0 35 29 63 65 63c34 0 64 -28 64 -63c0 -36 -30 -64 -64 -64zM383 -14c-195 0 -324 135 -324 334c0 202 130 340 327 340c161 0 281 -101 303 -247h-92c-18 97 -105 163 -217 163c-138 0 -227 -102 -227 -253s90 -253 228 -253
c113 0 198 68 216 164h92c-22 -146 -144 -248 -306 -248z" />
    <glyph glyph-name="D.smcp" horiz-adv-x="711" 
d="M346 646c187 0 310 -101 310 -326c0 -199 -93 -322 -293 -321l-267 1l1 646h249zM344 84c132 0 218 72 218 240c0 149 -69 238 -218 238h-158v-478h158z" />
    <glyph glyph-name="Eth.smcp" horiz-adv-x="711" 
d="M346 646c187 0 310 -101 310 -326c0 -199 -93 -322 -293 -321l-267 1v288h-72v69h73v289h249zM344 84c132 0 218 72 218 240c0 149 -69 238 -218 238h-158v-205h150v-69h-150v-204h158z" />
    <glyph glyph-name="Dcaron.smcp" horiz-adv-x="711" 
d="M186 881h65l103 -119l103 119h64l-118 -175h-99zM346 646c187 0 310 -101 310 -326c0 -199 -93 -322 -293 -321l-267 1l1 646h249zM344 84c132 0 218 72 218 240c0 149 -69 238 -218 238h-158v-478h158z" />
    <glyph glyph-name="Dcroat.smcp" horiz-adv-x="711" 
d="M346 646c187 0 310 -101 310 -326c0 -199 -93 -322 -293 -321l-267 1v288h-72v69h73v289h249zM344 84c132 0 218 72 218 240c0 149 -69 238 -218 238h-158v-205h150v-69h-150v-204h158z" />
    <glyph glyph-name="E.smcp" horiz-adv-x="665" 
d="M96 0v646h458v-85h-370v-179h334v-86h-334v-211h385v-85h-473z" />
    <glyph glyph-name="Eacute.smcp" horiz-adv-x="665" 
d="M327 881h119l-165 -175h-62zM96 0v646h458v-85h-370v-179h334v-86h-334v-211h385v-85h-473z" />
    <glyph glyph-name="Ecaron.smcp" horiz-adv-x="665" 
d="M165 881h65l103 -119l103 119h64l-118 -175h-99zM96 0v646h458v-85h-370v-179h334v-86h-334v-211h385v-85h-473z" />
    <glyph glyph-name="Ecircumflex.smcp" horiz-adv-x="665" 
d="M230 706h-65l118 175h99l118 -175h-64l-103 119zM96 0v646h458v-85h-370v-179h334v-86h-334v-211h385v-85h-473z" />
    <glyph glyph-name="Edieresis.smcp" horiz-adv-x="665" 
d="M294 797h-75v84h75v-84zM447 797h-75v84h75v-84zM96 0v646h458v-85h-370v-179h334v-86h-334v-211h385v-85h-473z" />
    <glyph glyph-name="Edotaccent.smcp" horiz-adv-x="665" 
d="M333 770c-36 0 -65 28 -65 64c0 35 29 63 65 63c34 0 64 -28 64 -63c0 -36 -30 -64 -64 -64zM96 0v646h458v-85h-370v-179h334v-86h-334v-211h385v-85h-473z" />
    <glyph glyph-name="Egrave.smcp" horiz-adv-x="665" 
d="M384 706l-165 175h119l108 -175h-62zM96 0v646h458v-85h-370v-179h334v-86h-334v-211h385v-85h-473z" />
    <glyph glyph-name="Emacron.smcp" horiz-adv-x="665" 
d="M489 841v-70h-312v70h312zM96 0v646h458v-85h-370v-179h334v-86h-334v-211h385v-85h-473z" />
    <glyph glyph-name="Eogonek.smcp" horiz-adv-x="665" 
d="M554 -142c8 0 17 0 30 2v-59c-13 -2 -28 -3 -47 -3c-81 0 -113 48 -113 88c0 57 58 97 84 114h-412v646h458v-85h-370v-179h334v-86h-334v-211h385v-85h-13c-51 -41 -68 -73 -68 -98c0 -28 23 -44 66 -44z" />
    <glyph glyph-name="F.smcp" horiz-adv-x="573" 
d="M501 382v-86h-316v-296h-89v646h449v-85h-360v-179h316z" />
    <glyph glyph-name="G.smcp" horiz-adv-x="760" 
d="M409 -14c-211 0 -350 135 -350 338s131 336 325 336c160 0 281 -92 305 -228h-92c-21 86 -106 144 -217 144c-137 0 -227 -101 -227 -253c0 -153 102 -253 259 -253c75 0 152 29 190 74v103h-238v86h325v-223c-53 -74 -166 -124 -280 -124z" />
    <glyph glyph-name="Gbreve.smcp" horiz-adv-x="760" 
d="M569 881c0 -105 -71 -175 -179 -175s-180 70 -180 175h75c0 -63 42 -104 105 -104s104 41 104 104h75zM409 -14c-211 0 -350 135 -350 338s131 336 325 336c160 0 281 -92 305 -228h-92c-21 86 -106 144 -217 144c-137 0 -227 -101 -227 -253c0 -153 102 -253 259 -253
c75 0 152 29 190 74v103h-238v86h325v-223c-53 -74 -166 -124 -280 -124z" />
    <glyph glyph-name="Gcommaaccent.smcp" horiz-adv-x="760" 
d="M409 -14c-211 0 -350 135 -350 338s131 336 325 336c160 0 281 -92 305 -228h-92c-21 86 -106 144 -217 144c-137 0 -227 -101 -227 -253c0 -153 102 -253 259 -253c75 0 152 29 190 74v103h-238v86h325v-223c-53 -74 -166 -124 -280 -124zM382 -240h-47l34 170h76z" />
    <glyph glyph-name="Gdotaccent.smcp" horiz-adv-x="760" 
d="M390 770c-36 0 -65 28 -65 64c0 35 29 63 65 63c34 0 64 -28 64 -63c0 -36 -30 -64 -64 -64zM409 -14c-211 0 -350 135 -350 338s131 336 325 336c160 0 281 -92 305 -228h-92c-21 86 -106 144 -217 144c-137 0 -227 -101 -227 -253c0 -153 102 -253 259 -253
c75 0 152 29 190 74v103h-238v86h325v-223c-53 -74 -166 -124 -280 -124z" />
    <glyph glyph-name="H.smcp" horiz-adv-x="706" 
d="M522 0v295h-337v-295h-89v646h89v-264h337v264h88v-646h-88z" />
    <glyph glyph-name="Hbar.smcp" horiz-adv-x="706" 
d="M610 0h-88v295h-337v-295h-89v456h-54v69h54v121h89v-121h337v121h88v-121h54v-69h-54v-456zM185 382h337v74h-337v-74z" />
    <glyph glyph-name="I.smcp" horiz-adv-x="245" 
d="M167 0h-89v646h89v-646z" />
    <glyph glyph-name="Iacute.smcp" horiz-adv-x="245" 
d="M116 881h119l-165 -175h-62zM167 0h-89v646h89v-646z" />
    <glyph glyph-name="Icircumflex.smcp" horiz-adv-x="245" 
d="M19 706h-65l118 175h99l118 -175h-64l-103 119zM167 0h-89v646h89v-646z" />
    <glyph glyph-name="Idieresis.smcp" horiz-adv-x="245" 
d="M83 797h-75v84h75v-84zM236 797h-75v84h75v-84zM167 0h-89v646h89v-646z" />
    <glyph glyph-name="Idotaccent.smcp" horiz-adv-x="245" 
d="M122 770c-36 0 -65 28 -65 64c0 35 29 63 65 63c34 0 64 -28 64 -63c0 -36 -30 -64 -64 -64zM167 0h-89v646h89v-646z" />
    <glyph glyph-name="Igrave.smcp" horiz-adv-x="245" 
d="M173 706l-165 175h119l108 -175h-62zM167 0h-89v646h89v-646z" />
    <glyph glyph-name="Imacron.smcp" horiz-adv-x="245" 
d="M278 841v-70h-312v70h312zM167 0h-89v646h89v-646z" />
    <glyph glyph-name="Iogonek.smcp" horiz-adv-x="245" 
d="M157 -142c8 0 17 0 30 2v-59c-13 -2 -28 -3 -47 -3c-81 0 -113 48 -113 88c0 57 58 97 84 114h-33v646h89v-646h-8c-51 -41 -68 -73 -68 -98c0 -28 23 -44 66 -44z" />
    <glyph glyph-name="J.smcp" horiz-adv-x="548" 
d="M260 -14c-141 0 -225 72 -235 208h89c12 -83 56 -124 140 -124c122 0 126 86 126 253v323h90v-329c0 -192 -10 -331 -210 -331z" />
    <glyph glyph-name="K.smcp" horiz-adv-x="619" 
d="M185 0h-89v646h89v-292l274 292h112l-298 -317l312 -329h-112l-288 299v-299z" />
    <glyph glyph-name="Kcommaaccent.smcp" horiz-adv-x="619" 
d="M185 299v-299h-89v646h89v-292l274 292h112l-298 -317l312 -329h-112zM292 -240h-47l34 170h76z" />
    <glyph glyph-name="L.smcp" horiz-adv-x="570" 
d="M96 0v646h88v-561h361v-85h-449z" />
    <glyph glyph-name="Lacute.smcp" horiz-adv-x="570" 
d="M278 881h119l-165 -175h-62zM96 0v646h88v-561h361v-85h-449z" />
    <glyph glyph-name="Lcaron.smcp" horiz-adv-x="585" 
d="M106 0v646h88v-561h361v-85h-449zM461 646h99l-95 -149h-47z" />
    <glyph glyph-name="Lcommaaccent.smcp" horiz-adv-x="570" 
d="M96 0v646h88v-561h361v-85h-449zM276 -240h-47l34 170h76z" />
    <glyph glyph-name="Lslash.smcp" horiz-adv-x="570" 
d="M96 0v317l-94 -63v95l94 63v234h88v-175l105 70v-95l-105 -70v-291h361v-85h-449z" />
    <glyph glyph-name="M.smcp" horiz-adv-x="797" 
d="M398 101l204 545h99v-646h-89v454l-165 -454h-97l-165 454v-454h-89v646h97z" />
    <glyph glyph-name="N.smcp" horiz-adv-x="706" 
d="M522 138v508h88v-646h-94l-331 486v-486h-89v646h89z" />
    <glyph glyph-name="Nacute.smcp" horiz-adv-x="706" 
d="M345 881h119l-165 -175h-62zM522 138v508h88v-646h-94l-331 486v-486h-89v646h89z" />
    <glyph glyph-name="Ncaron.smcp" horiz-adv-x="706" 
d="M183 881h65l103 -119l103 119h64l-118 -175h-99zM522 138v508h88v-646h-94l-331 486v-486h-89v646h89z" />
    <glyph glyph-name="Ncommaaccent.smcp" horiz-adv-x="706" 
d="M522 138v508h88v-646h-94l-331 486v-486h-89v646h89zM343 -240h-47l34 170h76z" />
    <glyph glyph-name="Eng.smcp" horiz-adv-x="706" 
d="M436 -204c-153 0 -181 102 -183 158h94c-1 -16 4 -79 86 -79c78 0 84 56 87 118l-333 493v-486h-91v646h91l332 -508v508h91v-646c0 -91 -10 -204 -174 -204z" />
    <glyph glyph-name="Ntilde.smcp" horiz-adv-x="706" 
d="M285 860c59 0 82 -64 121 -64c22 0 39 23 39 59h63c0 -88 -40 -128 -92 -128c-67 0 -87 66 -124 66c-22 0 -36 -25 -36 -61h-63c0 74 39 128 92 128zM522 138v508h88v-646h-94l-331 486v-486h-89v646h89z" />
    <glyph glyph-name="O.smcp" horiz-adv-x="776" 
d="M389 -14c-198 0 -330 136 -330 337s132 337 330 337s328 -136 328 -337s-130 -337 -328 -337zM389 70c142 0 235 103 235 253s-93 253 -235 253c-143 0 -237 -103 -237 -253s94 -253 237 -253z" />
    <glyph glyph-name="Oacute.smcp" horiz-adv-x="776" 
d="M383 881h119l-165 -175h-62zM389 -14c-198 0 -330 136 -330 337s132 337 330 337s328 -136 328 -337s-130 -337 -328 -337zM389 70c142 0 235 103 235 253s-93 253 -235 253c-143 0 -237 -103 -237 -253s94 -253 237 -253z" />
    <glyph glyph-name="Ocircumflex.smcp" horiz-adv-x="776" 
d="M286 706h-65l118 175h99l118 -175h-64l-103 119zM389 -14c-198 0 -330 136 -330 337s132 337 330 337s328 -136 328 -337s-130 -337 -328 -337zM389 70c142 0 235 103 235 253s-93 253 -235 253c-143 0 -237 -103 -237 -253s94 -253 237 -253z" />
    <glyph glyph-name="Odieresis.smcp" horiz-adv-x="776" 
d="M350 797h-75v84h75v-84zM503 797h-75v84h75v-84zM389 -14c-198 0 -330 136 -330 337s132 337 330 337s328 -136 328 -337s-130 -337 -328 -337zM389 70c142 0 235 103 235 253s-93 253 -235 253c-143 0 -237 -103 -237 -253s94 -253 237 -253z" />
    <glyph glyph-name="Ograve.smcp" horiz-adv-x="776" 
d="M440 706l-165 175h119l108 -175h-62zM389 -14c-198 0 -330 136 -330 337s132 337 330 337s328 -136 328 -337s-130 -337 -328 -337zM389 70c142 0 235 103 235 253s-93 253 -235 253c-143 0 -237 -103 -237 -253s94 -253 237 -253z" />
    <glyph glyph-name="Ohungarumlaut.smcp" horiz-adv-x="776" 
d="M280 881h119l-165 -175h-62zM486 881h119l-165 -175h-62zM389 -14c-198 0 -330 136 -330 337s132 337 330 337s328 -136 328 -337s-130 -337 -328 -337zM389 70c142 0 235 103 235 253s-93 253 -235 253c-143 0 -237 -103 -237 -253s94 -253 237 -253z" />
    <glyph glyph-name="Omacron.smcp" horiz-adv-x="776" 
d="M545 841v-70h-312v70h312zM389 -14c-198 0 -330 136 -330 337s132 337 330 337s328 -136 328 -337s-130 -337 -328 -337zM389 70c142 0 235 103 235 253s-93 253 -235 253c-143 0 -237 -103 -237 -253s94 -253 237 -253z" />
    <glyph glyph-name="Oslash.smcp" horiz-adv-x="776" 
d="M598 593c75 -59 119 -154 119 -270c0 -201 -130 -337 -328 -337c-58 0 -111 12 -156 33l-85 -134h-75l107 168c-77 59 -121 153 -121 270c0 201 132 337 330 337c58 0 111 -12 155 -33l86 134h75zM152 323c0 -82 28 -149 76 -194l269 423c-31 16 -68 24 -108 24
c-143 0 -237 -103 -237 -253zM389 70c142 0 235 103 235 253c0 81 -27 148 -75 193l-268 -423c31 -15 68 -23 108 -23z" />
    <glyph glyph-name="Otilde.smcp" horiz-adv-x="776" 
d="M323 860c59 0 82 -64 121 -64c22 0 39 23 39 59h63c0 -88 -40 -128 -92 -128c-67 0 -87 66 -124 66c-22 0 -36 -25 -36 -61h-63c0 74 39 128 92 128zM389 -14c-198 0 -330 136 -330 337s132 337 330 337s328 -136 328 -337s-130 -337 -328 -337zM389 70
c142 0 235 103 235 253s-93 253 -235 253c-143 0 -237 -103 -237 -253s94 -253 237 -253z" />
    <glyph glyph-name="OE.smcp" horiz-adv-x="1194" 
d="M389 -14c-200 0 -330 136 -330 337s130 337 330 337c97 0 178 -33 236 -90v77h457v-85h-367v-178h331v-86h-331v-211h383v-86h-473v76c-58 -58 -139 -91 -236 -91zM388 70c141 0 235 103 235 253s-94 253 -235 253c-142 0 -237 -103 -237 -253s95 -253 237 -253z" />
    <glyph glyph-name="P.smcp" horiz-adv-x="619" 
d="M352 646c127 0 212 -59 212 -182c0 -109 -70 -180 -212 -180h-167v-284h-89v646h256zM333 364c88 0 143 31 143 100c0 61 -43 103 -143 103h-148v-203h148z" />
    <glyph glyph-name="Thorn.smcp" horiz-adv-x="619" 
d="M327 513c114 0 237 -22 237 -182c0 -158 -119 -179 -230 -179h-147v-152h-91v646h91v-133h140zM326 239c68 0 142 1 142 93c0 91 -77 92 -142 92h-139v-185h139z" />
    <glyph glyph-name="Q.smcp" horiz-adv-x="776" 
d="M717 323c0 -120 -46 -216 -125 -275l125 -104h-117l-78 66c-40 -16 -84 -24 -133 -24c-198 0 -330 136 -330 337s132 337 330 337s328 -136 328 -337zM389 70c19 0 37 2 54 5l-115 96h117l76 -63c65 42 103 119 103 215c0 150 -94 253 -235 253
c-143 0 -236 -103 -236 -253s93 -253 236 -253z" />
    <glyph glyph-name="R.smcp" horiz-adv-x="617" 
d="M335 646c143 0 229 -56 229 -174c0 -97 -84 -161 -219 -166h-51l297 -306h-110l-296 305v-305h-89v646h239zM347 380c65 0 128 29 128 93c0 56 -43 94 -142 94h-148v-187h162z" />
    <glyph glyph-name="Racute.smcp" horiz-adv-x="617" 
d="M301 881h119l-165 -175h-62zM335 646c143 0 229 -56 229 -174c0 -97 -84 -161 -219 -166h-51l297 -306h-110l-296 305v-305h-89v646h239zM347 380c65 0 128 29 128 93c0 56 -43 94 -142 94h-148v-187h162z" />
    <glyph glyph-name="Rcaron.smcp" horiz-adv-x="617" 
d="M139 881h65l103 -119l103 119h64l-118 -175h-99zM335 646c143 0 229 -56 229 -174c0 -97 -84 -161 -219 -166h-51l297 -306h-110l-296 305v-305h-89v646h239zM347 380c65 0 128 29 128 93c0 56 -43 94 -142 94h-148v-187h162z" />
    <glyph glyph-name="Rcommaaccent.smcp" horiz-adv-x="617" 
d="M335 646c143 0 229 -56 229 -174c0 -97 -84 -161 -219 -166h-51l297 -306h-110l-296 305v-305h-89v646h239zM347 380c65 0 128 29 128 93c0 56 -43 94 -142 94h-148v-187h162zM299 -240h-47l34 170h76z" />
    <glyph glyph-name="S.smcp" horiz-adv-x="646" 
d="M345 -20c-202 0 -289 108 -299 229h91c29 -116 113 -148 222 -148c91 0 149 31 149 102c0 70 -77 92 -148 111c-144 39 -272 60 -275 194c-3 141 132 190 243 190c157 0 242 -90 245 -214h-90c-10 109 -96 132 -165 132c-43 0 -142 -10 -142 -97c0 -65 50 -85 158 -110
c107 -25 257 -44 257 -197c0 -134 -82 -192 -246 -192z" />
    <glyph glyph-name="Sacute.smcp" horiz-adv-x="646" 
d="M309 873h119l-165 -175h-62zM345 -20c-202 0 -289 108 -299 229h91c29 -116 113 -148 222 -148c91 0 149 31 149 102c0 70 -77 92 -148 111c-144 39 -272 60 -275 194c-3 141 132 190 243 190c157 0 242 -90 245 -214h-90c-10 109 -96 132 -165 132
c-43 0 -142 -10 -142 -97c0 -65 50 -85 158 -110c107 -25 257 -44 257 -197c0 -134 -82 -192 -246 -192z" />
    <glyph glyph-name="Scaron.smcp" horiz-adv-x="646" 
d="M147 873h65l103 -119l103 119h64l-118 -175h-99zM345 -20c-202 0 -289 108 -299 229h91c29 -116 113 -148 222 -148c91 0 149 31 149 102c0 70 -77 92 -148 111c-144 39 -272 60 -275 194c-3 141 132 190 243 190c157 0 242 -90 245 -214h-90c-10 109 -96 132 -165 132
c-43 0 -142 -10 -142 -97c0 -65 50 -85 158 -110c107 -25 257 -44 257 -197c0 -134 -82 -192 -246 -192z" />
    <glyph glyph-name="Scedilla.smcp" horiz-adv-x="646" 
d="M309 -51c47 0 78 -26 78 -64c0 -45 -38 -75 -87 -75h-57v45h50c27 0 45 11 45 29c0 16 -18 26 -45 26h-40v39l32 35c-160 19 -230 117 -239 225h91c29 -116 113 -148 222 -148c91 0 149 31 149 102c0 70 -77 92 -148 111c-144 39 -272 60 -275 194
c-3 141 132 190 243 190c157 0 242 -90 245 -214h-90c-10 109 -96 132 -165 132c-43 0 -142 -10 -142 -97c0 -65 50 -85 158 -110c107 -25 257 -44 257 -197c0 -134 -82 -192 -246 -192h-16l-33 -31h13z" />
    <glyph glyph-name="Scommaaccent.smcp" horiz-adv-x="646" 
d="M345 -20c-202 0 -289 108 -299 229h91c29 -116 113 -148 222 -148c91 0 149 31 149 102c0 70 -77 92 -148 111c-144 39 -272 60 -275 194c-3 141 132 190 243 190c157 0 242 -90 245 -214h-90c-10 109 -96 132 -165 132c-43 0 -142 -10 -142 -97c0 -65 50 -85 158 -110
c107 -25 257 -44 257 -197c0 -134 -82 -192 -246 -192zM307 -240h-47l34 170h76z" />
    <glyph glyph-name="T.smcp" horiz-adv-x="576" 
d="M244 0v561h-210v85h507l1 -85h-209v-561h-89z" />
    <glyph glyph-name="Tbar.smcp" horiz-adv-x="576" 
d="M444 288h-111v-288h-89v288h-112v69h112v204h-210v85h507l1 -85h-209v-204h111v-69z" />
    <glyph glyph-name="Tcaron.smcp" horiz-adv-x="576" 
d="M120 881h65l103 -119l103 119h64l-118 -175h-99zM244 0v561h-210v85h507l1 -85h-209v-561h-89z" />
    <glyph glyph-name="uni0162.smcp" horiz-adv-x="576" 
d="M282 -51c47 0 78 -26 78 -64c0 -45 -38 -75 -87 -75h-57v45h50c27 0 45 11 45 29c0 16 -18 26 -45 26h-40v39l47 51h-29v561h-210v85h507l1 -85h-209v-539h12l-12 -12v-10h-11l-53 -51h13z" />
    <glyph glyph-name="uni021A.smcp" horiz-adv-x="576" 
d="M244 0v561h-210v85h507l1 -85h-209v-561h-89zM280 -240h-47l34 170h76z" />
    <glyph glyph-name="U.smcp" horiz-adv-x="680" 
d="M353 -14c-236 0 -257 151 -257 318v342h89v-335c0 -136 13 -241 168 -241c156 0 169 105 169 241v335h88v-342c0 -168 -20 -318 -257 -318z" />
    <glyph glyph-name="Uacute.smcp" horiz-adv-x="680" 
d="M345 881h119l-165 -175h-62zM353 -14c-236 0 -257 151 -257 318v342h89v-335c0 -136 13 -241 168 -241c156 0 169 105 169 241v335h88v-342c0 -168 -20 -318 -257 -318z" />
    <glyph glyph-name="Ucircumflex.smcp" horiz-adv-x="680" 
d="M248 706h-65l118 175h99l118 -175h-64l-103 119zM353 -14c-236 0 -257 151 -257 318v342h89v-335c0 -136 13 -241 168 -241c156 0 169 105 169 241v335h88v-342c0 -168 -20 -318 -257 -318z" />
    <glyph glyph-name="Udieresis.smcp" horiz-adv-x="680" 
d="M310 797h-75v84h75v-84zM463 797h-75v84h75v-84zM353 -14c-236 0 -257 151 -257 318v342h89v-335c0 -136 13 -241 168 -241c156 0 169 105 169 241v335h88v-342c0 -168 -20 -318 -257 -318z" />
    <glyph glyph-name="Ugrave.smcp" horiz-adv-x="680" 
d="M402 706l-165 175h119l108 -175h-62zM353 -14c-236 0 -257 151 -257 318v342h89v-335c0 -136 13 -241 168 -241c156 0 169 105 169 241v335h88v-342c0 -168 -20 -318 -257 -318z" />
    <glyph glyph-name="Uhungarumlaut.smcp" horiz-adv-x="680" 
d="M242 881h119l-165 -175h-62zM448 881h119l-165 -175h-62zM353 -14c-236 0 -257 151 -257 318v342h89v-335c0 -136 13 -241 168 -241c156 0 169 105 169 241v335h88v-342c0 -168 -20 -318 -257 -318z" />
    <glyph glyph-name="Umacron.smcp" horiz-adv-x="680" 
d="M507 841v-70h-312v70h312zM353 -14c-236 0 -257 151 -257 318v342h89v-335c0 -136 13 -241 168 -241c156 0 169 105 169 241v335h88v-342c0 -168 -20 -318 -257 -318z" />
    <glyph glyph-name="Uogonek.smcp" horiz-adv-x="680" 
d="M610 304c0 -164 -19 -311 -241 -318c-38 -34 -51 -62 -51 -84c0 -28 23 -44 66 -44c8 0 17 0 30 2v-59c-13 -2 -28 -3 -47 -3c-81 0 -113 48 -113 88c0 46 37 80 65 101c-204 14 -223 158 -223 317v342h89v-335c0 -136 13 -241 168 -241c156 0 169 105 169 241v335h88
v-342z" />
    <glyph glyph-name="Uring.smcp" horiz-adv-x="680" 
d="M351 730c-51 0 -84 33 -84 83c0 49 33 81 84 81c50 0 83 -32 83 -81c0 -50 -33 -83 -83 -83zM351 775c22 0 37 15 37 37c0 23 -15 37 -37 37c-23 0 -38 -14 -38 -37c0 -22 15 -37 38 -37zM353 -14c-236 0 -257 151 -257 318v342h89v-335c0 -136 13 -241 168 -241
c156 0 169 105 169 241v335h88v-342c0 -168 -20 -318 -257 -318z" />
    <glyph glyph-name="V.smcp" horiz-adv-x="688" 
d="M344 105l220 541h99l-271 -646h-96l-271 646h100z" />
    <glyph glyph-name="W.smcp" horiz-adv-x="997" 
d="M264 105l178 541h114l178 -541l139 541h99l-189 -646h-97l-187 554l-187 -554h-97l-190 646h100z" />
    <glyph glyph-name="Wacute.smcp" horiz-adv-x="997" 
d="M493 881h119l-165 -175h-62zM264 105l178 541h114l178 -541l139 541h99l-189 -646h-97l-187 554l-187 -554h-97l-190 646h100z" />
    <glyph glyph-name="Wcircumflex.smcp" horiz-adv-x="997" 
d="M396 706h-65l118 175h99l118 -175h-64l-103 119zM264 105l178 541h114l178 -541l139 541h99l-189 -646h-97l-187 554l-187 -554h-97l-190 646h100z" />
    <glyph glyph-name="Wdieresis.smcp" horiz-adv-x="997" 
d="M458 797h-75v84h75v-84zM611 797h-75v84h75v-84zM264 105l178 541h114l178 -541l139 541h99l-189 -646h-97l-187 554l-187 -554h-97l-190 646h100z" />
    <glyph glyph-name="Wgrave.smcp" horiz-adv-x="997" 
d="M550 706l-165 175h119l108 -175h-62zM264 105l178 541h114l178 -541l139 541h99l-189 -646h-97l-187 554l-187 -554h-97l-190 646h100z" />
    <glyph glyph-name="X.smcp" horiz-adv-x="629" 
d="M141 0h-107l227 326l-213 320h106l160 -247l160 247h107l-213 -320l227 -326h-108l-173 255z" />
    <glyph glyph-name="Y.smcp" horiz-adv-x="631" 
d="M134 646l182 -340l181 340h102l-239 -422v-224h-90v224l-238 422h102z" />
    <glyph glyph-name="Yacute.smcp" horiz-adv-x="631" 
d="M310 881h119l-165 -175h-62zM134 646l182 -340l181 340h102l-239 -422v-224h-90v224l-238 422h102z" />
    <glyph glyph-name="Ycircumflex.smcp" horiz-adv-x="631" 
d="M213 706h-65l118 175h99l118 -175h-64l-103 119zM134 646l182 -340l181 340h102l-239 -422v-224h-90v224l-238 422h102z" />
    <glyph glyph-name="Ydieresis.smcp" horiz-adv-x="631" 
d="M275 797h-75v84h75v-84zM428 797h-75v84h75v-84zM134 646l182 -340l181 340h102l-239 -422v-224h-90v224l-238 422h102z" />
    <glyph glyph-name="Ygrave.smcp" horiz-adv-x="631" 
d="M367 706l-165 175h119l108 -175h-62zM134 646l182 -340l181 340h102l-239 -422v-224h-90v224l-238 422h102z" />
    <glyph glyph-name="Z.smcp" horiz-adv-x="605" 
d="M49 0v85l372 476h-363v85h467l1 -85l-374 -476h410v-85h-513z" />
    <glyph glyph-name="Zacute.smcp" horiz-adv-x="605" 
d="M299 881h119l-165 -175h-62zM49 0v85l372 476h-363v85h467l1 -85l-374 -476h410v-85h-513z" />
    <glyph glyph-name="Zcaron.smcp" horiz-adv-x="605" 
d="M137 881h65l103 -119l103 119h64l-118 -175h-99zM49 0v85l372 476h-363v85h467l1 -85l-374 -476h410v-85h-513z" />
    <glyph glyph-name="Zdotaccent.smcp" horiz-adv-x="605" 
d="M305 770c-36 0 -65 28 -65 64c0 35 29 63 65 63c34 0 64 -28 64 -63c0 -36 -30 -64 -64 -64zM49 0v85l372 476h-363v85h467l1 -85l-374 -476h410v-85h-513z" />
    <glyph glyph-name="a.dnom" horiz-adv-x="456" 
d="M172 -309c-107 0 -143 66 -143 125c0 39 15 71 47 95c35 26 91 42 214 42h23v24c0 49 -23 83 -90 83c-71 0 -93 -35 -94 -65h-78c1 57 37 132 173 132c103 0 170 -41 170 -178v-254h-74v63h-1c-28 -38 -84 -67 -147 -67zM191 -245c82 0 123 52 123 82v60h-27
c-97 0 -178 -12 -178 -80c0 -39 27 -62 82 -62z" />
    <glyph glyph-name="b.dnom" horiz-adv-x="483" 
d="M263 127c112 0 188 -87 188 -218c0 -133 -75 -222 -185 -222c-55 0 -113 26 -141 65v-52h-77v600h80v-241c32 42 83 68 135 68zM251 -244c72 0 120 60 120 150c0 92 -48 153 -121 153s-122 -53 -122 -133v-46c0 -73 49 -124 123 -124z" />
    <glyph glyph-name="c.dnom" horiz-adv-x="447" 
d="M231 -313c-129 0 -198 97 -198 221c0 129 71 219 197 219c107 0 179 -64 186 -160h-79c-11 63 -48 92 -107 92c-77 0 -118 -60 -118 -151s40 -153 118 -153c59 0 96 38 107 82h79c-8 -73 -70 -150 -185 -150z" />
    <glyph glyph-name="d.dnom" horiz-adv-x="482" 
d="M360 -300v52c-28 -39 -86 -65 -140 -65c-111 0 -185 89 -185 222c0 131 75 218 188 218c52 0 103 -26 134 -68v241h80v-600h-77zM357 -65c0 74 -48 124 -122 124c-73 0 -121 -60 -121 -150c0 -92 49 -153 123 -153c72 0 120 54 120 134v45z" />
    <glyph glyph-name="e.dnom" horiz-adv-x="447" 
d="M231 -313c-129 0 -198 95 -198 221c0 129 72 219 195 219c109 0 188 -72 188 -182v-64l-302 -1c7 -75 47 -125 117 -125c58 0 95 37 106 66h79c-8 -57 -70 -134 -185 -134zM337 -58c0 81 -49 117 -110 117c-60 0 -112 -37 -112 -117h222z" />
    <glyph glyph-name="f.dnom" horiz-adv-x="249" 
d="M17 115h55v63c0 86 31 135 117 135c28 0 47 -4 51 -5v-66c-4 1 -9 3 -25 3c-45 0 -63 -18 -63 -57v-73h85v-69h-85v-346h-80v346h-55v69z" />
    <glyph glyph-name="g.dnom" horiz-adv-x="475" 
d="M438 -271c0 -175 -79 -219 -189 -219c-107 0 -177 42 -197 142h79c13 -52 58 -73 114 -73c86 0 114 49 114 155v26c-32 -50 -81 -73 -137 -73c-119 0 -186 94 -186 224c0 118 55 216 181 216c57 0 109 -21 142 -75v63h79v-386zM359 -65c0 76 -52 124 -124 124
c-81 0 -124 -59 -124 -150c0 -92 44 -153 125 -153c73 0 123 49 123 134v45z" />
    <glyph glyph-name="h.dnom" horiz-adv-x="462" 
d="M128 52c34 57 91 75 138 75c95 0 151 -68 151 -166v-261h-80v237c0 77 -32 122 -93 122c-63 0 -116 -49 -116 -134v-225h-80v600h80v-248z" />
    <glyph glyph-name="i.dnom" horiz-adv-x="183" 
d="M135 216h-87v84h87v-84zM132 -300h-80v415h80v-415z" />
    <glyph glyph-name="j.dnom" horiz-adv-x="208" 
d="M144 216h-88v84h88v-84zM23 -490c-28 0 -51 5 -51 5v68s9 -2 25 -2c45 0 63 19 63 54v480h80v-477c0 -79 -32 -128 -117 -128z" />
    <glyph glyph-name="k.dnom" horiz-adv-x="383" 
d="M128 -300h-80v600h80v-367l140 182h90l-159 -207l175 -208h-91l-155 182v-182z" />
    <glyph glyph-name="l.dnom" horiz-adv-x="176" 
d="M128 -300h-80v600h80v-600z" />
    <glyph glyph-name="m.dnom" horiz-adv-x="763" 
d="M563 127c94 0 148 -56 148 -174v-253h-80v245c0 93 -44 114 -88 114c-70 0 -121 -49 -121 -134v-225h-80v245c0 93 -44 114 -89 114c-69 0 -120 -49 -120 -134v-225h-80v415h80v-63c33 55 84 75 141 75c65 0 111 -27 133 -83c44 65 101 83 156 83z" />
    <glyph glyph-name="n.dnom" horiz-adv-x="474" 
d="M133 52c34 57 91 75 138 75c94 0 151 -68 151 -167v-260h-80v237c0 77 -33 122 -93 122c-63 0 -116 -49 -116 -134v-225h-80v415h80v-63z" />
    <glyph glyph-name="o.dnom" horiz-adv-x="468" 
d="M235 -313c-121 0 -202 97 -202 221c0 128 81 219 202 219c122 0 200 -91 200 -219c0 -124 -78 -221 -200 -221zM234 -245c78 0 122 61 122 153c0 91 -44 151 -122 151s-122 -60 -122 -151c0 -92 44 -153 122 -153z" />
    <glyph glyph-name="p.dnom" horiz-adv-x="488" 
d="M268 127c112 0 187 -87 187 -218c0 -133 -74 -222 -184 -222c-55 0 -110 26 -138 65v-242h-80v605h78v-56c31 42 85 68 137 68zM256 -244c72 0 120 60 120 150c0 92 -48 153 -121 153s-122 -53 -122 -133v-46c0 -73 49 -124 123 -124z" />
    <glyph glyph-name="q.dnom" horiz-adv-x="496" 
d="M355 -490v242c-28 -39 -83 -65 -136 -65c-112 0 -186 89 -186 222c0 131 75 218 188 218c51 0 105 -26 138 -68v56h76v-605h-80zM355 -65c0 74 -49 124 -123 124c-72 0 -120 -60 -120 -150c0 -92 48 -153 121 -153c74 0 122 54 122 134v45z" />
    <glyph glyph-name="r.dnom" horiz-adv-x="283" 
d="M128 40c17 33 43 58 74 72c23 10 46 13 76 13v-83h-15c-74 0 -131 -53 -131 -139v-203h-80v415h76v-75z" />
    <glyph glyph-name="s.dnom" horiz-adv-x="401" 
d="M213 -313c-121 0 -180 66 -187 149h79c14 -63 56 -83 112 -83c46 0 75 18 75 57s-42 51 -82 63c-87 25 -161 47 -162 131c-1 90 79 123 154 123c101 0 155 -56 158 -139h-78c-6 59 -49 74 -85 74c-26 0 -73 -8 -73 -53c0 -38 35 -50 101 -68c64 -19 144 -34 144 -126
c0 -88 -55 -128 -156 -128z" />
    <glyph glyph-name="t.dnom" horiz-adv-x="272" 
d="M199 -308c-95 0 -127 41 -127 120v234h-55v60c48 0 58 22 58 70v45h76v-106h92v-69h-92v-217c0 -53 19 -68 70 -68h26v-66c-18 -2 -32 -3 -48 -3z" />
    <glyph glyph-name="u.dnom" horiz-adv-x="468" 
d="M185 -313c-92 0 -147 56 -147 175v253h80v-245c0 -93 43 -115 88 -115c70 0 121 50 121 135v225h80v-415h-80v70c-33 -62 -85 -83 -142 -83z" />
    <glyph glyph-name="v.dnom" horiz-adv-x="412" 
d="M190 -159l16 -45h1l15 45l93 274h87l-158 -415h-76l-158 415h87z" />
    <glyph glyph-name="w.dnom" horiz-adv-x="693" 
d="M206 -204h1l97 319h86l97 -319h1l108 319h87l-157 -415h-77l-101 326h-2l-102 -326h-76l-158 415h87z" />
    <glyph glyph-name="x.dnom" horiz-adv-x="377" 
d="M278 -300l-89 150l-91 -150h-88l130 208l-130 207h88l88 -154l92 154h90l-132 -207l132 -208h-90z" />
    <glyph glyph-name="y.dnom" horiz-adv-x="412" 
d="M97 115l95 -282l14 -39h1l14 39l94 282h87l-145 -378l-77 -227h-79l67 190l-158 415h87z" />
    <glyph glyph-name="z.dnom" horiz-adv-x="430" 
d="M26 -300v68l273 279h-269v68h361l1 -68l-273 -279h288v-68h-381z" />
    <glyph glyph-name="a.numr" horiz-adv-x="456" 
d="M172 336c-107 0 -143 66 -143 125c0 39 15 71 47 95c35 26 91 42 214 42h23v24c0 49 -23 83 -90 83c-71 0 -93 -35 -94 -65h-78c1 57 37 132 173 132c103 0 170 -41 170 -178v-254h-74v63h-1c-28 -38 -84 -67 -147 -67zM191 400c82 0 123 52 123 82v60h-27
c-97 0 -178 -12 -178 -80c0 -39 27 -62 82 -62z" />
    <glyph glyph-name="b.numr" horiz-adv-x="483" 
d="M263 772c112 0 188 -87 188 -218c0 -133 -75 -222 -185 -222c-55 0 -113 26 -141 65v-52h-77v600h80v-241c32 42 83 68 135 68zM251 401c72 0 120 60 120 150c0 92 -48 153 -121 153s-122 -53 -122 -133v-46c0 -73 49 -124 123 -124z" />
    <glyph glyph-name="c.numr" horiz-adv-x="447" 
d="M231 332c-129 0 -198 97 -198 221c0 129 71 219 197 219c107 0 179 -64 186 -160h-79c-11 63 -48 92 -107 92c-77 0 -118 -60 -118 -151s40 -153 118 -153c59 0 96 38 107 82h79c-8 -73 -70 -150 -185 -150z" />
    <glyph glyph-name="d.numr" horiz-adv-x="482" 
d="M360 345v52c-28 -39 -86 -65 -140 -65c-111 0 -185 89 -185 222c0 131 75 218 188 218c52 0 103 -26 134 -68v241h80v-600h-77zM357 580c0 74 -48 124 -122 124c-73 0 -121 -60 -121 -150c0 -92 49 -153 123 -153c72 0 120 54 120 134v45z" />
    <glyph glyph-name="e.numr" horiz-adv-x="447" 
d="M231 332c-129 0 -198 95 -198 221c0 129 72 219 195 219c109 0 188 -72 188 -182v-64l-302 -1c7 -75 47 -125 117 -125c58 0 95 37 106 66h79c-8 -57 -70 -134 -185 -134zM337 587c0 81 -49 117 -110 117c-60 0 -112 -37 -112 -117h222z" />
    <glyph glyph-name="f.numr" horiz-adv-x="249" 
d="M17 760h55v63c0 86 31 135 117 135c28 0 47 -4 51 -5v-66c-4 1 -9 3 -25 3c-45 0 -63 -18 -63 -57v-73h85v-69h-85v-346h-80v346h-55v69z" />
    <glyph glyph-name="g.numr" horiz-adv-x="475" 
d="M438 374c0 -175 -79 -219 -189 -219c-107 0 -177 42 -197 142h79c13 -52 58 -73 114 -73c86 0 114 49 114 155v26c-32 -50 -81 -73 -137 -73c-119 0 -186 94 -186 224c0 118 55 216 181 216c57 0 109 -21 142 -75v63h79v-386zM359 580c0 76 -52 124 -124 124
c-81 0 -124 -59 -124 -150c0 -92 44 -153 125 -153c73 0 123 49 123 134v45z" />
    <glyph glyph-name="h.numr" horiz-adv-x="462" 
d="M128 697c34 57 91 75 138 75c95 0 151 -68 151 -166v-261h-80v237c0 77 -32 122 -93 122c-63 0 -116 -49 -116 -134v-225h-80v600h80v-248z" />
    <glyph glyph-name="i.numr" horiz-adv-x="183" 
d="M135 861h-87v84h87v-84zM132 345h-80v415h80v-415z" />
    <glyph glyph-name="j.numr" horiz-adv-x="192" 
d="M144 861h-88v84h88v-84zM23 155c-28 0 -51 5 -51 5v68s9 -2 25 -2c45 0 63 19 63 54v480h80v-477c0 -79 -32 -128 -117 -128z" />
    <glyph glyph-name="k.numr" horiz-adv-x="383" 
d="M128 345h-80v600h80v-367l140 182h90l-159 -207l175 -208h-91l-155 182v-182z" />
    <glyph glyph-name="l.numr" horiz-adv-x="176" 
d="M128 345h-80v600h80v-600z" />
    <glyph glyph-name="m.numr" horiz-adv-x="763" 
d="M563 772c94 0 148 -56 148 -174v-253h-80v245c0 93 -44 114 -88 114c-70 0 -121 -49 -121 -134v-225h-80v245c0 93 -44 114 -89 114c-69 0 -120 -49 -120 -134v-225h-80v415h80v-63c33 55 84 75 141 75c65 0 111 -27 133 -83c44 65 101 83 156 83z" />
    <glyph glyph-name="n.numr" horiz-adv-x="474" 
d="M133 697c34 57 91 75 138 75c94 0 151 -68 151 -167v-260h-80v237c0 77 -33 122 -93 122c-63 0 -116 -49 -116 -134v-225h-80v415h80v-63z" />
    <glyph glyph-name="o.numr" horiz-adv-x="468" 
d="M235 332c-121 0 -202 97 -202 221c0 128 81 219 202 219c122 0 200 -91 200 -219c0 -124 -78 -221 -200 -221zM234 400c78 0 122 61 122 153c0 91 -44 151 -122 151s-122 -60 -122 -151c0 -92 44 -153 122 -153z" />
    <glyph glyph-name="p.numr" horiz-adv-x="488" 
d="M268 772c112 0 187 -87 187 -218c0 -133 -74 -222 -184 -222c-55 0 -110 26 -138 65v-242h-80v605h78v-56c31 42 85 68 137 68zM256 401c72 0 120 60 120 150c0 92 -48 153 -121 153s-122 -53 -122 -133v-46c0 -73 49 -124 123 -124z" />
    <glyph glyph-name="q.numr" horiz-adv-x="496" 
d="M355 155v242c-28 -39 -83 -65 -136 -65c-112 0 -186 89 -186 222c0 131 75 218 188 218c51 0 105 -26 138 -68v56h76v-605h-80zM355 580c0 74 -49 124 -123 124c-72 0 -120 -60 -120 -150c0 -92 48 -153 121 -153c74 0 122 54 122 134v45z" />
    <glyph glyph-name="r.numr" horiz-adv-x="283" 
d="M128 685c17 33 43 58 74 72c23 10 46 13 76 13v-83h-15c-74 0 -131 -53 -131 -139v-203h-80v415h76v-75z" />
    <glyph glyph-name="s.numr" horiz-adv-x="401" 
d="M213 332c-121 0 -180 66 -187 149h79c14 -63 56 -83 112 -83c46 0 75 18 75 57s-42 51 -82 63c-87 25 -161 47 -162 131c-1 90 79 123 154 123c101 0 155 -56 158 -139h-78c-6 59 -49 74 -85 74c-26 0 -73 -8 -73 -53c0 -38 35 -50 101 -68c64 -19 144 -34 144 -126
c0 -88 -55 -128 -156 -128z" />
    <glyph glyph-name="t.numr" horiz-adv-x="272" 
d="M199 337c-95 0 -127 41 -127 120v234h-55v60c48 0 58 22 58 70v45h76v-106h92v-69h-92v-217c0 -53 19 -68 70 -68h26v-66c-18 -2 -32 -3 -48 -3z" />
    <glyph glyph-name="u.numr" horiz-adv-x="468" 
d="M185 332c-92 0 -147 56 -147 175v253h80v-245c0 -93 43 -115 88 -115c70 0 121 50 121 135v225h80v-415h-80v70c-33 -62 -85 -83 -142 -83z" />
    <glyph glyph-name="v.numr" horiz-adv-x="412" 
d="M190 486l16 -45h1l15 45l93 274h87l-158 -415h-76l-158 415h87z" />
    <glyph glyph-name="w.numr" horiz-adv-x="693" 
d="M206 441h1l97 319h86l97 -319h1l108 319h87l-157 -415h-77l-101 326h-2l-102 -326h-76l-158 415h87z" />
    <glyph glyph-name="x.numr" horiz-adv-x="377" 
d="M278 345l-89 150l-91 -150h-88l130 208l-130 207h88l88 -154l92 154h90l-132 -207l132 -208h-90z" />
    <glyph glyph-name="y.numr" horiz-adv-x="412" 
d="M97 760l95 -282l14 -39h1l14 39l94 282h87l-145 -378l-77 -227h-79l67 190l-158 415h87z" />
    <glyph glyph-name="z.numr" horiz-adv-x="430" 
d="M26 345v68l273 279h-269v68h361l1 -68l-273 -279h288v-68h-381z" />
    <glyph glyph-name="a.subs" horiz-adv-x="456" 
d="M172 -309c-107 0 -143 66 -143 125c0 39 15 71 47 95c35 26 91 42 214 42h23v24c0 49 -23 83 -90 83c-71 0 -93 -35 -94 -65h-78c1 57 37 132 173 132c103 0 170 -41 170 -178v-254h-74v63h-1c-28 -38 -84 -67 -147 -67zM191 -245c82 0 123 52 123 82v60h-27
c-97 0 -178 -12 -178 -80c0 -39 27 -62 82 -62z" />
    <glyph glyph-name="b.subs" horiz-adv-x="483" 
d="M263 127c112 0 188 -87 188 -218c0 -133 -75 -222 -185 -222c-55 0 -113 26 -141 65v-52h-77v600h80v-241c32 42 83 68 135 68zM251 -244c72 0 120 60 120 150c0 92 -48 153 -121 153s-122 -53 -122 -133v-46c0 -73 49 -124 123 -124z" />
    <glyph glyph-name="c.subs" horiz-adv-x="447" 
d="M231 -313c-129 0 -198 97 -198 221c0 129 71 219 197 219c107 0 179 -64 186 -160h-79c-11 63 -48 92 -107 92c-77 0 -118 -60 -118 -151s40 -153 118 -153c59 0 96 38 107 82h79c-8 -73 -70 -150 -185 -150z" />
    <glyph glyph-name="d.subs" horiz-adv-x="482" 
d="M360 -300v52c-28 -39 -86 -65 -140 -65c-111 0 -185 89 -185 222c0 131 75 218 188 218c52 0 103 -26 134 -68v241h80v-600h-77zM357 -65c0 74 -48 124 -122 124c-73 0 -121 -60 -121 -150c0 -92 49 -153 123 -153c72 0 120 54 120 134v45z" />
    <glyph glyph-name="e.subs" horiz-adv-x="447" 
d="M231 -313c-129 0 -198 95 -198 221c0 129 72 219 195 219c109 0 188 -72 188 -182v-64l-302 -1c7 -75 47 -125 117 -125c58 0 95 37 106 66h79c-8 -57 -70 -134 -185 -134zM337 -58c0 81 -49 117 -110 117c-60 0 -112 -37 -112 -117h222z" />
    <glyph glyph-name="f.subs" horiz-adv-x="249" 
d="M17 115h55v63c0 86 31 135 117 135c28 0 47 -4 51 -5v-66c-4 1 -9 3 -25 3c-45 0 -63 -18 -63 -57v-73h85v-69h-85v-346h-80v346h-55v69z" />
    <glyph glyph-name="g.subs" horiz-adv-x="475" 
d="M438 -271c0 -175 -79 -219 -189 -219c-107 0 -177 42 -197 142h79c13 -52 58 -73 114 -73c86 0 114 49 114 155v26c-32 -50 -81 -73 -137 -73c-119 0 -186 94 -186 224c0 118 55 216 181 216c57 0 109 -21 142 -75v63h79v-386zM359 -65c0 76 -52 124 -124 124
c-81 0 -124 -59 -124 -150c0 -92 44 -153 125 -153c73 0 123 49 123 134v45z" />
    <glyph glyph-name="h.subs" horiz-adv-x="462" 
d="M128 52c34 57 91 75 138 75c95 0 151 -68 151 -166v-261h-80v237c0 77 -32 122 -93 122c-63 0 -116 -49 -116 -134v-225h-80v600h80v-248z" />
    <glyph glyph-name="i.subs" horiz-adv-x="183" 
d="M135 216h-87v84h87v-84zM132 -300h-80v415h80v-415z" />
    <glyph glyph-name="j.subs" horiz-adv-x="192" 
d="M144 216h-88v84h88v-84zM23 -490c-28 0 -51 5 -51 5v68s9 -2 25 -2c45 0 63 19 63 54v480h80v-477c0 -79 -32 -128 -117 -128z" />
    <glyph glyph-name="k.subs" horiz-adv-x="383" 
d="M128 -300h-80v600h80v-367l140 182h90l-159 -207l175 -208h-91l-155 182v-182z" />
    <glyph glyph-name="l.subs" horiz-adv-x="176" 
d="M128 -300h-80v600h80v-600z" />
    <glyph glyph-name="m.subs" horiz-adv-x="763" 
d="M563 127c94 0 148 -56 148 -174v-253h-80v245c0 93 -44 114 -88 114c-70 0 -121 -49 -121 -134v-225h-80v245c0 93 -44 114 -89 114c-69 0 -120 -49 -120 -134v-225h-80v415h80v-63c33 55 84 75 141 75c65 0 111 -27 133 -83c44 65 101 83 156 83z" />
    <glyph glyph-name="n.subs" horiz-adv-x="474" 
d="M133 52c34 57 91 75 138 75c94 0 151 -68 151 -167v-260h-80v237c0 77 -33 122 -93 122c-63 0 -116 -49 -116 -134v-225h-80v415h80v-63z" />
    <glyph glyph-name="o.subs" horiz-adv-x="468" 
d="M235 -313c-121 0 -202 97 -202 221c0 128 81 219 202 219c122 0 200 -91 200 -219c0 -124 -78 -221 -200 -221zM234 -245c78 0 122 61 122 153c0 91 -44 151 -122 151s-122 -60 -122 -151c0 -92 44 -153 122 -153z" />
    <glyph glyph-name="p.subs" horiz-adv-x="488" 
d="M268 127c112 0 187 -87 187 -218c0 -133 -74 -222 -184 -222c-55 0 -110 26 -138 65v-242h-80v605h78v-56c31 42 85 68 137 68zM256 -244c72 0 120 60 120 150c0 92 -48 153 -121 153s-122 -53 -122 -133v-46c0 -73 49 -124 123 -124z" />
    <glyph glyph-name="q.subs" horiz-adv-x="496" 
d="M355 -490v242c-28 -39 -83 -65 -136 -65c-112 0 -186 89 -186 222c0 131 75 218 188 218c51 0 105 -26 138 -68v56h76v-605h-80zM355 -65c0 74 -49 124 -123 124c-72 0 -120 -60 -120 -150c0 -92 48 -153 121 -153c74 0 122 54 122 134v45z" />
    <glyph glyph-name="r.subs" horiz-adv-x="283" 
d="M128 40c17 33 43 58 74 72c23 10 46 13 76 13v-83h-15c-74 0 -131 -53 -131 -139v-203h-80v415h76v-75z" />
    <glyph glyph-name="s.subs" horiz-adv-x="401" 
d="M213 -313c-121 0 -180 66 -187 149h79c14 -63 56 -83 112 -83c46 0 75 18 75 57s-42 51 -82 63c-87 25 -161 47 -162 131c-1 90 79 123 154 123c101 0 155 -56 158 -139h-78c-6 59 -49 74 -85 74c-26 0 -73 -8 -73 -53c0 -38 35 -50 101 -68c64 -19 144 -34 144 -126
c0 -88 -55 -128 -156 -128z" />
    <glyph glyph-name="t.subs" horiz-adv-x="272" 
d="M199 -308c-95 0 -127 41 -127 120v234h-55v60c48 0 58 22 58 70v45h76v-106h92v-69h-92v-217c0 -53 19 -68 70 -68h26v-66c-18 -2 -32 -3 -48 -3z" />
    <glyph glyph-name="u.subs" horiz-adv-x="468" 
d="M185 -313c-92 0 -147 56 -147 175v253h80v-245c0 -93 43 -115 88 -115c70 0 121 50 121 135v225h80v-415h-80v70c-33 -62 -85 -83 -142 -83z" />
    <glyph glyph-name="v.subs" horiz-adv-x="412" 
d="M190 -159l16 -45h1l15 45l93 274h87l-158 -415h-76l-158 415h87z" />
    <glyph glyph-name="w.subs" horiz-adv-x="693" 
d="M206 -204h1l97 319h86l97 -319h1l108 319h87l-157 -415h-77l-101 326h-2l-102 -326h-76l-158 415h87z" />
    <glyph glyph-name="x.subs" horiz-adv-x="377" 
d="M278 -300l-89 150l-91 -150h-88l130 208l-130 207h88l88 -154l92 154h90l-132 -207l132 -208h-90z" />
    <glyph glyph-name="y.subs" horiz-adv-x="412" 
d="M97 115l95 -282l14 -39h1l14 39l94 282h87l-145 -378l-77 -227h-79l67 190l-158 415h87z" />
    <glyph glyph-name="z.subs" horiz-adv-x="430" 
d="M26 -300v68l273 279h-269v68h361l1 -68l-273 -279h288v-68h-381z" />
    <glyph glyph-name="a.sups" horiz-adv-x="456" 
d="M172 336c-107 0 -143 66 -143 125c0 39 15 71 47 95c35 26 91 42 214 42h23v24c0 49 -23 83 -90 83c-71 0 -93 -35 -94 -65h-78c1 57 37 132 173 132c103 0 170 -41 170 -178v-254h-74v63h-1c-28 -38 -84 -67 -147 -67zM191 400c82 0 123 52 123 82v60h-27
c-97 0 -178 -12 -178 -80c0 -39 27 -62 82 -62z" />
    <glyph glyph-name="b.sups" horiz-adv-x="483" 
d="M263 772c112 0 188 -87 188 -218c0 -133 -75 -222 -185 -222c-55 0 -113 26 -141 65v-52h-77v600h80v-241c32 42 83 68 135 68zM251 401c72 0 120 60 120 150c0 92 -48 153 -121 153s-122 -53 -122 -133v-46c0 -73 49 -124 123 -124z" />
    <glyph glyph-name="c.sups" horiz-adv-x="447" 
d="M231 332c-129 0 -198 97 -198 221c0 129 71 219 197 219c107 0 179 -64 186 -160h-79c-11 63 -48 92 -107 92c-77 0 -118 -60 -118 -151s40 -153 118 -153c59 0 96 38 107 82h79c-8 -73 -70 -150 -185 -150z" />
    <glyph glyph-name="d.sups" horiz-adv-x="482" 
d="M360 345v52c-28 -39 -86 -65 -140 -65c-111 0 -185 89 -185 222c0 131 75 218 188 218c52 0 103 -26 134 -68v241h80v-600h-77zM357 580c0 74 -48 124 -122 124c-73 0 -121 -60 -121 -150c0 -92 49 -153 123 -153c72 0 120 54 120 134v45z" />
    <glyph glyph-name="e.sups" horiz-adv-x="447" 
d="M231 332c-129 0 -198 95 -198 221c0 129 72 219 195 219c109 0 188 -72 188 -182v-64l-302 -1c7 -75 47 -125 117 -125c58 0 95 37 106 66h79c-8 -57 -70 -134 -185 -134zM337 587c0 81 -49 117 -110 117c-60 0 -112 -37 -112 -117h222z" />
    <glyph glyph-name="f.sups" horiz-adv-x="249" 
d="M17 760h55v63c0 86 31 135 117 135c28 0 47 -4 51 -5v-66c-4 1 -9 3 -25 3c-45 0 -63 -18 -63 -57v-73h85v-69h-85v-346h-80v346h-55v69z" />
    <glyph glyph-name="g.sups" horiz-adv-x="475" 
d="M438 374c0 -175 -79 -219 -189 -219c-107 0 -177 42 -197 142h79c13 -52 58 -73 114 -73c86 0 114 49 114 155v26c-32 -50 -81 -73 -137 -73c-119 0 -186 94 -186 224c0 118 55 216 181 216c57 0 109 -21 142 -75v63h79v-386zM359 580c0 76 -52 124 -124 124
c-81 0 -124 -59 -124 -150c0 -92 44 -153 125 -153c73 0 123 49 123 134v45z" />
    <glyph glyph-name="h.sups" horiz-adv-x="462" 
d="M128 697c34 57 91 75 138 75c95 0 151 -68 151 -166v-261h-80v237c0 77 -32 122 -93 122c-63 0 -116 -49 -116 -134v-225h-80v600h80v-248z" />
    <glyph glyph-name="i.sups" horiz-adv-x="183" 
d="M135 861h-87v84h87v-84zM132 345h-80v415h80v-415z" />
    <glyph glyph-name="j.sups" horiz-adv-x="192" 
d="M144 861h-88v84h88v-84zM23 155c-28 0 -51 5 -51 5v68s9 -2 25 -2c45 0 63 19 63 54v480h80v-477c0 -79 -32 -128 -117 -128z" />
    <glyph glyph-name="k.sups" horiz-adv-x="383" 
d="M128 345h-80v600h80v-367l140 182h90l-159 -207l175 -208h-91l-155 182v-182z" />
    <glyph glyph-name="l.sups" horiz-adv-x="176" 
d="M128 345h-80v600h80v-600z" />
    <glyph glyph-name="m.sups" horiz-adv-x="763" 
d="M563 772c94 0 148 -56 148 -174v-253h-80v245c0 93 -44 114 -88 114c-70 0 -121 -49 -121 -134v-225h-80v245c0 93 -44 114 -89 114c-69 0 -120 -49 -120 -134v-225h-80v415h80v-63c33 55 84 75 141 75c65 0 111 -27 133 -83c44 65 101 83 156 83z" />
    <glyph glyph-name="n.sups" horiz-adv-x="474" 
d="M133 697c34 57 91 75 138 75c94 0 151 -68 151 -167v-260h-80v237c0 77 -33 122 -93 122c-63 0 -116 -49 -116 -134v-225h-80v415h80v-63z" />
    <glyph glyph-name="o.sups" horiz-adv-x="468" 
d="M235 332c-121 0 -202 97 -202 221c0 128 81 219 202 219c122 0 200 -91 200 -219c0 -124 -78 -221 -200 -221zM234 400c78 0 122 61 122 153c0 91 -44 151 -122 151s-122 -60 -122 -151c0 -92 44 -153 122 -153z" />
    <glyph glyph-name="p.sups" horiz-adv-x="488" 
d="M268 772c112 0 187 -87 187 -218c0 -133 -74 -222 -184 -222c-55 0 -110 26 -138 65v-242h-80v605h78v-56c31 42 85 68 137 68zM256 401c72 0 120 60 120 150c0 92 -48 153 -121 153s-122 -53 -122 -133v-46c0 -73 49 -124 123 -124z" />
    <glyph glyph-name="q.sups" horiz-adv-x="496" 
d="M355 155v242c-28 -39 -83 -65 -136 -65c-112 0 -186 89 -186 222c0 131 75 218 188 218c51 0 105 -26 138 -68v56h76v-605h-80zM355 580c0 74 -49 124 -123 124c-72 0 -120 -60 -120 -150c0 -92 48 -153 121 -153c74 0 122 54 122 134v45z" />
    <glyph glyph-name="r.sups" horiz-adv-x="283" 
d="M128 685c17 33 43 58 74 72c23 10 46 13 76 13v-83h-15c-74 0 -131 -53 -131 -139v-203h-80v415h76v-75z" />
    <glyph glyph-name="s.sups" horiz-adv-x="401" 
d="M213 332c-121 0 -180 66 -187 149h79c14 -63 56 -83 112 -83c46 0 75 18 75 57s-42 51 -82 63c-87 25 -161 47 -162 131c-1 90 79 123 154 123c101 0 155 -56 158 -139h-78c-6 59 -49 74 -85 74c-26 0 -73 -8 -73 -53c0 -38 35 -50 101 -68c64 -19 144 -34 144 -126
c0 -88 -55 -128 -156 -128z" />
    <glyph glyph-name="t.sups" horiz-adv-x="272" 
d="M199 337c-95 0 -127 41 -127 120v234h-55v60c48 0 58 22 58 70v45h76v-106h92v-69h-92v-217c0 -53 19 -68 70 -68h26v-66c-18 -2 -32 -3 -48 -3z" />
    <glyph glyph-name="u.sups" horiz-adv-x="468" 
d="M185 332c-92 0 -147 56 -147 175v253h80v-245c0 -93 43 -115 88 -115c70 0 121 50 121 135v225h80v-415h-80v70c-33 -62 -85 -83 -142 -83z" />
    <glyph glyph-name="v.sups" horiz-adv-x="412" 
d="M190 486l16 -45h1l15 45l93 274h87l-158 -415h-76l-158 415h87z" />
    <glyph glyph-name="w.sups" horiz-adv-x="693" 
d="M206 441h1l97 319h86l97 -319h1l108 319h87l-157 -415h-77l-101 326h-2l-102 -326h-76l-158 415h87z" />
    <glyph glyph-name="x.sups" horiz-adv-x="377" 
d="M278 345l-89 150l-91 -150h-88l130 208l-130 207h88l88 -154l92 154h90l-132 -207l132 -208h-90z" />
    <glyph glyph-name="y.sups" horiz-adv-x="412" 
d="M97 760l95 -282l14 -39h1l14 39l94 282h87l-145 -378l-77 -227h-79l67 190l-158 415h87z" />
    <glyph glyph-name="z.sups" horiz-adv-x="430" 
d="M26 345v68l273 279h-269v68h361l1 -68l-273 -279h288v-68h-381z" />
    <glyph glyph-name="zero" unicode="0" horiz-adv-x="733" 
d="M368 -16c-225 0 -311 189 -311 396s86 396 311 396c224 0 308 -189 308 -396s-84 -396 -308 -396zM366 67c158 0 225 143 225 313s-67 313 -225 313c-157 0 -224 -143 -224 -313s67 -313 224 -313z" />
    <glyph glyph-name="one" unicode="1" horiz-adv-x="356" 
d="M27 760h236v-760h-85v675h-151v85z" />
    <glyph glyph-name="two" unicode="2" horiz-adv-x="708" 
d="M99 84c176 109 258 166 318 217c99 85 134 154 134 230c0 103 -68 165 -188 165c-143 0 -222 -86 -222 -203c0 -17 2 -28 10 -60h-84c-8 31 -10 44 -10 67c0 170 113 276 303 276c175 0 282 -92 282 -243c0 -108 -53 -197 -172 -297c-50 -42 -112 -86 -223 -152h405v-85
h-553v85z" />
    <glyph glyph-name="three" unicode="3" horiz-adv-x="708" 
d="M345 -16c-149 0 -258 60 -288 176h88c26 -69 102 -96 208 -96c175 0 214 74 214 161c0 118 -74 172 -261 172h-61v89l240 187h-375v87h480v-95l-249 -188h17c181 0 294 -86 294 -248c0 -116 -59 -245 -307 -245z" />
    <glyph glyph-name="four" unicode="4" horiz-adv-x="693" 
d="M474 0h-85v173h-332v95l286 492h93l-287 -502h240v198h85v-198h162v-85h-162v-173z" />
    <glyph glyph-name="five" unicode="5" horiz-adv-x="701" 
d="M335 -16c-154 0 -269 68 -278 166h92c5 -52 89 -85 183 -85c142 0 226 75 226 187c0 115 -87 192 -207 192c-94 0 -158 -49 -181 -110h-100l110 426h399v-87h-339l-52 -204c34 35 106 58 180 58c165 0 276 -113 276 -273c0 -163 -118 -270 -309 -270z" />
    <glyph glyph-name="six" unicode="6" horiz-adv-x="663" 
d="M328 -15c-197 0 -271 142 -271 355c0 257 111 434 293 434c118 0 207 -70 218 -176h-92c-8 60 -65 98 -128 98c-114 0 -191 -120 -207 -298c45 71 118 114 214 114c149 0 252 -103 252 -259c0 -162 -108 -268 -279 -268zM336 65c110 0 187 72 187 183
c0 110 -76 182 -187 182s-187 -71 -187 -182c0 -110 75 -183 187 -183z" />
    <glyph glyph-name="seven" unicode="7" horiz-adv-x="580" 
d="M57 760h467v-85l-326 -675h-92l328 675h-377v85z" />
    <glyph glyph-name="eight" unicode="8" horiz-adv-x="704" 
d="M353 -18c-216 0 -296 126 -296 234c0 81 38 152 140 190c-84 49 -104 108 -104 155c0 101 80 212 260 212c186 0 259 -110 259 -206c0 -52 -21 -112 -104 -161c101 -38 139 -107 139 -190c0 -108 -76 -234 -294 -234zM352 441c126 0 169 59 169 124
c0 64 -43 128 -169 128s-172 -64 -172 -128c0 -65 46 -124 172 -124zM352 61c162 0 209 85 209 149c0 70 -46 148 -209 148c-159 0 -210 -69 -210 -148c0 -64 47 -149 210 -149z" />
    <glyph glyph-name="nine" unicode="9" horiz-adv-x="697" 
d="M331 -16c-145 0 -255 68 -270 173h92c8 -56 77 -94 174 -94c130 0 230 107 230 282v17c-52 -65 -150 -109 -241 -109c-150 0 -260 101 -260 261c0 162 124 262 288 262c174 0 297 -102 297 -369c0 -256 -129 -423 -310 -423zM341 335c126 0 210 70 210 176
c0 111 -84 184 -210 184c-124 0 -207 -73 -207 -184c0 -106 83 -176 207 -176z" />
    <glyph glyph-name="zero.lf" horiz-adv-x="733" 
d="M368 -16c-225 0 -311 189 -311 396s86 396 311 396c224 0 308 -189 308 -396s-84 -396 -308 -396zM366 67c158 0 225 143 225 313s-67 313 -225 313c-157 0 -224 -143 -224 -313s67 -313 224 -313z" />
    <glyph glyph-name="one.lf" horiz-adv-x="733" 
d="M57 0v85h267v590h-239v85h325v-675h266v-85h-619z" />
    <glyph glyph-name="two.lf" horiz-adv-x="733" 
d="M99 84c187 115 244 159 303 208c92 75 162 140 162 241c0 92 -67 163 -203 163c-161 0 -220 -100 -220 -212c0 -28 4 -60 11 -82h-85c-6 23 -10 52 -10 87c0 159 83 287 303 287c195 0 289 -101 289 -247c0 -86 -31 -177 -198 -306c-52 -40 -119 -87 -204 -139h429v-85
h-577v85z" />
    <glyph glyph-name="three.lf" horiz-adv-x="740" 
d="M323 -16c-156 0 -266 60 -296 176h89c25 -69 101 -95 207 -95c178 0 239 74 239 163c0 115 -98 169 -305 169h-60v81l288 195h-392v87h511v-95l-301 -197h8c212 0 336 -89 336 -233c0 -119 -84 -251 -324 -251z" />
    <glyph glyph-name="four.lf" horiz-adv-x="740" 
d="M475 0h-85v173h-363v95l308 492h93l-308 -502h270v198h85v-198h172v-85h-172v-173z" />
    <glyph glyph-name="five.lf" horiz-adv-x="740" 
d="M318 -16c-176 0 -280 68 -291 166h92c8 -53 92 -85 196 -85c185 0 246 102 246 200c0 104 -70 197 -221 197c-110 0 -178 -50 -211 -110h-100l116 408h403v-87h-349l-58 -208c44 59 110 80 197 80c219 0 309 -127 309 -281c0 -150 -87 -280 -329 -280z" />
    <glyph glyph-name="six.lf" horiz-adv-x="740" 
d="M344 -16c-189 0 -317 120 -317 375c0 235 110 417 331 417c136 0 237 -71 249 -177h-93c-7 59 -70 98 -158 98c-145 0 -214 -107 -233 -255c50 61 138 105 240 105c164 0 284 -113 284 -281c0 -169 -120 -282 -303 -282zM345 65c131 0 219 82 219 201s-88 198 -219 198
c-130 0 -216 -78 -216 -198s86 -201 216 -201z" />
    <glyph glyph-name="seven.lf" horiz-adv-x="740" 
d="M27 760h620v-84l-358 -676h-95l353 675h-520v85z" />
    <glyph glyph-name="eight.lf" horiz-adv-x="740" 
d="M338 -16c-233 0 -311 123 -311 232c0 79 39 152 138 191c-81 43 -102 104 -102 161c0 106 77 208 275 208c199 0 274 -102 274 -208c0 -57 -21 -118 -102 -161c96 -39 137 -108 137 -190c0 -111 -77 -233 -309 -233zM337 442c142 0 187 65 187 127s-45 127 -187 127
s-187 -65 -187 -127s45 -127 187 -127zM337 61c177 0 223 87 223 154c0 68 -47 143 -223 143s-223 -75 -223 -143c0 -67 46 -154 223 -154z" />
    <glyph glyph-name="nine.lf" horiz-adv-x="740" 
d="M304 -16c-144 0 -253 68 -266 172h94c8 -58 92 -93 179 -93c152 0 240 106 245 263c-49 -64 -145 -107 -248 -107c-167 0 -283 112 -283 278c0 168 119 279 299 279c194 0 323 -127 323 -372c0 -254 -139 -420 -343 -420zM326 302c132 0 225 79 225 196
c0 118 -93 197 -226 197c-132 0 -215 -79 -215 -197c0 -117 83 -196 216 -196z" />
    <glyph glyph-name="zero.osf" horiz-adv-x="658" 
d="M331 -16c-166 0 -276 118 -276 296c0 190 110 316 274 316s274 -126 274 -316c0 -178 -109 -296 -272 -296zM328 54c115 0 191 90 191 225c0 148 -76 248 -190 248s-190 -100 -190 -248c0 -135 75 -225 189 -225z" />
    <glyph glyph-name="one.osf" horiz-adv-x="437" 
d="M49 0v85h135v410l-121 -74v94l121 80h81v-510h140v-85h-356z" />
    <glyph glyph-name="two.osf" horiz-adv-x="601" 
d="M87 90c106 64 203 113 272 165c57 44 90 87 90 143c0 57 -33 121 -149 121c-134 0 -162 -84 -162 -164h-82c0 136 77 241 242 241c155 0 232 -93 232 -196c0 -80 -46 -140 -116 -194c-51 -40 -116 -77 -186 -116h322v-90h-463v90z" />
    <glyph glyph-name="three.osf" horiz-adv-x="553" 
d="M129 -103c194 0 292 48 292 174c0 106 -77 153 -248 153h-52v71l249 225h-341v76h446v-75l-249 -224v-2c167 0 279 -74 279 -229c0 -129 -85 -245 -352 -245h-96v76h72z" />
    <glyph glyph-name="four.osf" horiz-adv-x="578" 
d="M469 -177h-86v177h-348v90l341 506h93v-509h74v-87h-74v-177zM124 87h259v387z" />
    <glyph glyph-name="five.osf" horiz-adv-x="634" 
d="M304 -180c-140 0 -257 68 -267 169h93c7 -56 99 -87 174 -87c129 0 196 94 196 194c0 106 -76 185 -185 185c-73 0 -132 -35 -162 -109h-104l112 424h361v-86h-296l-56 -205c35 33 95 58 165 58c152 0 251 -117 251 -269c0 -139 -83 -274 -282 -274z" />
    <glyph glyph-name="six.osf" horiz-adv-x="687" 
d="M359 -16c-197 0 -294 146 -294 375c0 219 89 417 310 417c133 0 209 -100 219 -178h-94c-10 64 -66 99 -134 99c-122 0 -192 -110 -215 -278c55 83 156 105 227 105c163 0 257 -119 257 -265c0 -142 -87 -275 -276 -275zM359 65c130 0 191 107 191 194
c0 89 -61 182 -191 182c-127 0 -190 -91 -190 -181c0 -88 61 -195 190 -195z" />
    <glyph glyph-name="seven.osf" horiz-adv-x="516" 
d="M31 597h448v-85l-307 -675h-92l310 675h-359v85z" />
    <glyph glyph-name="eight.osf" horiz-adv-x="697" 
d="M319 -18c-216 0 -296 126 -296 234c0 81 38 152 140 190c-84 49 -104 108 -104 155c0 101 80 212 260 212c186 0 259 -110 259 -206c0 -52 -21 -112 -104 -161c101 -38 139 -107 139 -190c0 -108 -76 -234 -294 -234zM318 441c126 0 169 59 169 124
c0 64 -43 128 -169 128s-172 -64 -172 -128c0 -65 46 -124 172 -124zM318 61c162 0 209 85 209 149c0 70 -46 148 -209 148c-159 0 -210 -69 -210 -148c0 -64 47 -149 210 -149z" />
    <glyph glyph-name="nine.osf" horiz-adv-x="680" 
d="M316 -180c-165 0 -239 100 -249 176h93c9 -58 85 -97 167 -97c115 0 187 72 193 249c-65 -86 -148 -109 -215 -109c-158 0 -248 129 -248 279c0 151 91 278 276 278c191 0 279 -134 279 -384c0 -187 -47 -392 -296 -392zM326 122c123 0 188 99 188 196s-65 197 -188 197
c-124 0 -184 -100 -184 -197s60 -196 184 -196z" />
    <glyph glyph-name="zero.ss01" horiz-adv-x="733" 
d="M368 -16c-222 0 -311 186 -311 396s89 396 311 396c221 0 308 -186 308 -396s-87 -396 -308 -396zM366 72c157 0 227 140 227 308s-70 308 -227 308c-156 0 -226 -140 -226 -308s70 -308 226 -308z" />
    <glyph glyph-name="one.ss01" horiz-adv-x="364" 
d="M57 620l166 140h85v-760h-85v661l-166 -144v103z" />
    <glyph glyph-name="two.ss01" horiz-adv-x="717" 
d="M276 213c-174 34 -249 145 -249 283c0 150 88 280 297 280c208 0 300 -128 300 -284c0 -98 -36 -185 -175 -268l-241 -140h415v-85h-551v85zM328 295c147 0 211 98 211 199s-63 201 -214 201c-150 0 -213 -101 -213 -198s63 -202 216 -202z" />
    <glyph glyph-name="three.ss01" horiz-adv-x="706" 
d="M353 -16c-204 0 -296 122 -296 294c0 112 38 199 175 271l247 126h-422v85h554l-1 -85l-205 -124c165 0 244 -131 244 -280c0 -159 -88 -287 -296 -287zM353 64c151 0 214 98 214 210s-63 206 -214 206c-150 0 -213 -94 -213 -206s63 -210 213 -210z" />
    <glyph glyph-name="four.ss01" horiz-adv-x="673" 
d="M542 0h-86v173h-399v95l389 492h96v-502h75v-85h-75v-173zM149 258h307v386z" />
    <glyph glyph-name="five.ss01" horiz-adv-x="707" 
d="M355 -16c-209 0 -298 129 -298 281c0 40 6 74 11 102c28 133 54 266 80 393h404v-85h-336l-40 -193c55 52 121 64 184 64c207 0 291 -131 291 -281c0 -151 -88 -281 -296 -281zM353 64c151 0 214 100 214 201s-63 199 -214 199c-150 0 -213 -98 -213 -199
s63 -201 213 -201z" />
    <glyph glyph-name="six.ss01" horiz-adv-x="708" 
d="M357 -16c-193 0 -300 115 -300 279c0 109 47 191 267 485l9 12h108l-185 -244c35 16 74 28 126 28c143 0 270 -90 270 -274c0 -155 -89 -286 -295 -286zM352 64c151 0 216 100 216 201s-66 199 -213 199c-132 0 -214 -79 -214 -198c0 -102 61 -202 211 -202z" />
    <glyph glyph-name="seven.ss01" horiz-adv-x="583" 
d="M129 0c35 221 158 442 300 675h-372v85h469v-92c-148 -232 -266 -454 -300 -668h-97z" />
    <glyph glyph-name="nine.ss01" horiz-adv-x="707" 
d="M531 280c-54 -53 -105 -65 -171 -65c-219 0 -303 131 -303 280c0 151 86 281 296 281c208 0 298 -128 298 -281c0 -41 -7 -76 -13 -109l-80 -386h-451v88h384zM354 296c151 0 214 98 214 199s-63 201 -214 201c-150 0 -213 -100 -213 -201s63 -199 213 -199z" />
    <glyph glyph-name="zero.tf" horiz-adv-x="735" 
d="M369 -16c-225 0 -311 189 -311 396s86 396 311 396c224 0 308 -189 308 -396s-84 -396 -308 -396zM367 67c158 0 225 143 225 313s-67 313 -225 313c-157 0 -224 -143 -224 -313s67 -313 224 -313z" />
    <glyph glyph-name="one.tf" horiz-adv-x="735" 
d="M58 0v85h267v590h-239v85h325v-675h266v-85h-619z" />
    <glyph glyph-name="two.tf" horiz-adv-x="735" 
d="M100 84c187 115 244 159 303 208c92 75 162 140 162 241c0 92 -67 163 -203 163c-161 0 -220 -100 -220 -212c0 -28 4 -60 11 -82h-85c-6 23 -10 52 -10 87c0 159 83 287 303 287c195 0 289 -101 289 -247c0 -86 -31 -177 -198 -306c-52 -40 -119 -87 -204 -139h429v-85
h-577v85z" />
    <glyph glyph-name="three.tf" horiz-adv-x="735" 
d="M353 -16c-156 0 -266 60 -296 176h89c25 -69 101 -95 207 -95c178 0 239 74 239 163c0 115 -98 169 -305 169h-60v81l288 195h-392v87h511v-95l-301 -197h8c212 0 336 -89 336 -233c0 -119 -84 -251 -324 -251z" />
    <glyph glyph-name="four.tf" horiz-adv-x="735" 
d="M505 0h-85v173h-363v95l308 492h93l-308 -502h270v198h85v-198h172v-85h-172v-173z" />
    <glyph glyph-name="five.tf" horiz-adv-x="735" 
d="M348 -16c-176 0 -280 68 -291 166h92c8 -53 92 -85 196 -85c185 0 246 102 246 200c0 104 -70 197 -221 197c-110 0 -178 -50 -211 -110h-100l116 408h403v-87h-349l-58 -208c44 59 110 80 197 80c219 0 309 -127 309 -281c0 -150 -87 -280 -329 -280z" />
    <glyph glyph-name="six.tf" horiz-adv-x="735" 
d="M374 -16c-189 0 -317 120 -317 375c0 235 110 417 331 417c136 0 237 -71 249 -177h-93c-7 59 -70 98 -158 98c-145 0 -214 -107 -233 -255c50 61 138 105 240 105c164 0 284 -113 284 -281c0 -169 -120 -282 -303 -282zM375 65c131 0 219 82 219 201s-88 198 -219 198
c-130 0 -216 -78 -216 -198s86 -201 216 -201z" />
    <glyph glyph-name="seven.tf" horiz-adv-x="735" 
d="M57 760h620v-84l-358 -676h-95l353 675h-520v85z" />
    <glyph glyph-name="eight.tf" horiz-adv-x="735" 
d="M368 -16c-233 0 -311 123 -311 232c0 79 39 152 138 191c-81 43 -102 104 -102 161c0 106 77 208 275 208c199 0 274 -102 274 -208c0 -57 -21 -118 -102 -161c96 -39 137 -108 137 -190c0 -111 -77 -233 -309 -233zM367 442c142 0 187 65 187 127s-45 127 -187 127
s-187 -65 -187 -127s45 -127 187 -127zM367 61c177 0 223 87 223 154c0 68 -47 143 -223 143s-223 -75 -223 -143c0 -67 46 -154 223 -154z" />
    <glyph glyph-name="nine.tf" horiz-adv-x="735" 
d="M334 -16c-144 0 -253 68 -266 172h94c8 -58 92 -93 179 -93c152 0 240 106 245 263c-49 -64 -145 -107 -248 -107c-167 0 -283 112 -283 278c0 168 119 279 299 279c194 0 323 -127 323 -372c0 -254 -139 -420 -343 -420zM356 302c132 0 225 79 225 196
c0 118 -93 197 -226 197c-132 0 -215 -79 -215 -197c0 -117 83 -196 216 -196z" />
    <glyph glyph-name="zero.dnom" horiz-adv-x="408" 
d="M205 -9c-122 0 -176 101 -176 218s54 218 176 218c121 0 174 -101 174 -218s-53 -218 -174 -218zM204 47c77 0 113 73 113 162s-36 162 -113 162s-112 -73 -112 -162s35 -162 112 -162z" />
    <glyph glyph-name="one.dnom" horiz-adv-x="208" 
d="M15 418h144v-418h-61v358h-83v60z" />
    <glyph glyph-name="two.dnom" horiz-adv-x="390" 
d="M49 60c90 57 139 89 173 118c50 42 70 77 70 114c0 50 -35 79 -93 79c-66 0 -108 -38 -108 -100c0 -10 1 -16 5 -33h-62c-4 16 -5 24 -5 35c0 93 59 154 170 154c101 0 157 -52 157 -133c0 -55 -27 -100 -84 -150c-28 -25 -64 -49 -122 -84h211v-61h-312v61z" />
    <glyph glyph-name="three.dnom" horiz-adv-x="396" 
d="M194 -9c-89 0 -150 36 -165 105h64c12 -36 51 -50 103 -50c86 0 110 37 110 82c0 56 -37 83 -130 83h-43v55l130 93h-206v59h278v-65l-129 -92l7 1c94 0 153 -48 154 -134c0 -68 -40 -137 -173 -137z" />
    <glyph glyph-name="four.dnom" horiz-adv-x="386" 
d="M275 0h-60v88h-186v67l152 263h68l-153 -269h119v102h60v-102h82v-61h-82v-88z" />
    <glyph glyph-name="five.dnom" horiz-adv-x="390" 
d="M189 -9c-88 0 -155 41 -160 101h65c3 -27 45 -46 93 -46c71 0 114 38 114 94c0 57 -44 96 -104 96c-46 0 -80 -25 -93 -57h-68l61 239h229v-59h-185l-27 -101c20 19 56 32 98 32c89 0 149 -62 149 -150c0 -90 -65 -149 -172 -149z" />
    <glyph glyph-name="six.dnom" horiz-adv-x="374" 
d="M187 -8c-110 0 -158 77 -158 197c0 140 65 237 168 237c70 0 120 -40 127 -102h-64c-5 31 -34 50 -66 50c-58 0 -97 -62 -103 -154c22 38 63 62 116 62c82 0 138 -57 138 -142c0 -89 -62 -148 -158 -148zM189 46c55 0 93 36 93 92c0 54 -38 90 -93 90s-93 -36 -93 -90
c0 -55 37 -92 93 -92z" />
    <glyph glyph-name="seven.dnom" horiz-adv-x="327" 
d="M29 418h269v-60l-175 -358h-67l177 358h-204v60z" />
    <glyph glyph-name="eight.dnom" horiz-adv-x="420" 
d="M211 -10c-124 0 -168 69 -168 129c0 48 26 87 78 104c-42 23 -58 55 -58 86c0 56 43 117 148 117c107 0 148 -60 148 -114c0 -33 -17 -66 -59 -89c51 -17 78 -55 78 -104c0 -60 -41 -129 -167 -129zM210 248c60 0 85 29 85 61c0 34 -25 65 -85 65s-85 -31 -85 -65
c0 -32 25 -61 85 -61zM210 45c78 0 104 40 104 73c0 35 -24 74 -104 74c-77 0 -103 -35 -103 -74c0 -33 25 -73 103 -73z" />
    <glyph glyph-name="nine.dnom" horiz-adv-x="384" 
d="M183 -9c-86 0 -146 41 -153 100h65c5 -28 39 -47 86 -47c68 0 114 59 114 139v10c-26 -33 -75 -55 -124 -55c-86 0 -143 59 -143 143s62 146 161 146c102 0 167 -61 167 -204c0 -138 -67 -232 -173 -232zM188 192c62 0 102 35 102 88c0 55 -40 92 -102 92
c-61 0 -101 -37 -101 -92c0 -53 40 -88 101 -88z" />
    <glyph glyph-name="zero.numr" horiz-adv-x="408" 
d="M205 331c-122 0 -176 101 -176 218s54 218 176 218c121 0 174 -101 174 -218s-53 -218 -174 -218zM204 387c77 0 113 73 113 162s-36 162 -113 162s-112 -73 -112 -162s35 -162 112 -162z" />
    <glyph glyph-name="one.numr" horiz-adv-x="208" 
d="M15 758h144v-418h-61v358h-83v60z" />
    <glyph glyph-name="two.numr" horiz-adv-x="390" 
d="M49 400c90 57 139 89 173 118c51 43 70 78 70 115c0 49 -35 78 -94 78c-65 0 -107 -37 -107 -103c0 -17 1 -33 5 -46h-62c-3 13 -5 31 -5 47c0 98 60 158 169 158c102 0 158 -51 158 -133c0 -55 -27 -100 -84 -150c-27 -24 -64 -49 -122 -84h211v-61h-312v61z" />
    <glyph glyph-name="three.numr" horiz-adv-x="396" 
d="M194 331c-89 0 -150 36 -165 105h64c12 -36 51 -50 103 -50c86 0 110 37 110 82c0 56 -37 83 -130 83h-43v55l130 93h-206v59h278v-67l-129 -90l7 1c94 0 153 -48 154 -134c0 -68 -40 -137 -173 -137z" />
    <glyph glyph-name="four.numr" horiz-adv-x="386" 
d="M275 340h-60v88h-186v67l152 263h68l-153 -269h119v102h60v-102h82v-61h-82v-88z" />
    <glyph glyph-name="five.numr" horiz-adv-x="390" 
d="M189 331c-88 0 -155 41 -160 101h65c3 -27 45 -46 93 -46c71 0 114 38 114 94c0 57 -44 96 -104 96c-46 0 -80 -25 -93 -57h-68l61 239h229v-59h-185l-27 -101c20 19 56 32 98 32c89 0 149 -62 149 -150c0 -90 -65 -149 -172 -149z" />
    <glyph glyph-name="six.numr" horiz-adv-x="374" 
d="M187 332c-110 0 -158 77 -158 197c0 140 65 237 168 237c70 0 120 -40 127 -102h-64c-5 31 -34 50 -66 50c-58 0 -97 -62 -103 -154c22 38 63 62 116 62c82 0 138 -57 138 -142c0 -89 -62 -148 -158 -148zM189 386c55 0 93 36 93 92c0 54 -38 90 -93 90s-93 -36 -93 -90
c0 -55 37 -92 93 -92z" />
    <glyph glyph-name="seven.numr" horiz-adv-x="327" 
d="M29 758h269v-60l-175 -358h-67l177 358h-204v60z" />
    <glyph glyph-name="eight.numr" horiz-adv-x="420" 
d="M211 325c-124 0 -168 69 -168 129c0 48 26 87 78 104c-42 23 -58 55 -58 86c0 56 43 117 148 117c107 0 148 -60 148 -114c0 -33 -17 -66 -59 -89c51 -17 78 -55 78 -104c0 -60 -41 -129 -167 -129zM210 583c60 0 85 29 85 61c0 34 -25 65 -85 65s-85 -31 -85 -65
c0 -32 25 -61 85 -61zM210 380c78 0 104 40 104 73c0 35 -24 74 -104 74c-77 0 -103 -35 -103 -74c0 -33 25 -73 103 -73z" />
    <glyph glyph-name="nine.numr" horiz-adv-x="384" 
d="M183 331c-86 0 -146 41 -153 100h65c5 -28 39 -47 86 -47c68 0 114 59 114 139v10c-26 -33 -75 -55 -124 -55c-86 0 -143 59 -143 143s62 146 161 146c102 0 167 -61 167 -204c0 -138 -67 -232 -173 -232zM188 532c62 0 102 35 102 88c0 55 -40 92 -102 92
c-61 0 -101 -37 -101 -92c0 -53 40 -88 101 -88z" />
    <glyph glyph-name="uni2070" unicode="&#x2070;" horiz-adv-x="408" 
d="M205 331c-122 0 -176 101 -176 218s54 218 176 218c121 0 174 -101 174 -218s-53 -218 -174 -218zM204 387c77 0 113 73 113 162s-36 162 -113 162s-112 -73 -112 -162s35 -162 112 -162z" />
    <glyph glyph-name="uni00B9" unicode="&#xb9;" horiz-adv-x="208" 
d="M15 758h144v-418h-61v358h-83v60z" />
    <glyph glyph-name="uni00B2" unicode="&#xb2;" horiz-adv-x="390" 
d="M49 400c90 57 139 89 173 118c51 43 70 78 70 115c0 49 -35 78 -94 78c-65 0 -107 -37 -107 -103c0 -17 1 -33 5 -46h-62c-3 13 -5 31 -5 47c0 98 60 158 169 158c102 0 158 -51 158 -133c0 -55 -27 -100 -84 -150c-27 -24 -64 -49 -122 -84h211v-61h-312v61z" />
    <glyph glyph-name="uni00B3" unicode="&#xb3;" horiz-adv-x="396" 
d="M194 331c-89 0 -150 36 -165 105h64c12 -36 51 -50 103 -50c86 0 110 37 110 82c0 56 -37 83 -130 83h-43v55l130 93h-206v59h278v-67l-129 -90l7 1c94 0 153 -48 154 -134c0 -68 -40 -137 -173 -137z" />
    <glyph glyph-name="uni2074" unicode="&#x2074;" horiz-adv-x="386" 
d="M275 340h-60v88h-186v67l152 263h68l-153 -269h119v102h60v-102h82v-61h-82v-88z" />
    <glyph glyph-name="uni2075" unicode="&#x2075;" horiz-adv-x="390" 
d="M189 331c-88 0 -155 41 -160 101h65c3 -27 45 -46 93 -46c71 0 114 38 114 94c0 57 -44 96 -104 96c-46 0 -80 -25 -93 -57h-68l61 239h229v-59h-185l-27 -101c20 19 56 32 98 32c89 0 149 -62 149 -150c0 -90 -65 -149 -172 -149z" />
    <glyph glyph-name="uni2076" unicode="&#x2076;" horiz-adv-x="374" 
d="M187 332c-110 0 -158 77 -158 197c0 140 65 237 168 237c70 0 120 -40 127 -102h-64c-5 31 -34 50 -66 50c-58 0 -97 -62 -103 -154c22 38 63 62 116 62c82 0 138 -57 138 -142c0 -89 -62 -148 -158 -148zM189 386c55 0 93 36 93 92c0 54 -38 90 -93 90s-93 -36 -93 -90
c0 -55 37 -92 93 -92z" />
    <glyph glyph-name="uni2077" unicode="&#x2077;" horiz-adv-x="327" 
d="M29 758h269v-60l-175 -358h-67l177 358h-204v60z" />
    <glyph glyph-name="uni2078" unicode="&#x2078;" horiz-adv-x="420" 
d="M211 330c-124 0 -168 69 -168 129c0 48 26 87 78 104c-42 23 -58 55 -58 86c0 56 43 117 148 117c107 0 148 -60 148 -114c0 -33 -17 -66 -59 -89c51 -17 78 -55 78 -104c0 -60 -41 -129 -167 -129zM210 588c60 0 85 29 85 61c0 34 -25 65 -85 65s-85 -31 -85 -65
c0 -32 25 -61 85 -61zM210 385c78 0 104 40 104 73c0 35 -24 74 -104 74c-77 0 -103 -35 -103 -74c0 -33 25 -73 103 -73z" />
    <glyph glyph-name="uni2079" unicode="&#x2079;" horiz-adv-x="384" 
d="M183 331c-86 0 -146 41 -153 100h65c5 -28 39 -47 86 -47c68 0 114 59 114 139v10c-26 -33 -75 -55 -124 -55c-86 0 -143 59 -143 143s62 146 161 146c102 0 167 -61 167 -204c0 -138 -67 -232 -173 -232zM188 532c62 0 102 35 102 88c0 55 -40 92 -102 92
c-61 0 -101 -37 -101 -92c0 -53 40 -88 101 -88z" />
    <glyph glyph-name="fraction" unicode="&#x2044;" horiz-adv-x="230" 
d="M-82 -16h-67l461 792h67z" />
    <glyph glyph-name="onehalf" unicode="&#xbd;" horiz-adv-x="788" 
d="M145 -16h-65l461 792h65zM15 760h146v-418h-63v355h-83v63zM426 60c90 57 139 89 173 118c50 42 70 77 70 114c0 50 -35 79 -93 79c-66 0 -108 -38 -108 -100c0 -10 1 -16 5 -33h-62c-4 16 -5 24 -5 35c0 93 59 154 170 154c101 0 157 -52 157 -133
c0 -55 -27 -100 -84 -150c-28 -25 -64 -49 -122 -84h211v-61h-312v61z" />
    <glyph glyph-name="onequarter" unicode="&#xbc;" horiz-adv-x="777" 
d="M145 -16h-65l461 792h65zM15 760h146v-418h-63v355h-83v63zM645 0h-60v88h-186v67l152 263h68l-153 -269h119v102h60v-102h82v-61h-82v-88z" />
    <glyph glyph-name="threequarters" unicode="&#xbe;" horiz-adv-x="884" 
d="M273 -16h-65l461 792h65zM194 332c-89 0 -150 36 -165 105h64c12 -36 51 -50 103 -50c86 0 110 37 110 82c0 56 -37 83 -130 83h-43v55l130 93h-206v59h278v-65l-129 -92l7 1c94 0 153 -48 154 -134c0 -68 -40 -137 -173 -137zM773 0h-60v88h-186v67l152 263h68
l-153 -269h119v102h60v-102h82v-61h-82v-88z" />
    <glyph glyph-name="oneeighth" unicode="&#x215b;" horiz-adv-x="814" 
d="M147 -16h-65l461 792h65zM15 760h146v-418h-63v355h-83v63zM598 -10c-124 0 -168 69 -168 129c0 48 26 87 78 104c-42 23 -58 55 -58 86c0 56 43 117 148 117c107 0 148 -60 148 -114c0 -33 -17 -66 -59 -89c51 -17 78 -55 78 -104c0 -60 -41 -129 -167 -129zM597 248
c60 0 85 29 85 61c0 34 -25 65 -85 65s-85 -31 -85 -65c0 -32 25 -61 85 -61zM597 45c78 0 104 40 104 73c0 35 -24 74 -104 74c-77 0 -103 -35 -103 -74c0 -33 25 -73 103 -73z" />
    <glyph glyph-name="threeeighths" unicode="&#x215c;" horiz-adv-x="893" 
d="M248 -16h-66l461 792h66zM196 333c-97 0 -163 45 -167 101h67c3 -29 52 -44 101 -44c77 0 104 37 104 80c0 54 -45 82 -139 82h-33v56l129 87h-205v65h290v-68l-138 -91l5 -2c85 0 154 -46 154 -127c0 -65 -44 -139 -168 -139zM698 -10c-124 0 -168 69 -168 129
c0 48 26 87 78 104c-42 23 -58 55 -58 86c0 56 43 117 148 117c107 0 148 -60 148 -114c0 -33 -17 -66 -59 -89c51 -17 78 -55 78 -104c0 -60 -41 -129 -167 -129zM697 248c60 0 85 29 85 61c0 34 -25 65 -85 65s-85 -31 -85 -65c0 -32 25 -61 85 -61zM697 45
c78 0 104 40 104 73c0 35 -24 74 -104 74c-77 0 -103 -35 -103 -74c0 -33 25 -73 103 -73z" />
    <glyph glyph-name="fiveeighths" unicode="&#x215d;" horiz-adv-x="970" 
d="M325 -16h-66l461 792h66zM189 333c-88 0 -155 41 -160 101h65c3 -27 45 -46 93 -46c71 0 114 38 114 94c0 57 -44 96 -104 96c-46 0 -80 -25 -93 -57h-68l61 239h229v-59h-185l-27 -101c20 19 56 32 98 32c89 0 149 -62 149 -150c0 -90 -65 -149 -172 -149zM775 -10
c-124 0 -168 69 -168 129c0 48 26 87 78 104c-42 23 -58 55 -58 86c0 56 43 117 148 117c107 0 148 -60 148 -114c0 -33 -17 -66 -59 -89c51 -17 78 -55 78 -104c0 -60 -41 -129 -167 -129zM774 248c60 0 85 29 85 61c0 34 -25 65 -85 65s-85 -31 -85 -65
c0 -32 25 -61 85 -61zM774 45c78 0 104 40 104 73c0 35 -24 74 -104 74c-77 0 -103 -35 -103 -74c0 -33 25 -73 103 -73z" />
    <glyph glyph-name="seveneighths" unicode="&#x215e;" horiz-adv-x="802" 
d="M156 -16h-65l461 792h65zM29 760h273v-68l-177 -350h-69l179 355h-206v63zM607 -10c-124 0 -168 69 -168 129c0 48 26 87 78 104c-42 23 -58 55 -58 86c0 56 43 117 148 117c107 0 148 -60 148 -114c0 -33 -17 -66 -59 -89c51 -17 78 -55 78 -104
c0 -60 -41 -129 -167 -129zM606 248c60 0 85 29 85 61c0 34 -25 65 -85 65s-85 -31 -85 -65c0 -32 25 -61 85 -61zM606 45c78 0 104 40 104 73c0 35 -24 74 -104 74c-77 0 -103 -35 -103 -74c0 -33 25 -73 103 -73z" />
    <glyph glyph-name="asterisk" unicode="*" horiz-adv-x="525" 
d="M53 597l27 56l159 -81l-8 188h62l-8 -188l159 81l27 -56l-172 -71l135 -148l-47 -39l-125 158l-124 -158l-48 39l136 148z" />
    <glyph glyph-name="backslash" unicode="\" horiz-adv-x="372" 
d="M85 760l277 -876h-75l-277 876h75z" />
    <glyph glyph-name="periodcentered" unicode="&#xb7;" horiz-adv-x="211" 
d="M160 209h-108v103h108v-103z" />
    <glyph glyph-name="bullet" unicode="&#x2022;" horiz-adv-x="294" 
d="M147 169c-53 0 -95 42 -95 96c0 52 42 94 95 94c51 0 96 -42 96 -94c0 -54 -45 -96 -96 -96z" />
    <glyph glyph-name="colon" unicode=":" horiz-adv-x="211" 
d="M160 412h-108v103h108v-103zM160 0h-108v103h108v-103z" />
    <glyph glyph-name="comma" unicode="," horiz-adv-x="211" 
d="M52 103h108v-103l-50 -103h-58l39 103h-39v103z" />
    <glyph glyph-name="ellipsis" unicode="&#x2026;" horiz-adv-x="565" 
d="M160 0h-108v103h108v-103zM336 0h-108v103h108v-103zM513 0h-108v103h108v-103z" />
    <glyph glyph-name="exclam" unicode="!" horiz-adv-x="262" 
d="M174 189h-85v571h85v-571zM185 0h-108v103h108v-103z" />
    <glyph glyph-name="exclamdown" unicode="&#xa1;" horiz-adv-x="262" 
d="M185 657h-108v103h108v-103zM174 0h-85v571h85v-571z" />
    <glyph glyph-name="numbersign" unicode="#" horiz-adv-x="726" 
d="M45 291h135l40 171h-115v58h129l57 240h69l-57 -240h169l57 240h70l-58 -240h138v-58h-152l-39 -171h141v-58h-155l-55 -233h-70l56 233h-169l-56 -233h-69l55 233h-121v58zM289 462l-39 -171h169l39 171h-169z" />
    <glyph glyph-name="period" unicode="." horiz-adv-x="211" 
d="M160 0h-108v103h108v-103z" />
    <glyph glyph-name="question" unicode="?" horiz-adv-x="559" 
d="M208 189c0 81 17 139 87 202c49 44 127 91 127 178c0 74 -57 127 -142 127c-97 0 -158 -68 -149 -180h-81c-12 157 83 260 233 260c134 0 223 -84 223 -209c0 -129 -94 -175 -159 -234c-41 -38 -50 -65 -54 -109c-2 -17 -2 -33 -2 -53h-83v18zM303 0h-108v103h108v-103z
" />
    <glyph glyph-name="questiondown" unicode="&#xbf;" horiz-adv-x="559" 
d="M257 760h107v-103h-107v103zM351 571c0 -81 -17 -139 -87 -202c-49 -44 -127 -91 -127 -178c0 -74 57 -127 142 -127c97 0 158 68 149 180h81c12 -157 -83 -260 -233 -260c-134 0 -223 84 -223 209c0 129 94 175 159 234c41 38 50 65 54 109c2 17 2 33 2 53h83v-18z" />
    <glyph glyph-name="quotedbl" unicode="&#x22;" horiz-adv-x="424" 
d="M180 751v-132l-19 -194h-40l-19 194v132h78zM321 751v-132l-18 -194h-40l-19 194v132h77z" />
    <glyph glyph-name="quotesingle" unicode="'" horiz-adv-x="283" 
d="M180 751v-132l-19 -194h-40l-19 194v132h78z" />
    <glyph glyph-name="semicolon" unicode=";" horiz-adv-x="211" 
d="M160 412h-108v103h108v-103zM52 103h108v-103l-50 -103h-58l39 103h-39v103z" />
    <glyph glyph-name="slash" unicode="/" horiz-adv-x="372" 
d="M85 -116h-75l277 876h75z" />
    <glyph glyph-name="underscore" unicode="_" horiz-adv-x="816" 
d="M708 -133h-600v63h600v-63z" />
    <glyph glyph-name="colon.ss01" horiz-adv-x="212" 
d="M96 400c-36 0 -65 28 -65 64c0 35 29 63 65 63c34 0 64 -28 64 -63c0 -36 -30 -64 -64 -64zM96 0c-36 0 -65 28 -65 65c0 34 29 62 65 62c34 0 64 -28 64 -62c0 -37 -30 -65 -64 -65z" />
    <glyph glyph-name="comma.ss01" horiz-adv-x="212" 
d="M160 66c0 -19 -11 -62 -21 -96c-11 -35 -21 -60 -25 -73h-49l27 102c-34 2 -61 30 -61 64c0 35 29 63 65 63c35 0 64 -29 64 -60z" />
    <glyph glyph-name="ellipsis.ss01" horiz-adv-x="587" 
d="M96 0c-36 0 -65 28 -65 65c0 34 29 62 65 62c34 0 64 -28 64 -62c0 -37 -30 -65 -64 -65zM284 0c-36 0 -65 28 -65 65c0 34 29 62 65 62c34 0 64 -28 64 -62c0 -37 -30 -65 -64 -65zM471 0c-36 0 -65 28 -65 65c0 34 29 62 65 62c34 0 64 -28 64 -62
c0 -37 -30 -65 -64 -65z" />
    <glyph glyph-name="exclam.ss01" horiz-adv-x="284" 
d="M176 189h-67l-9 571h85zM142 0c-36 0 -65 28 -65 65c0 34 29 62 65 62c34 0 64 -28 64 -62c0 -37 -30 -65 -64 -65z" />
    <glyph glyph-name="exclamdown.ss01" horiz-adv-x="284" 
d="M142 760c34 0 64 -28 64 -65c0 -34 -30 -62 -64 -62c-36 0 -65 28 -65 62c0 37 29 65 65 65zM100 0l9 571h67l9 -571h-85z" />
    <glyph glyph-name="period.ss01" horiz-adv-x="212" 
d="M96 0c-36 0 -65 28 -65 65c0 34 29 62 65 62c34 0 64 -28 64 -62c0 -37 -30 -65 -64 -65z" />
    <glyph glyph-name="question.ss01" horiz-adv-x="559" 
d="M208 189c0 81 17 139 87 202c49 44 127 91 127 178c0 74 -57 127 -142 127c-97 0 -158 -68 -149 -180h-81c-12 157 83 260 233 260c134 0 223 -84 223 -209c0 -129 -94 -175 -159 -234c-41 -38 -50 -65 -54 -109c-2 -17 -2 -33 -2 -53h-83v18zM252 0c-36 0 -64 28 -64 65
c0 34 28 62 64 62c35 0 65 -28 65 -62c0 -37 -30 -65 -65 -65z" />
    <glyph glyph-name="questiondown.ss01" horiz-adv-x="559" 
d="M308 760c36 0 65 -28 65 -65c0 -34 -29 -62 -65 -62c-34 0 -64 28 -64 62c0 37 30 65 64 65zM351 571c0 -81 -17 -139 -87 -202c-49 -44 -127 -91 -127 -178c0 -74 57 -127 142 -127c97 0 158 68 149 180h81c12 -157 -83 -260 -233 -260c-134 0 -223 84 -223 209
c0 129 94 175 159 234c41 38 50 65 54 109c2 17 2 33 2 53h83v-18z" />
    <glyph glyph-name="semicolon.ss01" horiz-adv-x="212" 
d="M95 399c-36 0 -65 28 -65 65c0 35 29 63 65 63c35 0 65 -28 65 -63c0 -37 -30 -65 -65 -65zM160 66c0 -19 -11 -62 -21 -96c-10 -33 -19 -55 -25 -73h-49l27 102c-34 2 -61 30 -61 64c0 35 29 63 65 63c35 0 64 -29 64 -60z" />
    <glyph glyph-name="braceleft" unicode="{" horiz-adv-x="320" 
d="M247 -116c-133 0 -147 95 -148 217c-1 141 -2 153 -62 153v82c60 0 61 12 62 153c1 122 15 217 148 217h39v-62h-31c-109 0 -95 -133 -101 -246c-3 -60 -10 -86 -61 -99v-8c52 -13 58 -40 61 -99c6 -117 -7 -246 101 -246h31v-62h-39z" />
    <glyph glyph-name="braceright" unicode="}" horiz-adv-x="320" 
d="M64 -54c108 0 95 129 101 246c4 59 9 86 61 99v8c-51 13 -57 39 -61 99c-5 113 8 246 -101 246h-31v62h40c133 0 146 -95 147 -217c1 -141 2 -153 62 -153v-82c-60 0 -61 -12 -62 -153c-1 -122 -14 -217 -147 -217h-40v62h31z" />
    <glyph glyph-name="bracketleft" unicode="[" horiz-adv-x="359" 
d="M325 -50v-66h-225v824h225v-66h-152v-692h152z" />
    <glyph glyph-name="bracketright" unicode="]" horiz-adv-x="359" 
d="M186 642h-152v66h226v-824h-226v66h152v692z" />
    <glyph glyph-name="parenleft" unicode="(" horiz-adv-x="279" 
d="M183 -116c-170 275 -170 549 0 824h65c-150 -275 -150 -549 0 -824h-65z" />
    <glyph glyph-name="parenright" unicode=")" horiz-adv-x="279" 
d="M31 -116c150 275 150 549 0 824h65c170 -275 170 -549 0 -824h-65z" />
    <glyph glyph-name="emdash" unicode="&#x2014;" horiz-adv-x="1156" 
d="M78 220v79h1000v-79h-1000z" />
    <glyph glyph-name="endash" unicode="&#x2013;" horiz-adv-x="671" 
d="M593 220h-515v79h515v-79z" />
    <glyph glyph-name="hyphen" unicode="-" horiz-adv-x="528" 
d="M464 299v-79h-400v79h400z" />
    <glyph glyph-name="guillemotleft" unicode="&#xab;" horiz-adv-x="545" 
d="M212 43l-180 222l180 222h92l-180 -222l180 -222h-92zM421 43l-180 222l180 222h92l-180 -222l180 -222h-92z" />
    <glyph glyph-name="guillemotright" unicode="&#xbb;" horiz-adv-x="545" 
d="M123 487l180 -222l-180 -222h-92l180 222l-180 222h92zM332 487l180 -222l-180 -222h-92l180 222l-180 222h92z" />
    <glyph glyph-name="guilsinglleft" unicode="&#x2039;" horiz-adv-x="335" 
d="M212 43l-180 222l180 222h92l-180 -222l180 -222h-92z" />
    <glyph glyph-name="guilsinglright" unicode="&#x203a;" horiz-adv-x="335" 
d="M123 43h-92l180 222l-180 222h92l180 -222z" />
    <glyph glyph-name="quotedblbase" unicode="&#x201e;" horiz-adv-x="386" 
d="M52 106h111v-106l-51 -106h-60l41 106h-41v106zM224 106h110v-106l-50 -106h-60l40 106h-40v106z" />
    <glyph glyph-name="quotedblleft" unicode="&#x201c;" horiz-adv-x="386" 
d="M162 752l-40 -106h41v-107h-111v107l51 106h59zM334 752l-40 -106h40v-107h-110v107l50 106h60z" />
    <glyph glyph-name="quotedblright" unicode="&#x201d;" horiz-adv-x="386" 
d="M52 751h111v-106l-51 -107h-60l41 107h-41v106zM224 751h110v-106l-50 -107h-60l40 107h-40v106z" />
    <glyph glyph-name="quoteleft" unicode="&#x2018;" horiz-adv-x="215" 
d="M163 539h-111v107l51 106h59l-40 -106h41v-107z" />
    <glyph glyph-name="quoteright" unicode="&#x2019;" horiz-adv-x="215" 
d="M52 751h111v-106l-51 -107h-60l41 107h-41v106z" />
    <glyph glyph-name="quotesinglbase" unicode="&#x201a;" horiz-adv-x="215" 
d="M52 106h111v-106l-51 -106h-60l41 106h-41v106z" />
    <glyph glyph-name="space" unicode=" " horiz-adv-x="267" 
 />
    <glyph glyph-name="uni2009" unicode="&#x2009;" horiz-adv-x="202" 
 />
    <glyph glyph-name="cent" unicode="&#xa2;" horiz-adv-x="506" 
d="M203 104c-111 25 -170 125 -170 249c0 128 60 223 170 247v105h94v-102c98 -15 163 -84 169 -179h-77c-14 77 -59 111 -131 111c-98 0 -147 -74 -147 -182c0 -109 47 -184 147 -184c72 0 117 44 131 95h77c-9 -70 -64 -147 -169 -163v-101h-94v104z" />
    <glyph glyph-name="currency" unicode="&#xa4;" horiz-adv-x="632" 
d="M113 216c-23 39 -35 88 -35 140c0 51 11 98 32 136l-77 76l67 67l69 -69c39 27 85 42 137 42c59 0 109 -18 149 -51l77 78l67 -67l-89 -90c15 -36 24 -76 24 -122c0 -47 -10 -89 -27 -128l91 -92l-66 -66l-83 82c-37 -30 -86 -49 -143 -49c-50 0 -96 15 -131 41l-75 -74
l-67 66zM305 172c99 0 151 75 151 184c0 108 -52 182 -151 182c-97 0 -149 -74 -149 -182c0 -109 52 -184 149 -184z" />
    <glyph glyph-name="dollar" unicode="$" horiz-adv-x="679" 
d="M648 199c0 -133 -100 -200 -265 -203v-143h-85v147c-187 24 -258 141 -266 252h78c23 -106 60 -162 188 -176v262c-143 28 -253 60 -253 200c0 146 119 201 253 209v106h85v-107c194 -21 249 -151 254 -276h-76c-14 138 -67 189 -178 201v-262c149 -30 265 -67 265 -210z
M122 546c0 -78 59 -99 176 -122v245c-87 -2 -176 -25 -176 -123zM383 74c106 2 189 25 189 118c0 85 -71 108 -189 130v-248z" />
    <glyph glyph-name="Euro" unicode="&#x20ac;" horiz-adv-x="722" 
d="M551 -16c-191 0 -291 99 -332 229h-163l19 71h129c-4 26 -6 51 -6 77c0 9 0 17 1 26h-115l18 71h105c28 154 129 280 344 280c32 0 81 -3 122 -11v-80c-30 6 -84 13 -123 13c-152 0 -233 -88 -263 -202h247l-17 -71h-240c-1 -9 -1 -19 -1 -28c0 -25 2 -51 7 -75h226
l-18 -71h-187c38 -89 117 -151 245 -151c40 0 94 7 124 13v-80c-41 -8 -90 -11 -122 -11z" />
    <glyph glyph-name="sterling" unicode="&#xa3;" horiz-adv-x="566" 
d="M32 76c73 6 194 92 190 196c-1 19 -6 36 -14 51h-175v72h122c-39 47 -82 94 -82 161c0 64 39 182 279 182c57 0 101 -7 145 -24v-70c-19 8 -70 28 -141 28c-80 0 -201 -25 -201 -120c0 -53 48 -100 88 -157h217v-72h-177c8 -19 13 -39 15 -63c2 -98 -64 -172 -121 -184
v-2h371v-75h-516v77z" />
    <glyph glyph-name="yen" unicode="&#xa5;" horiz-adv-x="713" 
d="M542 243h-146v-59h146v-56h-146v-128h-79v128h-145v56h145v59h-145v56h114l-261 425h91l241 -399l240 399h91l-261 -425h115v-56z" />
    <glyph glyph-name="cent.tf" horiz-adv-x="722" 
d="M321 104c-155 25 -235 125 -235 250c0 128 82 223 235 247v105h94v-102c131 -15 220 -84 226 -179h-76c-21 77 -84 111 -188 111c-144 0 -212 -74 -212 -182c0 -110 66 -185 212 -185c104 0 166 44 187 95h77c-11 -70 -83 -147 -226 -163v-101h-94v104z" />
    <glyph glyph-name="currency.tf" horiz-adv-x="722" 
d="M143 216c-25 39 -39 88 -39 141c0 51 11 98 36 136l-82 76l66 67l74 -69c43 27 94 42 152 42c65 0 121 -18 165 -51l83 78l66 -67l-95 -90c16 -36 26 -76 26 -122c0 -48 -11 -90 -30 -129l98 -92l-65 -66l-90 82c-42 -30 -95 -49 -158 -49c-56 0 -106 15 -145 41l-81 -74
l-66 66zM349 172c110 0 168 75 168 185c0 108 -58 182 -168 182s-167 -74 -167 -182c0 -110 57 -185 167 -185z" />
    <glyph glyph-name="dollar.tf" horiz-adv-x="722" 
d="M648 199c0 -133 -100 -200 -265 -203v-143h-85v147c-187 24 -258 141 -266 252h78c23 -106 60 -162 188 -176v262c-143 28 -253 60 -253 200c0 146 119 201 253 209v106h85v-107c194 -21 249 -151 254 -276h-76c-14 138 -67 189 -178 201v-262c149 -30 265 -67 265 -210z
M122 546c0 -78 59 -99 176 -122v245c-87 -2 -176 -25 -176 -123zM383 74c106 2 189 25 189 118c0 85 -71 108 -189 130v-248z" />
    <glyph glyph-name="Euro.tf" horiz-adv-x="722" 
d="M551 -16c-191 0 -291 99 -331 229h-163l18 71h129c-4 26 -6 51 -6 77c0 10 0 18 1 27h-115l18 71h105c28 154 130 280 344 280c33 0 82 -3 122 -11v-80c-29 6 -83 13 -123 13c-151 0 -233 -88 -262 -202h247l-18 -71h-239c-1 -9 -1 -20 -1 -29c0 -25 2 -51 6 -75h227
l-19 -71h-187c38 -89 117 -151 245 -151c41 0 95 7 124 13v-80c-40 -8 -89 -11 -122 -11z" />
    <glyph glyph-name="sterling.tf" horiz-adv-x="722" 
d="M78 76c89 6 237 92 229 196c-3 19 -11 36 -22 51h-206v73h145c-46 48 -98 95 -98 161c0 64 41 182 320 182c65 0 115 -7 165 -24v-70c-22 8 -79 28 -161 28c-94 0 -241 -25 -241 -119c0 -54 59 -101 106 -158h254v-73h-208c11 -19 18 -39 21 -63
c5 -98 -74 -172 -144 -184v-2h432v-75h-592v77z" />
    <glyph glyph-name="yen.tf" horiz-adv-x="722" 
d="M549 243h-148v-59h148v-56h-148v-128h-80v128h-147v56h147v59h-147v56h115l-262 425h91l244 -399l242 399h91l-263 -425h117v-56z" />
    <glyph glyph-name="plus" unicode="+" horiz-adv-x="564" 
d="M311 28h-59v201h-200v59h200v200h59v-200h201v-59h-201v-201z" />
    <glyph glyph-name="minus" unicode="&#x2212;" horiz-adv-x="564" 
d="M512 289v-59h-460v59h460z" />
    <glyph glyph-name="multiply" unicode="&#xd7;" horiz-adv-x="471" 
d="M93 74l-41 42l142 142l-142 142l42 41l141 -141l142 141l41 -41l-141 -142l142 -142l-41 -42l-143 143z" />
    <glyph glyph-name="divide" unicode="&#xf7;" horiz-adv-x="586" 
d="M344 409h-108v106h108v-106zM520 290v-65h-460v65h460zM344 0h-108v106h108v-106z" />
    <glyph glyph-name="equal" unicode="=" horiz-adv-x="692" 
d="M576 350h-460v59h460v-59zM576 131h-460v59h460v-59z" />
    <glyph glyph-name="notequal" unicode="&#x2260;" horiz-adv-x="613" 
d="M537 190v-59h-238l-41 -131h-69l41 131h-153v59h172l51 160h-223v59h241l37 116h69l-36 -116h149v-59h-168l-50 -160h218z" />
    <glyph glyph-name="greater" unicode="&#x3e;" horiz-adv-x="513" 
d="M63 558v70l391 -261v-103l-391 -264v73l361 243z" />
    <glyph glyph-name="less" unicode="&#x3c;" horiz-adv-x="514" 
d="M449 628v-70l-361 -242l361 -243v-73l-390 264v103z" />
    <glyph glyph-name="greaterequal" unicode="&#x2265;" horiz-adv-x="582" 
d="M63 0v97l412 226l-392 226v61l420 -236v-101l-398 -214h418v-59h-460z" />
    <glyph glyph-name="lessequal" unicode="&#x2264;" horiz-adv-x="584" 
d="M499 610v-61l-392 -226l412 -226v-97h-460v59h418l-398 214v101z" />
    <glyph glyph-name="plusminus" unicode="&#xb1;" horiz-adv-x="565" 
d="M252 229h-200v59h200v200h59v-200h201v-59h-201v-170h202v-59h-460v59h199v170z" />
    <glyph glyph-name="approxequal" unicode="&#x2248;" horiz-adv-x="670" 
d="M439 299c-98 0 -129 96 -196 96c-25 0 -67 -13 -67 -74v-17h-60v15c0 73 49 132 126 132c99 0 131 -97 202 -97c25 0 50 13 50 69v12h60v-10c0 -63 -35 -126 -115 -126zM439 114c-98 0 -129 96 -196 96c-25 0 -67 -14 -67 -75v-16h-60v15c0 72 49 132 126 132
c99 0 131 -98 202 -98c25 0 50 13 50 70v12h60v-10c0 -63 -35 -126 -115 -126z" />
    <glyph glyph-name="asciitilde" unicode="~" horiz-adv-x="670" 
d="M439 299c-98 0 -129 96 -196 96c-25 0 -67 -13 -67 -74v-17h-60v15c0 73 49 132 126 132c99 0 131 -97 202 -97c25 0 50 13 50 69v12h60v-10c0 -63 -35 -126 -115 -126z" />
    <glyph glyph-name="logicalnot" unicode="&#xac;" horiz-adv-x="564" 
d="M52 290h460v-260h-59v201h-401v59z" />
    <glyph glyph-name="emptyset" unicode="&#x2205;" horiz-adv-x="713" 
d="M528 511c73 -50 116 -134 116 -239c0 -173 -115 -288 -287 -288c-45 0 -86 7 -122 22l-76 -130h-66l92 157c-73 50 -116 134 -116 239c0 173 115 288 288 288c44 0 85 -7 121 -22l76 130h66zM125 272c0 -83 32 -149 88 -190l237 406c-29 10 -59 16 -93 16
c-139 0 -232 -93 -232 -232zM357 40c139 0 231 93 231 232c0 83 -32 149 -88 190l-236 -406c28 -10 59 -16 93 -16z" />
    <glyph glyph-name="infinity" unicode="&#x221e;" horiz-adv-x="894" 
d="M235 84c-114 0 -202 81 -202 203c0 121 88 201 202 201c89 0 163 -48 212 -123c50 75 123 123 213 123c113 0 201 -80 201 -201c0 -122 -88 -203 -201 -203c-90 0 -163 49 -213 124c-49 -75 -123 -124 -212 -124zM242 140c80 0 139 58 173 146c-36 92 -94 146 -171 146
c-80 0 -149 -57 -149 -146c0 -88 66 -146 147 -146zM653 140c80 0 146 58 146 146c0 89 -69 146 -149 146c-78 0 -137 -54 -172 -146c33 -88 93 -146 175 -146z" />
    <glyph glyph-name="integral" unicode="&#x222b;" horiz-adv-x="565" 
d="M459 776c35 0 61 -6 60 -6l-14 -79c-1 0 -12 3 -32 3c-56 0 -84 -21 -92 -67l-110 -627c-19 -110 -70 -165 -165 -165c-34 0 -59 6 -60 6l14 79c-1 1 11 -3 32 -3c57 0 84 21 92 67l110 628c19 110 70 164 165 164z" />
    <glyph glyph-name="product" unicode="&#x220f;" horiz-adv-x="753" 
d="M654 -116h-74v802h-407v-802h-73v876h554v-876z" />
    <glyph glyph-name="summation" unicode="&#x2211;" horiz-adv-x="753" 
d="M173 -42h481v-74h-554v84l216 374l-216 334v84h544v-74h-471l226 -344z" />
    <glyph glyph-name="radical" unicode="&#x221a;" horiz-adv-x="707" 
d="M243 -114h-81l-148 383h91l75 -220l22 -57h2l21 57l242 711h193v-78h-134z" />
    <glyph glyph-name="partialdiff" unicode="&#x2202;" horiz-adv-x="655" 
d="M314 -16c-146 0 -237 91 -237 238c0 165 117 271 262 271c110 0 164 -60 192 -115c4 205 -59 316 -209 316c-88 0 -184 -39 -195 -169h-71c18 143 128 235 277 235c184 0 266 -135 266 -375c0 -294 -126 -401 -285 -401zM317 47c126 0 188 98 188 203
c0 99 -56 176 -171 176c-109 0 -187 -69 -187 -194c0 -112 61 -185 170 -185z" />
    <glyph glyph-name="percent" unicode="%" horiz-adv-x="965" 
d="M191 340c-122 0 -176 101 -176 218s54 218 176 218c121 0 175 -101 175 -218s-54 -218 -175 -218zM264 -16h-67l461 792h67zM190 396c77 0 113 73 113 162s-36 162 -113 162s-112 -73 -112 -162s35 -162 112 -162zM740 -9c-123 0 -176 102 -176 218s53 218 176 218
c124 0 176 -102 176 -218s-52 -218 -176 -218zM740 51c79 0 112 75 112 158s-33 158 -112 158s-112 -75 -112 -158s33 -158 112 -158z" />
    <glyph glyph-name="perthousand" unicode="&#x2030;" horiz-adv-x="1412" 
d="M191 340c-123 0 -176 102 -176 218s53 218 176 218c124 0 176 -102 176 -218s-52 -218 -176 -218zM276 -16h-66l461 792h66zM191 400c79 0 112 75 112 158s-33 158 -112 158s-112 -75 -112 -158s33 -158 112 -158zM740 -9c-123 0 -176 102 -176 218s53 218 176 218
c124 0 176 -102 176 -218s-52 -218 -176 -218zM1187 -9c-124 0 -176 102 -176 218s52 218 176 218s176 -102 176 -218s-52 -218 -176 -218zM740 51c79 0 112 75 112 158s-33 158 -112 158s-112 -75 -112 -158s33 -158 112 -158zM1187 51c79 0 112 75 112 158
s-33 158 -112 158s-112 -75 -112 -158s33 -158 112 -158z" />
    <glyph glyph-name="arrowup" unicode="&#x2191;" horiz-adv-x="474" 
d="M377 495h-109l12 -495h-86l12 495h-109l140 211z" />
    <glyph glyph-name="uni2197" unicode="&#x2197;" horiz-adv-x="918" 
d="M523 668l317 92l-91 -318l-4 193l-640 -635l-28 28l641 638z" />
    <glyph glyph-name="arrowright" unicode="&#x2192;" horiz-adv-x="914" 
d="M623 432l211 -140l-211 -140v109l-495 -12v86l495 -12v109z" />
    <glyph glyph-name="uni2198" unicode="&#x2198;" horiz-adv-x="918" 
d="M840 0l-317 92l195 2l-641 638l28 28l640 -635l4 193z" />
    <glyph glyph-name="arrowdown" unicode="&#x2193;" horiz-adv-x="474" 
d="M377 165l-140 -211l-140 211h109l-12 495h86l-12 -495h109z" />
    <glyph glyph-name="uni2199" unicode="&#x2199;" horiz-adv-x="918" 
d="M395 92l-317 -92l91 318l4 -193l640 635l28 -28l-641 -638z" />
    <glyph glyph-name="arrowleft" unicode="&#x2190;" horiz-adv-x="914" 
d="M242 154l-211 140l211 140v-109l495 12v-86l-495 12v-109z" />
    <glyph glyph-name="uni2196" unicode="&#x2196;" horiz-adv-x="918" 
d="M78 760l317 -92l-195 -2l641 -638l-28 -28l-640 635l-4 -193z" />
    <glyph glyph-name="arrowboth" unicode="&#x2194;" horiz-adv-x="1173" 
d="M931 154v109h-689v-109l-211 140l211 140v-109h689v109l211 -140z" />
    <glyph glyph-name="arrowupdn" unicode="&#x2195;" horiz-adv-x="474" 
d="M266 211h109l-140 -211l-140 211h109v338l-109 1l141 210l139 -211h-108l-1 -168v-170z" />
    <glyph glyph-name="lozenge" unicode="&#x25ca;" horiz-adv-x="481" 
d="M289 638l178 -327l-178 -327h-95l-180 327l180 327h95zM88 311l153 -290l154 290l-154 290z" />
    <glyph glyph-name="at" unicode="@" horiz-adv-x="1089" 
d="M620 -157c-332 0 -553 194 -553 481c0 265 189 443 473 443c288 0 481 -185 481 -466c0 -184 -84 -309 -210 -309c-96 0 -169 72 -169 192c-26 -61 -74 -88 -137 -88c-113 0 -192 88 -192 222c0 132 73 220 185 220c59 0 106 -25 135 -63v49h95v-311
c0 -87 35 -142 87 -142c64 0 109 91 109 216c0 238 -155 393 -385 393c-222 0 -374 -140 -374 -355c0 -233 180 -387 453 -387h86v-95h-84zM521 168c66 0 108 56 108 137v22c0 82 -42 137 -108 137c-67 0 -113 -58 -113 -146c0 -90 46 -150 113 -150z" />
    <glyph glyph-name="ampersand" unicode="&#x26;" horiz-adv-x="656" 
d="M493 69c-44 -41 -120 -69 -200 -69c-155 0 -261 109 -261 255c0 118 70 208 169 246l-108 156v103h437v-78h-360l108 -156c39 9 99 15 152 15h42v-76h-42c-32 0 -75 -3 -109 -7l161 -241c12 38 20 101 19 155h82c1 -90 -18 -186 -47 -239l88 -133h-84zM293 75
c63 0 122 24 155 62l-206 300c-74 -27 -132 -91 -132 -181c0 -102 75 -181 183 -181z" />
    <glyph glyph-name="paragraph" unicode="&#xb6;" horiz-adv-x="747" 
d="M272 352c-76 0 -208 13 -208 201c0 195 141 207 222 207h212v-760h-89v352h-137zM670 0h-89v760h89v-760z" />
    <glyph glyph-name="section" unicode="&#xa7;" horiz-adv-x="543" 
d="M418 197c50 -21 84 -64 84 -119c0 -87 -86 -153 -215 -153c-138 0 -244 75 -252 188h84c16 -66 76 -114 170 -114c72 0 130 28 130 70c0 54 -92 82 -148 96c-81 20 -223 53 -223 161c0 53 34 99 81 119c-46 17 -81 59 -81 116c0 88 84 155 208 155
c140 0 229 -86 236 -203h-84c-9 77 -66 128 -154 128c-73 0 -123 -33 -123 -71c0 -52 96 -80 148 -90c50 -9 223 -42 223 -162c0 -55 -36 -100 -84 -121zM131 344c0 -49 64 -91 159 -101c85 -9 129 14 129 56c0 50 -70 92 -157 102c-78 9 -131 -13 -131 -57z" />
    <glyph glyph-name="copyright" unicode="&#xa9;" horiz-adv-x="767" 
d="M383 124c-196 0 -327 131 -327 327s131 327 327 327s327 -131 327 -327s-131 -327 -327 -327zM383 156c178 0 295 119 295 295c0 177 -117 295 -295 295c-176 0 -294 -118 -294 -295c0 -176 118 -295 294 -295zM397 273c-98 0 -159 71 -159 178c0 106 61 179 155 179
c75 0 134 -47 138 -122h-32c-10 53 -53 88 -108 88c-72 0 -121 -58 -121 -145s48 -144 124 -144c54 0 97 29 105 70h31c2 -60 -55 -104 -133 -104z" />
    <glyph glyph-name="registered" unicode="&#xae;" horiz-adv-x="538" 
d="M269 358c-128 0 -213 85 -213 213c0 129 85 214 213 214c127 0 212 -85 212 -214c0 -128 -85 -213 -212 -213zM269 389c110 0 185 73 185 182c0 111 -75 183 -185 183s-185 -72 -185 -183c0 -109 75 -182 185 -182zM274 676c33 0 69 -13 69 -60c0 -39 -24 -55 -75 -56
l85 -91h-38l-84 91v-91h-29v207h72zM274 586c23 0 39 8 39 30c0 25 -18 32 -39 32h-43v-62h43z" />
    <glyph glyph-name="trademark" unicode="&#x2122;" horiz-adv-x="398" 
d="M103 570h-17v173h-59v17h134v-17h-58v-173zM321 570v139l-43 -139h-31l-44 139v-139h-17v190h19l56 -171l58 171h19v-190h-17z" />
    <glyph glyph-name="degree" unicode="&#xb0;" horiz-adv-x="425" 
d="M213 537c-72 0 -120 48 -120 119c0 72 48 120 120 120c71 0 118 -48 118 -120c0 -71 -47 -119 -118 -119zM213 582c41 0 68 29 68 74s-27 74 -68 74c-42 0 -69 -29 -69 -74s27 -74 69 -74z" />
    <glyph glyph-name="bar" unicode="|" horiz-adv-x="317" 
d="M201 -240h-85v1000h85v-1000z" />
    <glyph glyph-name="brokenbar" unicode="&#xa6;" horiz-adv-x="317" 
d="M201 355h-85v408h85v-408zM201 -240h-85v445h85v-445z" />
    <glyph glyph-name="dagger" unicode="&#x2020;" horiz-adv-x="555" 
d="M48 157h188v603h85v-603h187v-59h-187v-338h-85v338h-188v59z" />
    <glyph glyph-name="daggerdbl" unicode="&#x2021;" horiz-adv-x="576" 
d="M518 157v-59h-187v-338h-85v338h-188v59h188v147h-188v59h188v397h85v-397h187v-59h-187v-147h187z" />
    <glyph glyph-name="asciicircum" unicode="^" horiz-adv-x="476" 
d="M61 380l130 327h95l128 -327h-72l-103 290l-104 -290h-74z" />
    <glyph glyph-name="uni0308" unicode="&#x308;" 
d="M-222 676h-75v84h75v-84zM-119 676h-75v84h75v-84z" />
    <glyph glyph-name="uni0307" unicode="&#x307;" 
d="M-129 649c-36 0 -65 28 -65 64c0 35 29 63 65 63c34 0 64 -28 64 -63c0 -36 -30 -64 -64 -64z" />
    <glyph glyph-name="gravecomb" unicode="&#x300;" 
d="M-90 585l-165 175h119l108 -175h-62z" />
    <glyph glyph-name="acutecomb" unicode="&#x301;" 
d="M-137 760h119l-165 -175h-62z" />
    <glyph glyph-name="uni030B" unicode="&#x30b;" 
d="M-343 760h119l-165 -175h-62zM-137 760h119l-165 -175h-62z" />
    <glyph glyph-name="uni0302" unicode="&#x302;" 
d="M-321 585h-65l118 175h99l118 -175h-64l-103 119z" />
    <glyph glyph-name="uni030C" unicode="&#x30c;" 
d="M-386 760h65l103 -119l103 119h64l-118 -175h-99z" />
    <glyph glyph-name="uni0306" unicode="&#x306;" 
d="M-49 760c0 -105 -71 -175 -179 -175s-180 70 -180 175h75c0 -63 42 -104 105 -104s104 41 104 104h75z" />
    <glyph glyph-name="uni030A" unicode="&#x30a;" 
d="M-146 609c-51 0 -84 33 -84 83c0 49 33 81 84 81c50 0 83 -32 83 -81c0 -50 -33 -83 -83 -83zM-146 654c22 0 37 15 37 37c0 23 -15 37 -37 37c-23 0 -38 -14 -38 -37c0 -22 15 -37 38 -37z" />
    <glyph glyph-name="tildecomb" unicode="&#x303;" 
d="M-285 739c59 0 82 -64 121 -64c22 0 39 23 39 59h63c0 -88 -40 -128 -92 -128c-67 0 -87 66 -124 66c-22 0 -36 -25 -36 -61h-63c0 74 39 128 92 128z" />
    <glyph glyph-name="uni0304" unicode="&#x304;" 
d="M-78 720v-70h-312v70h312z" />
    <glyph glyph-name="uni0312" unicode="&#x312;" 
d="M-71 585h-108v103l50 104h58l-40 -104h40v-103z" />
    <glyph glyph-name="uni0326" unicode="&#x326;" 
d="M-109 -240h-47l34 170h76z" />
    <glyph glyph-name="uni0327" unicode="&#x327;" 
d="M-132 -51c47 0 78 -26 78 -64c0 -45 -38 -75 -87 -75h-57v45h50c27 0 45 11 45 29c0 16 -18 26 -45 26h-40v39l67 73h52l-76 -73h13z" />
    <glyph glyph-name="uni0328" unicode="&#x328;" 
d="M-91 -201c-81 0 -113 48 -113 88c0 64 72 106 92 119h46c-56 -43 -74 -77 -74 -103c0 -28 23 -44 66 -44c8 0 17 0 30 2v-59c-13 -2 -28 -3 -47 -3z" />
    <glyph glyph-name="uni0335" unicode="&#x335;" 
d="M-78 299v-69h-312v69h312z" />
    <glyph glyph-name="uni0336" unicode="&#x336;" 
d="M-700 299h622v-69h-622v69z" />
    <glyph glyph-name="uni0337" unicode="&#x337;" 
d="M-322 265v95l287 192v-95z" />
    <glyph glyph-name="uni0338" unicode="&#x338;" 
d="M-562 -116h-75l557 876h75z" />
    <glyph glyph-name="uni0308.ss01" 
d="M-270 666c-24 0 -46 20 -46 48c0 24 22 44 46 44c29 0 47 -20 47 -44c0 -28 -21 -48 -47 -48zM-133 666c-25 0 -46 20 -46 48c0 24 21 44 46 44c28 0 47 -20 47 -44c0 -28 -22 -48 -47 -48z" />
    <glyph glyph-name="acute" unicode="&#xb4;" horiz-adv-x="273" 
d="M-2 760h119l-165 -175h-62z" />
    <glyph glyph-name="breve" unicode="&#x2d8;" horiz-adv-x="456" 
d="M333 760c0 -105 -71 -175 -179 -175s-180 70 -180 175h75c0 -63 42 -104 105 -104s104 41 104 104h75z" />
    <glyph glyph-name="caron" unicode="&#x2c7;" horiz-adv-x="437" 
d="M-54 760h65l103 -119l103 119h64l-118 -175h-99z" />
    <glyph glyph-name="cedilla" unicode="&#xb8;" horiz-adv-x="254" 
d="M122 -51c47 0 78 -26 78 -64c0 -45 -38 -75 -87 -75h-57v45h50c27 0 45 11 45 29c0 16 -18 26 -45 26h-40v39l67 73h52l-76 -73h13z" />
    <glyph glyph-name="circumflex" unicode="&#x2c6;" horiz-adv-x="437" 
d="M10 585h-65l118 175h99l118 -175h-64l-103 119z" />
    <glyph glyph-name="dieresis" unicode="&#xa8;" horiz-adv-x="416" 
d="M159 676h-75v84h75v-84zM312 676h-75v84h75v-84z" />
    <glyph glyph-name="dotaccent" unicode="&#x2d9;" horiz-adv-x="259" 
d="M4 649c-36 0 -65 28 -65 64c0 35 29 63 65 63c34 0 64 -28 64 -63c0 -36 -30 -64 -64 -64z" />
    <glyph glyph-name="grave" unicode="`" horiz-adv-x="273" 
d="M193 585l-165 175h119l108 -175h-62z" />
    <glyph glyph-name="hungarumlaut" unicode="&#x2dd;" horiz-adv-x="479" 
d="M136 760h119l-165 -175h-62zM342 760h119l-165 -175h-62z" />
    <glyph glyph-name="macron" unicode="&#xaf;" horiz-adv-x="468" 
d="M342 720v-70h-312v70h312z" />
    <glyph glyph-name="ogonek" unicode="&#x2db;" horiz-adv-x="258" 
d="M167 -201c-81 0 -113 48 -113 88c0 64 72 106 92 119h46c-56 -43 -74 -77 -74 -103c0 -28 23 -44 66 -44c8 0 17 0 30 2v-59c-13 -2 -28 -3 -47 -3z" />
    <glyph glyph-name="ring" unicode="&#x2da;" horiz-adv-x="293" 
d="M59 609c-51 0 -84 33 -84 83c0 49 33 81 84 81c50 0 83 -32 83 -81c0 -50 -33 -83 -83 -83zM59 654c22 0 37 15 37 37c0 23 -15 37 -37 37c-23 0 -38 -14 -38 -37c0 -22 15 -37 38 -37z" />
    <glyph glyph-name="tilde" unicode="&#x2dc;" horiz-adv-x="437" 
d="M83 739c59 0 82 -64 121 -64c22 0 39 23 39 59h63c0 -88 -40 -128 -92 -128c-67 0 -87 66 -124 66c-22 0 -36 -25 -36 -61h-63c0 74 39 128 92 128z" />
    <glyph glyph-name="NULL" 
 />
    <glyph glyph-name="CR" horiz-adv-x="267" 
 />
    </font>
</defs>
</svg>
